SplineFontDB: 3.2
FontName: AtkinsonSlashfree-Italic
FullName: Atkinson Slashfree Italic
FamilyName: Atkinson Slashfree
Weight: Book
Copyright: (c) 2020 Braille Institute of America, Inc., a 501(c)(3) Charitable Organization.
Version: 1
ItalicAngle: -12
UnderlinePosition: -100
UnderlineWidth: 50
Ascent: 800
Descent: 200
InvalidEm: 0
sfntRevision: 0x00010000
LayerCount: 2
Layer: 0 1 "Back" 1
Layer: 1 1 "Fore" 0
XUID: [1021 801 -1858554247 17780]
StyleMap: 0x0001
FSType: 0
OS2Version: 3
OS2_WeightWidthSlopeOnly: 0
OS2_UseTypoMetrics: 0
CreationTime: 1546336848
ModificationTime: 1702590178
PfmFamily: 81
TTFWeight: 400
TTFWidth: 5
LineGap: 0
VLineGap: 0
Panose: 0 0 0 0 0 0 0 0 0 0
OS2TypoAscent: 796
OS2TypoAOffset: 0
OS2TypoDescent: -251
OS2TypoDOffset: 0
OS2TypoLinegap: 150
OS2WinAscent: 996
OS2WinAOffset: 0
OS2WinDescent: 411
OS2WinDOffset: 0
HheadAscent: 796
HheadAOffset: 0
HheadDescent: -251
HheadDOffset: 0
OS2SubXSize: 650
OS2SubYSize: 600
OS2SubXOff: -16
OS2SubYOff: 75
OS2SupXSize: 650
OS2SupYSize: 600
OS2SupXOff: 74
OS2SupYOff: 350
OS2StrikeYSize: 49
OS2StrikeYPos: 258
OS2CapHeight: 668
OS2XHeight: 496
OS2Vendor: '    '
OS2CodePages: 20000083.00000000
OS2UnicodeRanges: 00000027.00000000.00000000.00000000
Lookup: 1 0 0 "Single Substitution lookup 0" { "Single Substitution lookup 0 subtable"  } []
Lookup: 1 0 0 "'case' Case-Sensitive Forms lookup 1" { "'case' Case-Sensitive Forms lookup 1 subtable"  } ['case' ('DFLT' <'dflt' > 'grek' <'dflt' > 'latn' <'dflt' > ) ]
Lookup: 4 0 0 "'frac' Diagonal Fractions lookup 2" { "'frac' Diagonal Fractions lookup 2 subtable"  } ['frac' ('DFLT' <'dflt' > 'grek' <'dflt' > 'latn' <'dflt' > ) ]
Lookup: 6 0 0 "'ordn' Ordinals lookup 3" { "'ordn' Ordinals lookup 3 contextual 0"  "'ordn' Ordinals lookup 3 contextual 1"  } ['ordn' ('DFLT' <'dflt' > 'grek' <'dflt' > 'latn' <'dflt' > ) ]

StartChar: .notdef
Encoding: 65536 -1 0
Width: 527
GlyphClass: 1
Flags: W
LayerCount: 2
Fore
SplineSet
50 700 m 1,0,-1
 477 700 l 1,1,-1
 477 0 l 1,2,-1
 50 0 l 1,3,-1
 50 700 l 1,0,-1
449 680 m 1,4,-1
 78 680 l 1,5,-1
 263 371 l 1,6,-1
 449 680 l 1,4,-1
457 652 m 1,7,-1
 276 350 l 1,8,-1
 457 47 l 1,9,-1
 457 652 l 1,7,-1
251 350 m 1,10,-1
 71 650 l 1,11,-1
 71 49 l 1,12,-1
 251 350 l 1,10,-1
449 21 m 1,13,-1
 264 329 l 1,14,-1
 79 21 l 1,15,-1
 449 21 l 1,13,-1
EndSplineSet
Validated: 1
EndChar

StartChar: zero
Encoding: 48 48 4
Width: 654
GlyphClass: 1
Flags: W
LayerCount: 2
Back
SplineSet
302 63 m 5,13,14
 364 63 364 63 408 98 c 5,15,-1
 211 503 l 5,16,17
 175 439 175 439 163 334 c 4,18,19
 157 283 157 283 158.5 234 c 132,-1,20
 160 185 160 185 175 147 c 132,-1,21
 190 109 190 109 220.5 86 c 132,-1,22
 251 63 251 63 302 63 c 5,23,-1
 302 63 l 5,13,14
270 574 m 5,24,-1
 465 172 l 5,25,26
 497 238 497 238 509 334 c 4,27,28
 514 376 514 376 514 423.5 c 132,-1,29
 514 471 514 471 500.5 511.5 c 132,-1,30
 487 552 487 552 456 578.5 c 132,-1,31
 425 605 425 605 369 605 c 4,32,33
 312 605 312 605 270 574 c 5,34,-1
 270 574 l 5,24,-1
EndSplineSet
Fore
SplineSet
508 334 m 144,-1,1
 542 605 542 605 369 604.5 c 128,-1,2
 196 604 196 604 164 333.5 c 144,-1,3
 132 63 132 63 300 63 c 24,4,0
 474 63 474 63 508 334 c 144,-1,1
72 334 m 1,5,6
 93 502 93 502 171 591 c 128,-1,7
 249 680 249 680 378 680 c 0,8,9
 508 680 508 680 564.5 591 c 128,-1,10
 621 502 621 502 600 334 c 256,11,12
 579 166 579 166 501 77 c 128,-1,13
 423 -12 423 -12 293 -12 c 0,14,15
 164 -12 164 -12 107.5 77 c 128,-1,16
 51 166 51 166 72 334 c 1,17,-1
 72 334 l 1,5,6
EndSplineSet
Validated: 33
Substitution2: "'tnum' Tabular Numbers lookup 6 subtable" zero.tf
EndChar

StartChar: one
Encoding: 49 49 5
Width: 403
GlyphClass: 1
Flags: W
LayerCount: 2
Fore
SplineSet
101 571 m 1,0,1
 154 571 154 571 192 578 c 128,-1,2
 230 585 230 585 256.5 597.5 c 128,-1,3
 283 610 283 610 300 628 c 128,-1,4
 317 646 317 646 327 668 c 1,5,-1
 385 668 l 1,6,-1
 243 0 l 1,7,-1
 158 0 l 1,8,-1
 265 503 l 1,9,-1
 87 503 l 1,10,-1
 101 571 l 1,11,-1
 101 571 l 1,0,1
EndSplineSet
Validated: 5
Substitution2: "'tnum' Tabular Numbers lookup 6 subtable" one.tf
Substitution2: "'sups' Superscript lookup 5 subtable" uni00B9
EndChar

StartChar: two
Encoding: 50 50 6
Width: 565
GlyphClass: 1
Flags: W
LayerCount: 2
Fore
SplineSet
-18 0 m 1,0,-1
 -2 76 l 1,1,2
 201 190 201 190 316 283.5 c 128,-1,3
 431 377 431 377 451 465 c 0,4,5
 459 500 459 500 452.5 527 c 128,-1,6
 446 554 446 554 429.5 572.5 c 128,-1,7
 413 591 413 591 390 600.5 c 128,-1,8
 367 610 367 610 341 610 c 0,9,10
 318 610 318 610 294 604.5 c 128,-1,11
 270 599 270 599 248 586 c 128,-1,12
 226 573 226 573 207 551.5 c 128,-1,13
 188 530 188 530 174 498 c 1,14,-1
 96 522 l 1,15,16
 167 680 167 680 344 680 c 0,17,18
 390 680 390 680 431 667 c 128,-1,19
 472 654 472 654 500.5 627 c 128,-1,20
 529 600 529 600 541.5 559 c 128,-1,21
 554 518 554 518 543 461 c 0,22,23
 532 406 532 406 494 355 c 128,-1,24
 456 304 456 304 400 256 c 128,-1,25
 344 208 344 208 274.5 163.5 c 128,-1,26
 205 119 205 119 131 77 c 1,27,-1
 479 77 l 1,28,-1
 463 0 l 1,29,-1
 -18 0 l 1,30,-1
 -18 0 l 1,0,-1
EndSplineSet
Validated: 37
Substitution2: "'tnum' Tabular Numbers lookup 6 subtable" two.tf
Substitution2: "'sups' Superscript lookup 5 subtable" uni00B2
EndChar

StartChar: three
Encoding: 51 51 7
Width: 580
GlyphClass: 1
Flags: W
LayerCount: 2
Fore
SplineSet
32 158 m 1,0,-1
 118 181 l 1,1,2
 126 126 126 126 161.5 92 c 128,-1,3
 197 58 197 58 261 58 c 0,4,5
 292 58 292 58 320 67 c 128,-1,6
 348 76 348 76 369.5 93 c 128,-1,7
 391 110 391 110 403.5 134 c 128,-1,8
 416 158 416 158 416 187 c 0,9,10
 416 234 416 234 395.5 259.5 c 128,-1,11
 375 285 375 285 345 297.5 c 128,-1,12
 315 310 315 310 279.5 312.5 c 128,-1,13
 244 315 244 315 214 315 c 1,14,-1
 230 390 l 1,15,16
 269 390 269 390 307 393 c 128,-1,17
 345 396 345 396 375.5 407.5 c 128,-1,18
 406 419 406 419 425.5 441 c 128,-1,19
 445 463 445 463 446 501 c 0,20,21
 447 528 447 528 437 548.5 c 128,-1,22
 427 569 427 569 409.5 582.5 c 128,-1,23
 392 596 392 596 368.5 603 c 128,-1,24
 345 610 345 610 318 610 c 0,25,26
 257 610 257 610 221.5 579.5 c 128,-1,27
 186 549 186 549 169 498 c 1,28,-1
 91 523 l 1,29,30
 112 593 112 593 171.5 636.5 c 128,-1,31
 231 680 231 680 323 680 c 0,32,33
 361 680 361 680 399.5 671.5 c 128,-1,34
 438 663 438 663 469 644.5 c 128,-1,35
 500 626 500 626 519 595.5 c 128,-1,36
 538 565 538 565 538 520 c 0,37,38
 538 452 538 452 500.5 409.5 c 128,-1,39
 463 367 463 367 403 347 c 1,40,41
 461 327 461 327 483 287.5 c 128,-1,42
 505 248 505 248 505 198 c 0,43,44
 505 158 505 158 490 120.5 c 128,-1,45
 475 83 475 83 444 53.5 c 128,-1,46
 413 24 413 24 367 6 c 128,-1,47
 321 -12 321 -12 259 -12 c 0,48,49
 208 -12 208 -12 169 1 c 128,-1,50
 130 14 130 14 101.5 36.5 c 128,-1,51
 73 59 73 59 55.5 90.5 c 128,-1,52
 38 122 38 122 32 158 c 1,53,-1
 32 158 l 1,0,-1
EndSplineSet
Validated: 37
Substitution2: "'tnum' Tabular Numbers lookup 6 subtable" three.tf
Substitution2: "'sups' Superscript lookup 5 subtable" uni00B3
EndChar

StartChar: four
Encoding: 52 52 8
Width: 636
GlyphClass: 1
Flags: W
LayerCount: 2
Fore
SplineSet
34 244 m 1,0,-1
 462 668 l 1,1,-1
 549 668 l 1,2,-1
 459 244 l 1,3,-1
 583 244 l 1,4,-1
 566 165 l 1,5,-1
 442 165 l 1,6,-1
 407 0 l 1,7,-1
 320 0 l 1,8,-1
 356 165 l 1,9,-1
 17 165 l 1,10,-1
 34 244 l 1,0,-1
127 244 m 1,11,-1
 372 244 l 1,12,-1
 438 552 l 1,13,-1
 127 244 l 1,11,-1
EndSplineSet
Validated: 1
Substitution2: "'tnum' Tabular Numbers lookup 6 subtable" four.tf
EndChar

StartChar: five
Encoding: 53 53 9
Width: 575
GlyphClass: 1
Flags: W
LayerCount: 2
Fore
SplineSet
25 154 m 1,0,-1
 108 177 l 1,1,2
 124 117 124 117 158.5 89.5 c 128,-1,3
 193 62 193 62 242 60 c 0,4,5
 315 58 315 58 359.5 101.5 c 128,-1,6
 404 145 404 145 409 220 c 0,7,8
 414 298 414 298 379.5 336 c 128,-1,9
 345 374 345 374 285 377 c 0,10,11
 231 380 231 380 194.5 358 c 128,-1,12
 158 336 158 336 141 305 c 1,13,-1
 63 329 l 1,14,-1
 176 668 l 1,15,-1
 561 668 l 1,16,-1
 543 587 l 1,17,-1
 229 587 l 1,18,-1
 166 400 l 1,19,20
 220 450 220 450 301 450 c 0,21,22
 342 450 342 450 381 434.5 c 128,-1,23
 420 419 420 419 448.5 389 c 128,-1,24
 477 359 477 359 491.5 315 c 128,-1,25
 506 271 506 271 499 213 c 0,26,27
 492 151 492 151 466.5 107.5 c 128,-1,28
 441 64 441 64 405 36.5 c 128,-1,29
 369 9 369 9 325.5 -2.5 c 128,-1,30
 282 -14 282 -14 238 -12 c 0,31,32
 145 -7 145 -7 93.5 39 c 128,-1,33
 42 85 42 85 25 154 c 1,34,-1
 25 154 l 1,0,-1
EndSplineSet
Validated: 37
Substitution2: "'tnum' Tabular Numbers lookup 6 subtable" five.tf
EndChar

StartChar: six
Encoding: 54 54 10
Width: 605
GlyphClass: 1
Flags: W
LayerCount: 2
Fore
SplineSet
67 311 m 1,0,1
 76 383 76 383 98.5 449.5 c 128,-1,2
 121 516 121 516 158.5 567 c 128,-1,3
 196 618 196 618 249 649 c 128,-1,4
 302 680 302 680 372 680 c 0,5,6
 447 680 447 680 491.5 649 c 128,-1,7
 536 618 536 618 553 573 c 1,8,-1
 465 548 l 1,9,10
 454 577 454 577 429 593.5 c 128,-1,11
 404 610 404 610 363 610 c 0,12,13
 286 610 286 610 235 543 c 128,-1,14
 184 476 184 476 164 361 c 1,15,16
 189 398 189 398 232.5 421.5 c 128,-1,17
 276 445 276 445 336 445 c 0,18,19
 383 445 383 445 421 428.5 c 128,-1,20
 459 412 459 412 485 382 c 128,-1,21
 511 352 511 352 524 310.5 c 128,-1,22
 537 269 537 269 533 219 c 0,23,24
 530 172 530 172 512 130 c 128,-1,25
 494 88 494 88 462 56.5 c 128,-1,26
 430 25 430 25 384.5 6.5 c 128,-1,27
 339 -12 339 -12 281 -12 c 0,28,29
 217 -12 217 -12 172.5 11 c 128,-1,30
 128 34 128 34 101.5 76 c 128,-1,31
 75 118 75 118 66.5 177.5 c 128,-1,32
 58 237 58 237 67 311 c 1,33,-1
 67 311 l 1,0,1
284 58 m 1,34,35
 317 58 317 58 345 69.5 c 128,-1,36
 373 81 373 81 394 102 c 128,-1,37
 415 123 415 123 427.5 152 c 128,-1,38
 440 181 440 181 443 215 c 0,39,40
 448 284 448 284 412.5 327 c 128,-1,41
 377 370 377 370 310 370 c 0,42,43
 244 370 244 370 201.5 331 c 128,-1,44
 159 292 159 292 152 227 c 0,45,46
 148 193 148 193 156 162 c 128,-1,47
 164 131 164 131 181.5 108 c 128,-1,48
 199 85 199 85 225 71.5 c 128,-1,49
 251 58 251 58 284 58 c 1,50,-1
 284 58 l 1,34,35
EndSplineSet
Validated: 37
Substitution2: "'tnum' Tabular Numbers lookup 6 subtable" six.tf
EndChar

StartChar: seven
Encoding: 55 55 11
Width: 537
GlyphClass: 1
Flags: W
LayerCount: 2
Fore
SplineSet
445 587 m 1,0,-1
 78 587 l 1,1,-1
 96 668 l 1,2,-1
 567 668 l 1,3,-1
 550 587 l 1,4,-1
 139 0 l 1,5,-1
 31 0 l 1,6,-1
 445 587 l 1,0,-1
EndSplineSet
Validated: 1
Substitution2: "'tnum' Tabular Numbers lookup 6 subtable" seven.tf
EndChar

StartChar: eight
Encoding: 56 56 12
Width: 617
GlyphClass: 1
Flags: W
LayerCount: 2
Fore
SplineSet
39 188 m 1,0,1
 46 254 46 254 84.5 298.5 c 128,-1,2
 123 343 123 343 181 365 c 1,3,4
 157 390 157 390 145.5 424.5 c 128,-1,5
 134 459 134 459 138 498 c 0,6,7
 142 536 142 536 159.5 569 c 128,-1,8
 177 602 177 602 204 626.5 c 128,-1,9
 231 651 231 651 266 665.5 c 128,-1,10
 301 680 301 680 338 680 c 0,11,12
 376 680 376 680 407 665.5 c 128,-1,13
 438 651 438 651 460 626.5 c 128,-1,14
 482 602 482 602 493 569 c 128,-1,15
 504 536 504 536 500 498 c 0,16,17
 496 459 496 459 477 424.5 c 128,-1,18
 458 390 458 390 429 365 c 1,19,20
 483 343 483 343 512 298.5 c 128,-1,21
 541 254 541 254 533 188 c 0,22,23
 528 140 528 140 505.5 103 c 128,-1,24
 483 66 483 66 447 40.5 c 128,-1,25
 411 15 411 15 364.5 1.5 c 128,-1,26
 318 -12 318 -12 266 -12 c 256,27,28
 214 -12 214 -12 170 1.5 c 128,-1,29
 126 15 126 15 95 40.5 c 128,-1,30
 64 66 64 66 49 103 c 128,-1,31
 34 140 34 140 39 188 c 1,32,-1
 39 188 l 1,0,1
274 63 m 1,33,34
 345 63 345 63 391 96 c 128,-1,35
 437 129 437 129 443 188 c 0,36,37
 449 248 449 248 410 282.5 c 128,-1,38
 371 317 371 317 299 317 c 0,39,40
 228 317 228 317 182 282.5 c 128,-1,41
 136 248 136 248 130 188 c 0,42,43
 124 129 124 129 163 96 c 128,-1,44
 202 63 202 63 274 63 c 1,45,-1
 274 63 l 1,33,34
307 391 m 1,46,47
 329 391 329 391 349.5 399.5 c 128,-1,48
 370 408 370 408 386.5 422.5 c 128,-1,49
 403 437 403 437 413.5 456.5 c 128,-1,50
 424 476 424 476 426 498 c 0,51,52
 428 521 428 521 421.5 540.5 c 128,-1,53
 415 560 415 560 402 574 c 128,-1,54
 389 588 389 588 370.5 596.5 c 128,-1,55
 352 605 352 605 329 605 c 0,56,57
 307 605 307 605 287 596.5 c 128,-1,58
 267 588 267 588 251 574 c 128,-1,59
 235 560 235 560 224.5 540.5 c 128,-1,60
 214 521 214 521 212 498 c 0,61,62
 210 476 210 476 216 456.5 c 128,-1,63
 222 437 222 437 235 422.5 c 128,-1,64
 248 408 248 408 266.5 399.5 c 128,-1,65
 285 391 285 391 307 391 c 1,66,-1
 307 391 l 1,46,47
EndSplineSet
Validated: 37
Substitution2: "'tnum' Tabular Numbers lookup 6 subtable" eight.tf
EndChar

StartChar: nine
Encoding: 57 57 13
Width: 601
GlyphClass: 1
Flags: W
LayerCount: 2
Fore
SplineSet
131 554 m 1,0,1
 149 585 149 585 175 608.5 c 128,-1,2
 201 632 201 632 231 648 c 128,-1,3
 261 664 261 664 294 672 c 128,-1,4
 327 680 327 680 359 680 c 0,5,6
 418 680 418 680 464 655 c 0,7,8
 500 636 500 636 527 601.5 c 128,-1,9
 554 567 554 567 566 524.5 c 128,-1,10
 578 482 578 482 571 433 c 128,-1,11
 564 384 564 384 531 335 c 0,12,13
 516 313 516 313 497 287 c 128,-1,14
 478 261 478 261 457 233 c 128,-1,15
 436 205 436 205 413.5 177 c 128,-1,16
 391 149 391 149 370 123 c 0,17,18
 320 63 320 63 267 0 c 1,19,-1
 151 0 l 1,20,-1
 335 211 l 1,21,22
 281 205 281 205 238.5 217 c 128,-1,23
 196 229 196 229 165.5 253.5 c 128,-1,24
 135 278 135 278 117 313 c 128,-1,25
 99 348 99 348 94 388 c 128,-1,26
 89 428 89 428 98 471 c 128,-1,27
 107 514 107 514 131 554 c 1,28,-1
 131 554 l 1,0,1
312 288 m 1,29,30
 344 288 344 288 372.5 299.5 c 128,-1,31
 401 311 401 311 424 332 c 128,-1,32
 447 353 447 353 463 382 c 128,-1,33
 479 411 479 411 485 446 c 0,34,35
 489 471 489 471 483 498 c 128,-1,36
 477 525 477 525 460.5 547 c 128,-1,37
 444 569 444 569 416 583 c 128,-1,38
 388 597 388 597 347 596 c 0,39,40
 316 595 316 595 287.5 583.5 c 128,-1,41
 259 572 259 572 236.5 552 c 128,-1,42
 214 532 214 532 199 503.5 c 128,-1,43
 184 475 184 475 180 440 c 0,44,45
 177 408 177 408 185 380.5 c 128,-1,46
 193 353 193 353 211 332.5 c 128,-1,47
 229 312 229 312 255 300 c 128,-1,48
 281 288 281 288 312 288 c 1,49,-1
 312 288 l 1,29,30
EndSplineSet
Validated: 37
Substitution2: "'tnum' Tabular Numbers lookup 6 subtable" nine.tf
EndChar

StartChar: A
Encoding: 65 65 14
Width: 627
GlyphClass: 1
Flags: W
LayerCount: 2
Fore
SplineSet
340 668 m 1,0,-1
 456 668 l 1,1,-1
 565 0 l 1,2,-1
 462 0 l 1,3,-1
 441 146 l 1,4,-1
 139 146 l 1,5,-1
 56 0 l 1,6,-1
 -52 0 l 1,7,-1
 340 668 l 1,0,-1
184 226 m 1,8,-1
 430 226 l 1,9,-1
 381 573 l 1,10,-1
 184 226 l 1,8,-1
EndSplineSet
Validated: 1
Substitution2: "Single Substitution lookup 0 subtable" ordfeminine
EndChar

StartChar: B
Encoding: 66 66 15
Width: 630
GlyphClass: 1
Flags: W
LayerCount: 2
Fore
SplineSet
156 668 m 1,0,-1
 407 668 l 2,1,2
 469 668 469 668 510.5 650 c 128,-1,3
 552 632 552 632 574.5 603.5 c 128,-1,4
 597 575 597 575 602.5 539.5 c 128,-1,5
 608 504 608 504 596.5 469 c 128,-1,6
 585 434 585 434 558 403 c 128,-1,7
 531 372 531 372 490 352 c 1,8,9
 528 337 528 337 548.5 305.5 c 128,-1,10
 569 274 569 274 572 234.5 c 128,-1,11
 575 195 575 195 560 153.5 c 128,-1,12
 545 112 545 112 511.5 78 c 128,-1,13
 478 44 478 44 425 22 c 128,-1,14
 372 0 372 0 300 0 c 2,15,-1
 14 0 l 1,16,-1
 156 668 l 1,17,-1
 156 668 l 1,0,-1
127 79 m 1,18,-1
 308 79 l 2,19,20
 353 79 353 79 386.5 96 c 128,-1,21
 420 113 420 113 440.5 138.5 c 128,-1,22
 461 164 461 164 466.5 193.5 c 128,-1,23
 472 223 472 223 461.5 248.5 c 128,-1,24
 451 274 451 274 423 291 c 128,-1,25
 395 308 395 308 348 308 c 2,26,-1
 176 308 l 1,27,-1
 127 79 l 1,28,-1
 127 79 l 1,18,-1
364 382 m 1,29,30
 406 382 406 382 435.5 397.5 c 128,-1,31
 465 413 465 413 482 435.5 c 128,-1,32
 499 458 499 458 502.5 485 c 128,-1,33
 506 512 506 512 496 534.5 c 128,-1,34
 486 557 486 557 462 572.5 c 128,-1,35
 438 588 438 588 400 588 c 2,36,-1
 235 588 l 1,37,-1
 192 382 l 1,38,-1
 364 382 l 1,39,-1
 364 382 l 1,29,30
EndSplineSet
Validated: 37
EndChar

StartChar: C
Encoding: 67 67 16
Width: 666
GlyphClass: 1
Flags: W
LayerCount: 2
Fore
SplineSet
60 336 m 1,0,1
 73 410 73 410 104 473 c 128,-1,2
 135 536 135 536 181.5 582 c 128,-1,3
 228 628 228 628 289 654 c 128,-1,4
 350 680 350 680 422 680 c 0,5,6
 510 680 510 680 571 643 c 128,-1,7
 632 606 632 606 656 528 c 1,8,-1
 567 498 l 1,9,10
 550 549 550 549 509.5 574.5 c 128,-1,11
 469 600 469 600 412 600 c 0,12,13
 364 600 364 600 322.5 581.5 c 128,-1,14
 281 563 281 563 247.5 528.5 c 128,-1,15
 214 494 214 494 190.5 445.5 c 128,-1,16
 167 397 167 397 156 336 c 0,17,18
 146 278 146 278 153.5 229 c 128,-1,19
 161 180 161 180 183.5 144 c 128,-1,20
 206 108 206 108 242.5 87.5 c 128,-1,21
 279 67 279 67 326 67 c 0,22,23
 392 67 392 67 436.5 92 c 128,-1,24
 481 117 481 117 517 171 c 1,25,-1
 596 140 l 1,26,27
 548 64 548 64 476.5 26 c 128,-1,28
 405 -12 405 -12 316 -12 c 0,29,30
 232 -12 232 -12 177.5 19.5 c 128,-1,31
 123 51 123 51 93.5 101.5 c 128,-1,32
 64 152 64 152 57 214 c 128,-1,33
 50 276 50 276 60 336 c 1,34,-1
 60 336 l 1,0,1
EndSplineSet
Validated: 33
EndChar

StartChar: D
Encoding: 68 68 17
Width: 676
GlyphClass: 1
Flags: W
LayerCount: 2
Fore
SplineSet
14 0 m 1,0,-1
 156 668 l 1,1,-1
 340 668 l 2,2,3
 420 668 420 668 481 649.5 c 128,-1,4
 542 631 542 631 581 589.5 c 128,-1,5
 620 548 620 548 633.5 481.5 c 128,-1,6
 647 415 647 415 631 319 c 0,7,8
 618 238 618 238 580.5 178.5 c 128,-1,9
 543 119 543 119 487 79 c 128,-1,10
 431 39 431 39 358 19.5 c 128,-1,11
 285 0 285 0 199 0 c 2,12,-1
 14 0 l 1,13,-1
 14 0 l 1,0,-1
127 79 m 1,14,-1
 213 79 l 2,15,16
 274 79 274 79 328 92 c 128,-1,17
 382 105 382 105 424 134 c 128,-1,18
 466 163 466 163 495 210 c 128,-1,19
 524 257 524 257 536 325 c 0,20,21
 551 410 551 410 538.5 461.5 c 128,-1,22
 526 513 526 513 495 541 c 128,-1,23
 464 569 464 569 418 578.5 c 128,-1,24
 372 588 372 588 320 588 c 2,25,-1
 235 588 l 1,26,-1
 127 79 l 1,27,-1
 127 79 l 1,14,-1
EndSplineSet
Validated: 37
EndChar

StartChar: E
Encoding: 69 69 18
Width: 569
GlyphClass: 1
Flags: W
LayerCount: 2
Fore
SplineSet
156 668 m 1,0,-1
 611 668 l 1,1,-1
 594 587 l 1,2,-1
 235 587 l 1,3,-1
 192 384 l 1,4,-1
 457 384 l 1,5,-1
 439 304 l 1,6,-1
 175 304 l 1,7,-1
 127 81 l 1,8,-1
 486 81 l 1,9,-1
 469 0 l 1,10,-1
 14 0 l 1,11,-1
 156 668 l 1,0,-1
EndSplineSet
Validated: 1
EndChar

StartChar: F
Encoding: 70 70 19
Width: 550
GlyphClass: 1
Flags: W
LayerCount: 2
Fore
SplineSet
156 668 m 1,0,-1
 592 668 l 1,1,-1
 574 587 l 1,2,-1
 235 587 l 1,3,-1
 192 384 l 1,4,-1
 531 384 l 1,5,-1
 514 304 l 1,6,-1
 175 304 l 1,7,-1
 110 0 l 1,8,-1
 14 0 l 1,9,-1
 156 668 l 1,0,-1
EndSplineSet
Validated: 1
EndChar

StartChar: G
Encoding: 71 71 20
Width: 713
GlyphClass: 1
Flags: W
LayerCount: 2
Fore
SplineSet
60 336 m 1,0,1
 71 408 71 408 101 470.5 c 128,-1,2
 131 533 131 533 177.5 579.5 c 128,-1,3
 224 626 224 626 285.5 653 c 128,-1,4
 347 680 347 680 419 680 c 0,5,6
 513 680 513 680 573 642 c 128,-1,7
 633 604 633 604 656 528 c 1,8,-1
 567 498 l 1,9,10
 562 517 562 517 550 535.5 c 128,-1,11
 538 554 538 554 519 568 c 128,-1,12
 500 582 500 582 473.5 591 c 128,-1,13
 447 600 447 600 412 600 c 0,14,15
 366 600 366 600 324 582 c 128,-1,16
 282 564 282 564 248 530 c 128,-1,17
 214 496 214 496 190 447 c 128,-1,18
 166 398 166 398 156 336 c 256,19,20
 146 274 146 274 154.5 224.5 c 128,-1,21
 163 175 163 175 185.5 140.5 c 128,-1,22
 208 106 208 106 242 87.5 c 128,-1,23
 276 69 276 69 318 67 c 0,24,25
 356 66 356 66 391 74 c 128,-1,26
 426 82 426 82 456 102.5 c 128,-1,27
 486 123 486 123 508.5 157.5 c 128,-1,28
 531 192 531 192 543 243 c 2,29,-1
 548 264 l 1,30,-1
 352 264 l 1,31,-1
 369 344 l 1,32,-1
 656 344 l 1,33,-1
 582 0 l 1,34,-1
 526 0 l 1,35,-1
 520 82 l 1,36,37
 436 -12 436 -12 301 -12 c 0,38,39
 234 -12 234 -12 184 14 c 128,-1,40
 134 40 134 40 103 86.5 c 128,-1,41
 72 133 72 133 60.5 197 c 128,-1,42
 49 261 49 261 60 336 c 1,43,-1
 60 336 l 1,0,1
EndSplineSet
Validated: 33
EndChar

StartChar: H
Encoding: 72 72 21
Width: 694
GlyphClass: 1
Flags: W
LayerCount: 2
Fore
SplineSet
156 668 m 1,0,-1
 252 668 l 1,1,-1
 192 384 l 1,2,-1
 542 384 l 1,3,-1
 602 668 l 1,4,-1
 698 668 l 1,5,-1
 556 0 l 1,6,-1
 460 0 l 1,7,-1
 524 304 l 1,8,-1
 175 304 l 1,9,-1
 110 0 l 1,10,-1
 14 0 l 1,11,-1
 156 668 l 1,0,-1
EndSplineSet
Validated: 1
EndChar

StartChar: I
Encoding: 73 73 22
Width: 414
GlyphClass: 1
Flags: W
LayerCount: 2
Fore
SplineSet
20 75 m 1,0,-1
 113 75 l 1,1,-1
 223 593 l 1,2,-1
 130 593 l 1,3,-1
 146 668 l 1,4,-1
 427 668 l 1,5,-1
 412 593 l 1,6,-1
 318 593 l 1,7,-1
 209 75 l 1,8,-1
 301 75 l 1,9,-1
 285 0 l 1,10,-1
 4 0 l 1,11,-1
 20 75 l 1,0,-1
EndSplineSet
Validated: 1
EndChar

StartChar: J
Encoding: 74 74 23
Width: 509
GlyphClass: 1
Flags: W
LayerCount: 2
Fore
SplineSet
-7 190 m 1,0,-1
 83 214 l 1,1,2
 70 143 70 143 92 104 c 128,-1,3
 114 65 114 65 175 65 c 0,4,5
 199 65 199 65 221 71.5 c 128,-1,6
 243 78 243 78 262 94.5 c 128,-1,7
 281 111 281 111 295.5 139.5 c 128,-1,8
 310 168 310 168 320 213 c 2,9,-1
 417 668 l 1,10,-1
 513 668 l 1,11,-1
 416 212 l 2,12,13
 399 131 399 131 368.5 85.5 c 128,-1,14
 338 40 338 40 303 18.5 c 128,-1,15
 268 -3 268 -3 231 -7.5 c 128,-1,16
 194 -12 194 -12 163 -12 c 0,17,18
 126 -12 126 -12 93 -0.5 c 128,-1,19
 60 11 60 11 36 36 c 128,-1,20
 12 61 12 61 -0.5 99 c 128,-1,21
 -13 137 -13 137 -7 190 c 1,22,-1
 -7 190 l 1,0,-1
EndSplineSet
Validated: 37
EndChar

StartChar: K
Encoding: 75 75 24
Width: 623
GlyphClass: 1
Flags: W
LayerCount: 2
Fore
SplineSet
14 0 m 1,0,-1
 156 668 l 1,1,-1
 252 668 l 1,2,-1
 183 345 l 1,3,-1
 540 668 l 1,4,-1
 670 668 l 1,5,-1
 351 385 l 1,6,-1
 551 0 l 1,7,-1
 446 0 l 1,8,-1
 281 324 l 1,9,-1
 155 210 l 1,10,-1
 110 0 l 1,11,-1
 14 0 l 1,0,-1
EndSplineSet
Validated: 1
EndChar

StartChar: L
Encoding: 76 76 25
Width: 541
GlyphClass: 1
Flags: W
LayerCount: 2
Fore
SplineSet
156 668 m 1,0,-1
 252 668 l 1,1,-1
 127 81 l 1,2,-1
 486 81 l 1,3,-1
 469 0 l 1,4,-1
 14 0 l 1,5,-1
 156 668 l 1,0,-1
EndSplineSet
Validated: 1
EndChar

StartChar: M
Encoding: 77 77 26
Width: 824
GlyphClass: 1
Flags: W
LayerCount: 2
Fore
SplineSet
156 668 m 1,0,-1
 312 668 l 1,1,-1
 374 126 l 1,2,-1
 666 668 l 1,3,-1
 828 668 l 1,4,-1
 686 0 l 1,5,-1
 590 0 l 1,6,-1
 709 559 l 1,7,-1
 400 0 l 1,8,-1
 305 0 l 1,9,-1
 233 575 l 1,10,-1
 110 0 l 1,11,-1
 14 0 l 1,12,-1
 156 668 l 1,0,-1
EndSplineSet
Validated: 1
EndChar

StartChar: N
Encoding: 78 78 27
Width: 693
GlyphClass: 1
Flags: W
LayerCount: 2
Fore
SplineSet
156 668 m 1,0,-1
 293 668 l 1,1,-1
 479 94 l 1,2,-1
 601 668 l 1,3,-1
 697 668 l 1,4,-1
 555 0 l 1,5,-1
 418 0 l 1,6,-1
 233 576 l 1,7,-1
 110 0 l 1,8,-1
 14 0 l 1,9,-1
 156 668 l 1,0,-1
EndSplineSet
Validated: 1
EndChar

StartChar: O
Encoding: 79 79 28
Width: 728
GlyphClass: 1
Flags: W
LayerCount: 2
Fore
SplineSet
60 335 m 1,0,1
 71 410 71 410 101.5 473.5 c 128,-1,2
 132 537 132 537 179 582.5 c 128,-1,3
 226 628 226 628 290 654 c 128,-1,4
 354 680 354 680 433 680 c 0,5,6
 503 680 503 680 555.5 652.5 c 128,-1,7
 608 625 608 625 641 578 c 128,-1,8
 674 531 674 531 686 468.5 c 128,-1,9
 698 406 698 406 686 335 c 0,10,11
 676 270 676 270 648.5 207.5 c 128,-1,12
 621 145 621 145 575 96.5 c 128,-1,13
 529 48 529 48 464 18 c 128,-1,14
 399 -12 399 -12 312 -12 c 0,15,16
 243 -12 243 -12 190.5 15 c 128,-1,17
 138 42 138 42 105.5 89 c 128,-1,18
 73 136 73 136 61 199 c 128,-1,19
 49 262 49 262 60 335 c 1,20,-1
 60 335 l 1,0,1
325 67 m 1,21,22
 376 67 376 67 419.5 85.5 c 128,-1,23
 463 104 463 104 497.5 138.5 c 128,-1,24
 532 173 532 173 556 222.5 c 128,-1,25
 580 272 580 272 590 335 c 0,26,27
 601 399 601 399 591.5 448.5 c 128,-1,28
 582 498 582 498 558 531.5 c 128,-1,29
 534 565 534 565 498 582.5 c 128,-1,30
 462 600 462 600 420 600 c 0,31,32
 363 600 363 600 318.5 579.5 c 128,-1,33
 274 559 274 559 241 523.5 c 128,-1,34
 208 488 208 488 186.5 439.5 c 128,-1,35
 165 391 165 391 156 335 c 0,36,37
 145 270 145 270 154 220 c 128,-1,38
 163 170 163 170 187 136 c 128,-1,39
 211 102 211 102 247 84.5 c 128,-1,40
 283 67 283 67 325 67 c 1,41,-1
 325 67 l 1,21,22
EndSplineSet
Validated: 37
Substitution2: "Single Substitution lookup 0 subtable" ordmasculine
EndChar

StartChar: P
Encoding: 80 80 29
Width: 602
GlyphClass: 1
Flags: W
LayerCount: 2
Fore
SplineSet
14 0 m 1,0,-1
 156 668 l 1,1,-1
 342 668 l 2,2,3
 387 668 387 668 435.5 662 c 128,-1,4
 484 656 484 656 522.5 636 c 128,-1,5
 561 616 561 616 583.5 577 c 128,-1,6
 606 538 606 538 600 473 c 0,7,8
 595 421 595 421 575 382 c 128,-1,9
 555 343 555 343 517.5 317 c 128,-1,10
 480 291 480 291 423 278 c 128,-1,11
 366 265 366 265 287 265 c 2,12,-1
 166 265 l 1,13,-1
 110 0 l 1,14,-1
 14 0 l 1,15,-1
 14 0 l 1,0,-1
184 346 m 1,16,-1
 311 346 l 2,17,18
 391 346 391 346 440.5 370 c 128,-1,19
 490 394 490 394 500 457 c 0,20,21
 506 497 506 497 498 522.5 c 128,-1,22
 490 548 490 548 470 562.5 c 128,-1,23
 450 577 450 577 420 582.5 c 128,-1,24
 390 588 390 588 351 588 c 2,25,-1
 235 588 l 1,26,-1
 184 346 l 1,27,-1
 184 346 l 1,16,-1
EndSplineSet
Validated: 37
EndChar

StartChar: Q
Encoding: 81 81 30
Width: 749
GlyphClass: 1
Flags: W
LayerCount: 2
Fore
SplineSet
64 351 m 1,0,1
 75 426 75 426 105.5 489.5 c 128,-1,2
 136 553 136 553 183 599 c 128,-1,3
 230 645 230 645 294 670.5 c 128,-1,4
 358 696 358 696 437 696 c 0,5,6
 507 696 507 696 559.5 668.5 c 128,-1,7
 612 641 612 641 644.5 594 c 128,-1,8
 677 547 677 547 689 484.5 c 128,-1,9
 701 422 701 422 690 351 c 0,10,11
 680 289 680 289 655.5 230 c 128,-1,12
 631 171 631 171 589 123 c 1,13,-1
 688 7 l 1,14,-1
 618 -55 l 1,15,-1
 518 62 l 1,16,17
 478 35 478 35 428 20 c 128,-1,18
 378 5 378 5 316 5 c 0,19,20
 247 5 247 5 194.5 32 c 128,-1,21
 142 59 142 59 109.5 105.5 c 128,-1,22
 77 152 77 152 65 215.5 c 128,-1,23
 53 279 53 279 64 351 c 1,24,-1
 64 351 l 1,0,1
329 84 m 1,25,26
 405 84 405 84 465 124 c 1,27,-1
 329 284 l 1,28,-1
 400 344 l 1,29,-1
 532 190 l 1,30,31
 555 222 555 222 570.5 262.5 c 128,-1,32
 586 303 586 303 594 351 c 0,33,34
 605 415 605 415 595.5 464.5 c 128,-1,35
 586 514 586 514 562 548 c 128,-1,36
 538 582 538 582 502 599.5 c 128,-1,37
 466 617 466 617 424 617 c 0,38,39
 367 617 367 617 322.5 596.5 c 128,-1,40
 278 576 278 576 245 540 c 128,-1,41
 212 504 212 504 190.5 455.5 c 128,-1,42
 169 407 169 407 160 351 c 0,43,44
 149 286 149 286 158 236 c 128,-1,45
 167 186 167 186 191 152.5 c 128,-1,46
 215 119 215 119 251 101.5 c 128,-1,47
 287 84 287 84 329 84 c 1,48,-1
 329 84 l 1,25,26
EndSplineSet
Validated: 37
EndChar

StartChar: R
Encoding: 82 82 31
Width: 610
GlyphClass: 1
Flags: W
LayerCount: 2
Fore
SplineSet
14 0 m 1,0,-1
 156 668 l 1,1,-1
 360 668 l 2,2,3
 419 668 419 668 466.5 658.5 c 128,-1,4
 514 649 514 649 545.5 626.5 c 128,-1,5
 577 604 577 604 591.5 567 c 128,-1,6
 606 530 606 530 599 475 c 0,7,8
 596 445 596 445 583.5 414 c 128,-1,9
 571 383 571 383 544.5 357 c 128,-1,10
 518 331 518 331 476 312.5 c 128,-1,11
 434 294 434 294 371 288 c 1,12,-1
 518 0 l 1,13,-1
 413 0 l 1,14,-1
 270 281 l 1,15,-1
 170 281 l 1,16,-1
 110 0 l 1,17,-1
 14 0 l 1,18,-1
 14 0 l 1,0,-1
187 360 m 1,19,-1
 311 360 l 2,20,21
 350 360 350 360 383 364.5 c 128,-1,22
 416 369 416 369 441 381 c 128,-1,23
 466 393 466 393 482 415 c 128,-1,24
 498 437 498 437 502 473 c 0,25,26
 507 508 507 508 498 530 c 128,-1,27
 489 552 489 552 469.5 565 c 128,-1,28
 450 578 450 578 420 583 c 128,-1,29
 390 588 390 588 352 588 c 2,30,-1
 235 588 l 1,31,-1
 187 360 l 1,32,-1
 187 360 l 1,19,-1
EndSplineSet
Validated: 37
EndChar

StartChar: S
Encoding: 83 83 32
Width: 609
GlyphClass: 1
Flags: W
LayerCount: 2
Fore
SplineSet
36 147 m 1,0,-1
 127 172 l 1,1,2
 136 145 136 145 153.5 125 c 128,-1,3
 171 105 171 105 193.5 92.5 c 128,-1,4
 216 80 216 80 241.5 73.5 c 128,-1,5
 267 67 267 67 293 67 c 0,6,7
 322 67 322 67 349.5 74.5 c 128,-1,8
 377 82 377 82 398.5 97 c 128,-1,9
 420 112 420 112 433 134 c 128,-1,10
 446 156 446 156 446 184 c 0,11,12
 446 226 446 226 419.5 248.5 c 128,-1,13
 393 271 393 271 353 286 c 128,-1,14
 313 301 313 301 266.5 313.5 c 128,-1,15
 220 326 220 326 180 346.5 c 128,-1,16
 140 367 140 367 113.5 401.5 c 128,-1,17
 87 436 87 436 87 495 c 0,18,19
 87 541 87 541 107 575.5 c 128,-1,20
 127 610 127 610 160.5 633.5 c 128,-1,21
 194 657 194 657 236.5 668.5 c 128,-1,22
 279 680 279 680 324 680 c 0,23,24
 361 680 361 680 397 672 c 128,-1,25
 433 664 433 664 464.5 648.5 c 128,-1,26
 496 633 496 633 521 609.5 c 128,-1,27
 546 586 546 586 561 555 c 1,28,-1
 469 529 l 1,29,30
 460 547 460 547 444 560.5 c 128,-1,31
 428 574 428 574 408 583 c 128,-1,32
 388 592 388 592 365.5 596.5 c 128,-1,33
 343 601 343 601 320 601 c 0,34,35
 295 601 295 601 270.5 595 c 128,-1,36
 246 589 246 589 227 577 c 128,-1,37
 208 565 208 565 196 547 c 128,-1,38
 184 529 184 529 182 505 c 0,39,40
 180 474 180 474 194.5 454 c 128,-1,41
 209 434 209 434 234 420 c 128,-1,42
 259 406 259 406 291.5 395.5 c 128,-1,43
 324 385 324 385 358.5 374.5 c 128,-1,44
 393 364 393 364 426.5 351 c 128,-1,45
 460 338 460 338 486 317.5 c 128,-1,46
 512 297 512 297 528 268 c 128,-1,47
 544 239 544 239 544 197 c 0,48,49
 544 147 544 147 522 108 c 128,-1,50
 500 69 500 69 463.5 42.5 c 128,-1,51
 427 16 427 16 380.5 2 c 128,-1,52
 334 -12 334 -12 285 -12 c 0,53,54
 245 -12 245 -12 206.5 -2.5 c 128,-1,55
 168 7 168 7 134.5 26.5 c 128,-1,56
 101 46 101 46 75.5 76 c 128,-1,57
 50 106 50 106 36 147 c 1,58,-1
 36 147 l 1,0,-1
EndSplineSet
Validated: 37
EndChar

StartChar: T
Encoding: 84 84 33
Width: 558
GlyphClass: 1
Flags: W
LayerCount: 2
Fore
SplineSet
90 668 m 1,0,-1
 628 668 l 1,1,-1
 611 587 l 1,2,-1
 389 587 l 1,3,-1
 266 0 l 1,4,-1
 169 0 l 1,5,-1
 293 587 l 1,6,-1
 73 587 l 1,7,-1
 90 668 l 1,0,-1
EndSplineSet
Validated: 1
EndChar

StartChar: U
Encoding: 85 85 34
Width: 693
GlyphClass: 1
Flags: W
LayerCount: 2
Fore
SplineSet
74 280 m 1,0,-1
 157 668 l 1,1,-1
 253 668 l 1,2,-1
 169 272 l 2,3,4
 147 166 147 166 173.5 117.5 c 128,-1,5
 200 69 200 69 291 69 c 0,6,7
 336 69 336 69 372 78.5 c 128,-1,8
 408 88 408 88 436 111.5 c 128,-1,9
 464 135 464 135 483.5 174 c 128,-1,10
 503 213 503 213 516 272 c 2,11,-1
 601 668 l 1,12,-1
 697 668 l 1,13,-1
 614 280 l 2,14,15
 593 180 593 180 557 121.5 c 128,-1,16
 521 63 521 63 476.5 33.5 c 128,-1,17
 432 4 432 4 382.5 -4 c 128,-1,18
 333 -12 333 -12 286 -12 c 0,19,20
 147 -12 147 -12 94 57.5 c 128,-1,21
 41 127 41 127 74 280 c 1,22,-1
 74 280 l 1,0,-1
EndSplineSet
Validated: 37
EndChar

StartChar: V
Encoding: 86 86 35
Width: 592
GlyphClass: 1
Flags: W
LayerCount: 2
Fore
SplineSet
90 668 m 1,0,-1
 189 668 l 1,1,-1
 251 110 l 1,2,-1
 551 668 l 1,3,-1
 662 668 l 1,4,-1
 290 0 l 1,5,-1
 178 0 l 1,6,-1
 90 668 l 1,0,-1
EndSplineSet
Validated: 1
EndChar

StartChar: W
Encoding: 87 87 36
Width: 844
GlyphClass: 1
Flags: W
LayerCount: 2
Fore
SplineSet
90 668 m 1,0,-1
 190 668 l 1,1,-1
 202 128 l 1,2,-1
 436 668 l 1,3,-1
 549 668 l 1,4,-1
 554 117 l 1,5,-1
 804 668 l 1,6,-1
 914 668 l 1,7,-1
 604 0 l 1,8,-1
 483 0 l 1,9,-1
 472 551 l 1,10,-1
 227 0 l 1,11,-1
 116 0 l 1,12,-1
 90 668 l 1,0,-1
EndSplineSet
Validated: 1
EndChar

StartChar: X
Encoding: 88 88 37
Width: 624
GlyphClass: 1
Flags: W
LayerCount: 2
Fore
SplineSet
274 351 m 1,0,-1
 116 668 l 1,1,-1
 218 668 l 1,2,-1
 339 423 l 1,3,-1
 566 668 l 1,4,-1
 691 668 l 1,5,-1
 383 336 l 1,6,-1
 552 0 l 1,7,-1
 449 0 l 1,8,-1
 317 264 l 1,9,-1
 73 0 l 1,10,-1
 -52 0 l 1,11,-1
 274 351 l 1,0,-1
EndSplineSet
Validated: 1
EndChar

StartChar: Y
Encoding: 89 89 38
Width: 598
GlyphClass: 1
Flags: W
LayerCount: 2
Fore
SplineSet
90 668 m 1,0,-1
 186 668 l 1,1,-1
 290 331 l 1,2,-1
 554 668 l 1,3,-1
 668 668 l 1,4,-1
 325 240 l 1,5,-1
 274 0 l 1,6,-1
 177 0 l 1,7,-1
 229 240 l 1,8,-1
 90 668 l 1,0,-1
EndSplineSet
Validated: 1
EndChar

StartChar: Z
Encoding: 90 90 39
Width: 613
GlyphClass: 1
Flags: W
LayerCount: 2
Fore
SplineSet
-1 81 m 1,0,-1
 500 587 l 1,1,-1
 128 587 l 1,2,-1
 145 668 l 1,3,-1
 640 668 l 1,4,-1
 623 587 l 1,5,-1
 123 81 l 1,6,-1
 524 81 l 1,7,-1
 506 0 l 1,8,-1
 -18 0 l 1,9,-1
 -1 81 l 1,0,-1
EndSplineSet
Validated: 1
EndChar

StartChar: a
Encoding: 97 97 40
Width: 520
GlyphClass: 1
Flags: W
LayerCount: 2
Fore
SplineSet
369 308 m 1,0,1
 384 371 384 371 364 403.5 c 128,-1,2
 344 436 344 436 284 436 c 0,3,4
 238 436 238 436 206 415.5 c 128,-1,5
 174 395 174 395 157 359 c 1,6,-1
 82 382 l 1,7,8
 108 439 108 439 158 471.5 c 128,-1,9
 208 504 208 504 280 504 c 0,10,11
 384 504 384 504 430 454.5 c 128,-1,12
 476 405 476 405 454 302 c 2,13,-1
 430 188 l 2,14,15
 417 125 417 125 412.5 80 c 128,-1,16
 408 35 408 35 407 0 c 1,17,-1
 328 0 l 1,18,-1
 324 63 l 1,19,20
 291 25 291 25 251.5 6.5 c 128,-1,21
 212 -12 212 -12 153 -12 c 0,22,23
 121 -12 121 -12 94 -3 c 128,-1,24
 67 6 67 6 47 23 c 128,-1,25
 27 40 27 40 15.5 63.5 c 128,-1,26
 4 87 4 87 4 117 c 0,27,28
 4 159 4 159 23 188.5 c 128,-1,29
 42 218 42 218 73 238 c 128,-1,30
 104 258 104 258 143.5 270.5 c 128,-1,31
 183 283 183 283 223.5 290.5 c 128,-1,32
 264 298 264 298 302.5 301.5 c 128,-1,33
 341 305 341 305 369 308 c 1,34,-1
 369 308 l 1,0,1
180 57 m 1,35,36
 248 57 248 57 296 102 c 128,-1,37
 344 147 344 147 358 224 c 2,38,-1
 361 241 l 1,39,40
 303 235 303 235 256 229 c 128,-1,41
 209 223 209 223 175.5 212 c 128,-1,42
 142 201 142 201 122.5 184 c 128,-1,43
 103 167 103 167 99 139 c 0,44,45
 93 97 93 97 117.5 77 c 128,-1,46
 142 57 142 57 180 57 c 1,47,-1
 180 57 l 1,35,36
EndSplineSet
Validated: 37
Substitution2: "Single Substitution lookup 0 subtable" ordfeminine
EndChar

StartChar: b
Encoding: 98 98 41
Width: 557
GlyphClass: 1
Flags: W
LayerCount: 2
Fore
SplineSet
150 668 m 1,0,-1
 236 668 l 1,1,-1
 185 430 l 1,2,3
 219 474 219 474 256 489 c 128,-1,4
 293 504 293 504 325 504 c 0,5,6
 378 504 378 504 413.5 485.5 c 128,-1,7
 449 467 449 467 470.5 437.5 c 128,-1,8
 492 408 492 408 501 370 c 128,-1,9
 510 332 510 332 510 293 c 0,10,11
 510 239 510 239 494.5 185 c 128,-1,12
 479 131 479 131 448.5 87 c 128,-1,13
 418 43 418 43 372.5 15.5 c 128,-1,14
 327 -12 327 -12 267 -12 c 0,15,16
 210 -12 210 -12 173 13 c 128,-1,17
 136 38 136 38 113 82 c 1,18,-1
 72 0 l 1,19,-1
 8 0 l 1,20,-1
 150 668 l 1,21,-1
 150 668 l 1,0,-1
258 60 m 1,22,23
 301 60 301 60 331.5 82.5 c 128,-1,24
 362 105 362 105 381.5 139.5 c 128,-1,25
 401 174 401 174 410.5 214.5 c 128,-1,26
 420 255 420 255 420 291 c 0,27,28
 420 353 420 353 393 392.5 c 128,-1,29
 366 432 366 432 308 432 c 0,30,31
 267 432 267 432 235.5 411 c 128,-1,32
 204 390 204 390 182.5 358 c 128,-1,33
 161 326 161 326 150 286.5 c 128,-1,34
 139 247 139 247 139 211 c 0,35,36
 139 182 139 182 146 154.5 c 128,-1,37
 153 127 153 127 168 106 c 128,-1,38
 183 85 183 85 205.5 72.5 c 128,-1,39
 228 60 228 60 258 60 c 1,40,-1
 258 60 l 1,22,23
EndSplineSet
Validated: 5
EndChar

StartChar: c
Encoding: 99 99 42
Width: 493
GlyphClass: 1
Flags: W
LayerCount: 2
Fore
SplineSet
29 248 m 1,0,1
 38 303 38 303 60 350 c 128,-1,2
 82 397 82 397 116.5 431 c 128,-1,3
 151 465 151 465 196 484.5 c 128,-1,4
 241 504 241 504 296 504 c 0,5,6
 364 504 364 504 410 475.5 c 128,-1,7
 456 447 456 447 481 393 c 1,8,-1
 398 364 l 1,9,10
 388 394 388 394 359 412 c 128,-1,11
 330 430 330 430 292 430 c 0,12,13
 252 430 252 430 222 414 c 128,-1,14
 192 398 192 398 171 372.5 c 128,-1,15
 150 347 150 347 138 314.5 c 128,-1,16
 126 282 126 282 120 249 c 0,17,18
 114 212 114 212 116 178 c 128,-1,19
 118 144 118 144 131.5 118.5 c 128,-1,20
 145 93 145 93 171 77.5 c 128,-1,21
 197 62 197 62 239 62 c 0,22,23
 280 62 280 62 310 79.5 c 128,-1,24
 340 97 340 97 363 127 c 1,25,-1
 434 99 l 1,26,27
 400 43 400 43 343.5 15.5 c 128,-1,28
 287 -12 287 -12 220 -12 c 0,29,30
 167 -12 167 -12 127 6.5 c 128,-1,31
 87 25 87 25 62.5 59.5 c 128,-1,32
 38 94 38 94 29 142 c 128,-1,33
 20 190 20 190 29 248 c 1,34,-1
 29 248 l 1,0,1
EndSplineSet
Validated: 33
EndChar

StartChar: d
Encoding: 100 100 43
Width: 554
GlyphClass: 1
Flags: W
LayerCount: 2
Fore
SplineSet
30 247 m 1,0,1
 38 307 38 307 59.5 354.5 c 128,-1,2
 81 402 81 402 112.5 435.5 c 128,-1,3
 144 469 144 469 184.5 486.5 c 128,-1,4
 225 504 225 504 271 504 c 0,5,6
 331 504 331 504 370.5 473.5 c 128,-1,7
 410 443 410 443 424 398 c 1,8,-1
 481 668 l 1,9,-1
 567 668 l 1,10,11
 545 565 545 565 525 473 c 0,12,13
 517 434 517 434 508.5 393 c 128,-1,14
 500 352 500 352 492 314 c 128,-1,15
 484 276 484 276 477 243.5 c 128,-1,16
 470 211 470 211 465 188 c 0,17,18
 460 162 460 162 451.5 114 c 128,-1,19
 443 66 443 66 442 0 c 1,20,-1
 361 0 l 1,21,-1
 356 61 l 1,22,23
 330 29 330 29 295 8.5 c 128,-1,24
 260 -12 260 -12 205 -12 c 0,25,26
 157 -12 157 -12 121 8 c 128,-1,27
 85 28 85 28 62.5 62.5 c 128,-1,28
 40 97 40 97 31.5 144.5 c 128,-1,29
 23 192 23 192 30 247 c 1,30,-1
 30 247 l 1,0,1
226 60 m 1,31,32
 266 60 266 60 296.5 77.5 c 128,-1,33
 327 95 327 95 348 122.5 c 128,-1,34
 369 150 369 150 381 183 c 128,-1,35
 393 216 393 216 396 247 c 0,36,37
 404 331 404 331 374.5 381.5 c 128,-1,38
 345 432 345 432 280 432 c 0,39,40
 246 432 246 432 219 417 c 128,-1,41
 192 402 192 402 172.5 377 c 128,-1,42
 153 352 153 352 140 318.5 c 128,-1,43
 127 285 127 285 121 247 c 0,44,45
 114 200 114 200 119.5 165 c 128,-1,46
 125 130 125 130 140.5 106.5 c 128,-1,47
 156 83 156 83 178.5 71.5 c 128,-1,48
 201 60 201 60 226 60 c 1,49,-1
 226 60 l 1,31,32
EndSplineSet
Validated: 37
EndChar

StartChar: e
Encoding: 101 101 44
Width: 541
GlyphClass: 1
Flags: W
LayerCount: 2
Fore
SplineSet
30 248 m 1,0,1
 39 310 39 310 63 357.5 c 128,-1,2
 87 405 87 405 123 437.5 c 128,-1,3
 159 470 159 470 206 487 c 128,-1,4
 253 504 253 504 308 504 c 0,5,6
 368 504 368 504 410.5 481 c 128,-1,7
 453 458 453 458 477 419.5 c 128,-1,8
 501 381 501 381 506.5 330.5 c 128,-1,9
 512 280 512 280 499 225 c 1,10,-1
 115 225 l 1,11,12
 110 178 110 178 120 146.5 c 128,-1,13
 130 115 130 115 149.5 96.5 c 128,-1,14
 169 78 169 78 194.5 70 c 128,-1,15
 220 62 220 62 247 62 c 0,16,17
 289 62 289 62 319 75 c 128,-1,18
 349 88 349 88 370 111 c 1,19,-1
 448 87 l 1,20,21
 413 42 413 42 361 15 c 128,-1,22
 309 -12 309 -12 237 -12 c 0,23,24
 182 -12 182 -12 139.5 6.5 c 128,-1,25
 97 25 97 25 70 59 c 128,-1,26
 43 93 43 93 32.5 141 c 128,-1,27
 22 189 22 189 30 248 c 1,28,-1
 30 248 l 1,0,1
420 293 m 1,29,30
 423 317 423 317 417.5 342 c 128,-1,31
 412 367 412 367 397.5 387 c 128,-1,32
 383 407 383 407 358 419.5 c 128,-1,33
 333 432 333 432 296 432 c 0,34,35
 268 432 268 432 241 423 c 128,-1,36
 214 414 214 414 191 396 c 128,-1,37
 168 378 168 378 151 352 c 128,-1,38
 134 326 134 326 127 293 c 1,39,-1
 420 293 l 1,40,-1
 420 293 l 1,29,30
EndSplineSet
Validated: 37
EndChar

StartChar: f
Encoding: 102 102 45
Width: 320
GlyphClass: 1
Flags: W
LayerCount: 2
Fore
SplineSet
128 428 m 1,0,-1
 44 428 l 1,1,-1
 59 496 l 1,2,-1
 142 496 l 1,3,-1
 154 549 l 2,4,5
 168 608 168 608 182.5 640 c 128,-1,6
 197 672 197 672 220.5 686.5 c 128,-1,7
 244 701 244 701 280.5 703.5 c 128,-1,8
 317 706 317 706 374 706 c 1,9,-1
 359 635 l 1,10,-1
 335 635 l 2,11,12
 317 635 317 635 302.5 633.5 c 128,-1,13
 288 632 288 632 276.5 624.5 c 128,-1,14
 265 617 265 617 257 603 c 128,-1,15
 249 589 249 589 243 563 c 2,16,-1
 228 496 l 1,17,-1
 330 496 l 1,18,-1
 315 428 l 1,19,-1
 214 428 l 1,20,-1
 123 0 l 1,21,-1
 37 0 l 1,22,-1
 128 428 l 1,23,-1
 128 428 l 1,0,-1
EndSplineSet
Validated: 5
EndChar

StartChar: g
Encoding: 103 103 46
Width: 554
GlyphClass: 1
Flags: W
LayerCount: 2
Fore
SplineSet
-5 -78 m 1,0,-1
 85 -53 l 1,1,2
 90 -78 90 -78 117 -98.5 c 128,-1,3
 144 -119 144 -119 193 -117 c 0,4,5
 231 -116 231 -116 256 -104.5 c 128,-1,6
 281 -93 281 -93 297.5 -74.5 c 128,-1,7
 314 -56 314 -56 324 -31 c 128,-1,8
 334 -6 334 -6 341 23 c 0,9,10
 343 28 343 28 345 37.5 c 128,-1,11
 347 47 347 47 349 56 c 0,12,13
 351 67 351 67 354 80 c 1,14,15
 329 48 329 48 293 32 c 128,-1,16
 257 16 257 16 218 16 c 0,17,18
 181 16 181 16 145 31 c 128,-1,19
 109 46 109 46 82 76 c 128,-1,20
 55 106 55 106 41 151.5 c 128,-1,21
 27 197 27 197 33 258 c 0,22,23
 40 325 40 325 63 372 c 128,-1,24
 86 419 86 419 118.5 449 c 128,-1,25
 151 479 151 479 189 492.5 c 128,-1,26
 227 506 227 506 265 506 c 0,27,28
 318 506 318 506 361.5 482.5 c 128,-1,29
 405 459 405 459 425 418 c 1,30,-1
 465 496 l 1,31,-1
 527 496 l 1,32,33
 507 400 507 400 489 314 c 0,34,35
 481 277 481 277 473 238.5 c 128,-1,36
 465 200 465 200 457.5 164.5 c 128,-1,37
 450 129 450 129 443.5 98.5 c 128,-1,38
 437 68 437 68 432 47 c 0,39,40
 426 19 426 19 416.5 -21.5 c 128,-1,41
 407 -62 407 -62 381.5 -99.5 c 128,-1,42
 356 -137 356 -137 308.5 -163.5 c 128,-1,43
 261 -190 261 -190 179 -190 c 0,44,45
 148 -190 148 -190 118.5 -182.5 c 128,-1,46
 89 -175 89 -175 64.5 -160.5 c 128,-1,47
 40 -146 40 -146 22 -125 c 128,-1,48
 4 -104 4 -104 -5 -78 c 1,49,-1
 -5 -78 l 1,0,-1
242 89 m 1,50,51
 273 88 273 88 298 100.5 c 128,-1,52
 323 113 323 113 342.5 135.5 c 128,-1,53
 362 158 362 158 375.5 189 c 128,-1,54
 389 220 389 220 395 256 c 0,55,56
 403 299 403 299 395.5 332 c 128,-1,57
 388 365 388 365 370.5 387 c 128,-1,58
 353 409 353 409 328 420.5 c 128,-1,59
 303 432 303 432 275 432 c 0,60,61
 213 432 213 432 173 386 c 128,-1,62
 133 340 133 340 122 256 c 0,63,64
 112 179 112 179 146.5 135 c 128,-1,65
 181 91 181 91 242 89 c 1,66,-1
 242 89 l 1,50,51
EndSplineSet
Validated: 37
EndChar

StartChar: h
Encoding: 104 104 47
Width: 549
GlyphClass: 1
Flags: W
LayerCount: 2
Fore
SplineSet
8 0 m 1,0,-1
 150 668 l 1,1,-1
 236 668 l 1,2,-1
 185 427 l 1,3,4
 210 459 210 459 249.5 481.5 c 128,-1,5
 289 504 289 504 356 504 c 0,6,7
 435 504 435 504 470 451.5 c 128,-1,8
 505 399 505 399 481 288 c 2,9,-1
 419 0 l 1,10,-1
 334 0 l 1,11,-1
 393 280 l 2,12,13
 402 322 402 322 402.5 351 c 128,-1,14
 403 380 403 380 394 397.5 c 128,-1,15
 385 415 385 415 366.5 422.5 c 128,-1,16
 348 430 348 430 319 430 c 0,17,18
 292 430 292 430 265.5 421.5 c 128,-1,19
 239 413 239 413 216.5 392.5 c 128,-1,20
 194 372 194 372 176 339 c 128,-1,21
 158 306 158 306 148 257 c 2,22,-1
 94 0 l 1,23,-1
 8 0 l 1,24,-1
 8 0 l 1,0,-1
EndSplineSet
Validated: 37
EndChar

StartChar: i
Encoding: 105 105 48
Width: 270
GlyphClass: 1
Flags: W
LayerCount: 2
Fore
SplineSet
229 716 m 1,0,1
 255 716 255 716 273.5 697.5 c 128,-1,2
 292 679 292 679 292 653 c 256,3,4
 292 627 292 627 273.5 609 c 128,-1,5
 255 591 255 591 229 591 c 256,6,7
 203 591 203 591 185 609 c 128,-1,8
 167 627 167 627 167 653 c 256,9,10
 167 679 167 679 185 697.5 c 128,-1,11
 203 716 203 716 229 716 c 1,12,-1
 229 716 l 1,0,1
137 428 m 1,13,-1
 57 428 l 1,14,-1
 71 496 l 1,15,-1
 237 496 l 1,16,-1
 132 0 l 1,17,-1
 46 0 l 1,18,-1
 137 428 l 1,13,-1
EndSplineSet
Validated: 5
EndChar

StartChar: j
Encoding: 106 106 49
Width: 258
GlyphClass: 1
Flags: W
LayerCount: 2
Fore
SplineSet
-154 -159 m 1,0,-1
 -138 -86 l 1,1,2
 -88 -87 -88 -87 -58 -84.5 c 128,-1,3
 -28 -82 -28 -82 -11 -71.5 c 128,-1,4
 6 -61 6 -61 14.5 -41 c 128,-1,5
 23 -21 23 -21 30 13 c 2,6,-1
 133 496 l 1,7,-1
 219 496 l 1,8,-1
 115 8 l 2,9,10
 103 -47 103 -47 90 -81.5 c 128,-1,11
 77 -116 77 -116 49.5 -134.5 c 128,-1,12
 22 -153 22 -153 -25.5 -158 c 128,-1,13
 -73 -163 -73 -163 -154 -159 c 1,14,-1
 -154 -159 l 1,0,-1
148 654 m 1,15,16
 148 680 148 680 166.5 698.5 c 128,-1,17
 185 717 185 717 211 717 c 256,18,19
 237 717 237 717 255.5 698.5 c 128,-1,20
 274 680 274 680 274 654 c 256,21,22
 274 628 274 628 255.5 609.5 c 128,-1,23
 237 591 237 591 211 591 c 256,24,25
 185 591 185 591 166.5 609.5 c 128,-1,26
 148 628 148 628 148 654 c 1,27,-1
 148 654 l 1,15,16
EndSplineSet
Validated: 37
EndChar

StartChar: k
Encoding: 107 107 50
Width: 488
GlyphClass: 1
Flags: W
LayerCount: 2
Fore
SplineSet
150 668 m 1,0,-1
 236 668 l 1,1,-1
 154 285 l 1,2,-1
 389 496 l 1,3,-1
 501 496 l 1,4,-1
 267 289 l 1,5,-1
 416 0 l 1,6,-1
 322 0 l 1,7,-1
 203 232 l 1,8,-1
 129 166 l 1,9,-1
 94 0 l 1,10,-1
 8 0 l 1,11,-1
 150 668 l 1,0,-1
EndSplineSet
Validated: 1
EndChar

StartChar: l
Encoding: 108 108 51
Width: 260
GlyphClass: 1
Flags: W
LayerCount: 2
Fore
SplineSet
35 125 m 1,0,-1
 150 668 l 1,1,-1
 236 668 l 1,2,-1
 124 140 l 2,3,4
 121 123 121 123 119.5 110.5 c 128,-1,5
 118 98 118 98 121.5 90 c 128,-1,6
 125 82 125 82 134.5 78.5 c 128,-1,7
 144 75 144 75 162 75 c 2,8,-1
 199 75 l 1,9,-1
 183 0 l 1,10,-1
 127 0 l 2,11,12
 88 0 88 0 66.5 7.5 c 128,-1,13
 45 15 45 15 36 31 c 128,-1,14
 27 47 27 47 28 70.5 c 128,-1,15
 29 94 29 94 35 125 c 1,16,-1
 35 125 l 1,0,-1
EndSplineSet
Validated: 37
EndChar

StartChar: m
Encoding: 109 109 52
Width: 846
GlyphClass: 1
Flags: W
LayerCount: 2
Fore
SplineSet
8 0 m 1,0,-1
 113 496 l 1,1,-1
 177 496 l 1,2,-1
 183 427 l 1,3,4
 212 462 212 462 248.5 483 c 128,-1,5
 285 504 285 504 341 504 c 0,6,7
 400 504 400 504 430.5 480.5 c 128,-1,8
 461 457 461 457 475 416 c 1,9,10
 512 465 512 465 555.5 484.5 c 128,-1,11
 599 504 599 504 651 504 c 0,12,13
 661 504 661 504 677.5 502.5 c 128,-1,14
 694 501 694 501 712 495 c 128,-1,15
 730 489 730 489 746.5 476.5 c 128,-1,16
 763 464 763 464 774 441.5 c 128,-1,17
 785 419 785 419 787.5 384.5 c 128,-1,18
 790 350 790 350 779 300 c 2,19,-1
 716 0 l 1,20,-1
 630 0 l 1,21,-1
 691 289 l 2,22,23
 699 323 699 323 700.5 349.5 c 128,-1,24
 702 376 702 376 695 394 c 128,-1,25
 688 412 688 412 671.5 421.5 c 128,-1,26
 655 431 655 431 625 431 c 0,27,28
 562 431 562 431 520.5 388.5 c 128,-1,29
 479 346 479 346 462 270 c 2,30,-1
 405 0 l 1,31,-1
 319 0 l 1,32,-1
 380 289 l 2,33,34
 395 359 395 359 383 395 c 128,-1,35
 371 431 371 431 313 431 c 0,36,37
 257 431 257 431 213 392 c 128,-1,38
 169 353 169 353 151 270 c 2,39,-1
 94 0 l 1,40,-1
 8 0 l 1,41,-1
 8 0 l 1,0,-1
EndSplineSet
Validated: 37
EndChar

StartChar: n
Encoding: 110 110 53
Width: 550
GlyphClass: 1
Flags: W
LayerCount: 2
Fore
SplineSet
8 0 m 1,0,-1
 113 496 l 1,1,-1
 177 496 l 1,2,-1
 183 427 l 1,3,4
 208 459 208 459 248.5 481.5 c 128,-1,5
 289 504 289 504 356 504 c 0,6,7
 435 504 435 504 470 451 c 128,-1,8
 505 398 505 398 481 287 c 2,9,-1
 419 0 l 1,10,-1
 334 0 l 1,11,-1
 393 279 l 2,12,13
 411 364 411 364 393.5 397 c 128,-1,14
 376 430 376 430 319 430 c 0,15,16
 292 430 292 430 266 421.5 c 128,-1,17
 240 413 240 413 217 392.5 c 128,-1,18
 194 372 194 372 176.5 339 c 128,-1,19
 159 306 159 306 148 257 c 2,20,-1
 94 0 l 1,21,-1
 8 0 l 1,22,-1
 8 0 l 1,0,-1
EndSplineSet
Validated: 37
EndChar

StartChar: o
Encoding: 111 111 54
Width: 547
GlyphClass: 1
Flags: W
LayerCount: 2
Fore
SplineSet
30 247 m 1,0,1
 39 316 39 316 67 365 c 128,-1,2
 95 414 95 414 133 444.5 c 128,-1,3
 171 475 171 475 215.5 489.5 c 128,-1,4
 260 504 260 504 303 504 c 0,5,6
 347 504 347 504 387 488 c 128,-1,7
 427 472 427 472 455.5 439.5 c 128,-1,8
 484 407 484 407 496.5 356.5 c 128,-1,9
 509 306 509 306 497 237 c 0,10,11
 491 202 491 202 473.5 158.5 c 128,-1,12
 456 115 456 115 423.5 77 c 128,-1,13
 391 39 391 39 343.5 13.5 c 128,-1,14
 296 -12 296 -12 230 -12 c 0,15,16
 174 -12 174 -12 132.5 7.5 c 128,-1,17
 91 27 91 27 65.5 61.5 c 128,-1,18
 40 96 40 96 31 143.5 c 128,-1,19
 22 191 22 191 30 247 c 1,20,-1
 30 247 l 1,0,1
237 62 m 1,21,22
 305 62 305 62 349.5 112 c 128,-1,23
 394 162 394 162 408 247 c 0,24,25
 416 300 416 300 410 335 c 128,-1,26
 404 370 404 370 387.5 391 c 128,-1,27
 371 412 371 412 345.5 421 c 128,-1,28
 320 430 320 430 290 430 c 0,29,30
 263 430 263 430 236.5 421.5 c 128,-1,31
 210 413 210 413 187 392 c 128,-1,32
 164 371 164 371 146 336 c 128,-1,33
 128 301 128 301 119 247 c 0,34,35
 112 207 112 207 116 173 c 128,-1,36
 120 139 120 139 135 114 c 128,-1,37
 150 89 150 89 175.5 75.5 c 128,-1,38
 201 62 201 62 237 62 c 1,39,-1
 237 62 l 1,21,22
EndSplineSet
Validated: 37
Substitution2: "Single Substitution lookup 0 subtable" ordmasculine
EndChar

StartChar: p
Encoding: 112 112 55
Width: 556
GlyphClass: 1
Flags: W
LayerCount: 2
Fore
SplineSet
114 496 m 1,0,-1
 177 496 l 1,1,-1
 182 430 l 1,2,3
 202 459 202 459 238 481.5 c 128,-1,4
 274 504 274 504 331 504 c 0,5,6
 379 504 379 504 414 485.5 c 128,-1,7
 449 467 449 467 471 435 c 128,-1,8
 493 403 493 403 502.5 361 c 128,-1,9
 512 319 512 319 509 272 c 0,10,11
 506 221 506 221 490 170.5 c 128,-1,12
 474 120 474 120 444 79.5 c 128,-1,13
 414 39 414 39 370.5 13.5 c 128,-1,14
 327 -12 327 -12 269 -12 c 0,15,16
 209 -12 209 -12 170 16 c 128,-1,17
 131 44 131 44 114 93 c 1,18,-1
 60 -162 l 1,19,-1
 -26 -162 l 1,20,-1
 114 496 l 1,21,-1
 114 496 l 1,0,-1
260 59 m 1,22,23
 293 59 293 59 319.5 74.5 c 128,-1,24
 346 90 346 90 365 115.5 c 128,-1,25
 384 141 384 141 396.5 174 c 128,-1,26
 409 207 409 207 415 243 c 0,27,28
 431 331 431 331 401 381.5 c 128,-1,29
 371 432 371 432 307 432 c 0,30,31
 276 432 276 432 248 418 c 128,-1,32
 220 404 220 404 198.5 379.5 c 128,-1,33
 177 355 177 355 162.5 321 c 128,-1,34
 148 287 148 287 142 246 c 0,35,36
 136 209 136 209 141.5 175 c 128,-1,37
 147 141 147 141 162.5 115 c 128,-1,38
 178 89 178 89 202.5 74 c 128,-1,39
 227 59 227 59 260 59 c 1,40,-1
 260 59 l 1,22,23
EndSplineSet
Validated: 37
EndChar

StartChar: q
Encoding: 113 113 56
Width: 554
GlyphClass: 1
Flags: W
LayerCount: 2
Fore
SplineSet
30 246 m 1,0,1
 36 296 36 296 54.5 343 c 128,-1,2
 73 390 73 390 103 426 c 128,-1,3
 133 462 133 462 175 483.5 c 128,-1,4
 217 505 217 505 270 505 c 0,5,6
 330 505 330 505 368.5 480.5 c 128,-1,7
 407 456 407 456 427 418 c 1,8,-1
 467 496 l 1,9,-1
 529 496 l 1,10,11
 501 362 501 362 478 253 c 0,12,13
 468 207 468 207 458 161 c 128,-1,14
 448 115 448 115 440 77 c 128,-1,15
 432 39 432 39 427 13 c 128,-1,16
 422 -13 422 -13 420 -20 c 0,17,18
 412 -54 412 -54 422.5 -73 c 128,-1,19
 433 -92 433 -92 468 -92 c 0,20,21
 499 -92 499 -92 550 -76 c 1,22,-1
 533 -154 l 1,23,24
 522 -162 522 -162 498 -168 c 128,-1,25
 474 -174 474 -174 446 -174 c 0,26,27
 421 -174 421 -174 397 -167.5 c 128,-1,28
 373 -161 373 -161 355.5 -145 c 128,-1,29
 338 -129 338 -129 330.5 -101 c 128,-1,30
 323 -73 323 -73 332 -31 c 0,31,32
 334 -22 334 -22 337 -6.5 c 128,-1,33
 340 9 340 9 343 23 c 0,34,35
 347 40 347 40 351 59 c 1,36,37
 334 30 334 30 295.5 9 c 128,-1,38
 257 -12 257 -12 206 -12 c 0,39,40
 161 -12 161 -12 125 6 c 128,-1,41
 89 24 89 24 65.5 57 c 128,-1,42
 42 90 42 90 32.5 138 c 128,-1,43
 23 186 23 186 30 246 c 1,44,-1
 30 246 l 1,0,1
231 60 m 1,45,46
 265 60 265 60 293.5 76.5 c 128,-1,47
 322 93 322 93 343 120 c 128,-1,48
 364 147 364 147 377 180.5 c 128,-1,49
 390 214 390 214 393 247 c 0,50,51
 402 335 402 335 369 384 c 128,-1,52
 336 433 336 433 275 433 c 0,53,54
 239 433 239 433 212 415 c 128,-1,55
 185 397 185 397 166 369 c 128,-1,56
 147 341 147 341 136 308 c 128,-1,57
 125 275 125 275 121 246 c 0,58,59
 109 161 109 161 136.5 110.5 c 128,-1,60
 164 60 164 60 231 60 c 1,61,-1
 231 60 l 1,45,46
EndSplineSet
Validated: 37
EndChar

StartChar: r
Encoding: 114 114 57
Width: 353
GlyphClass: 1
Flags: W
LayerCount: 2
Fore
SplineSet
113 496 m 1,0,-1
 176 496 l 1,1,-1
 184 403 l 1,2,3
 200 426 200 426 218 444.5 c 128,-1,4
 236 463 236 463 259.5 476.5 c 128,-1,5
 283 490 283 490 313 497 c 128,-1,6
 343 504 343 504 383 504 c 1,7,-1
 364 415 l 1,8,9
 313 417 313 417 275 402.5 c 128,-1,10
 237 388 237 388 210 360.5 c 128,-1,11
 183 333 183 333 165.5 293.5 c 128,-1,12
 148 254 148 254 137 205 c 0,13,14
 129 164 129 164 121 127.5 c 128,-1,15
 113 91 113 91 107 62 c 0,16,17
 100 29 100 29 94 0 c 1,18,-1
 8 0 l 1,19,-1
 113 496 l 1,20,-1
 113 496 l 1,0,-1
EndSplineSet
Validated: 37
EndChar

StartChar: s
Encoding: 115 115 58
Width: 479
GlyphClass: 1
Flags: W
LayerCount: 2
Fore
SplineSet
10 113 m 1,0,-1
 96 142 l 1,1,2
 100 120 100 120 111.5 103.5 c 128,-1,3
 123 87 123 87 139.5 76.5 c 128,-1,4
 156 66 156 66 176 61 c 128,-1,5
 196 56 196 56 216 56 c 0,6,7
 237 56 237 56 256.5 61.5 c 128,-1,8
 276 67 276 67 291 77 c 128,-1,9
 306 87 306 87 315.5 102.5 c 128,-1,10
 325 118 325 118 325 137 c 0,11,12
 325 165 325 165 304.5 180.5 c 128,-1,13
 284 196 284 196 253.5 206 c 128,-1,14
 223 216 223 216 187 225.5 c 128,-1,15
 151 235 151 235 120.5 251 c 128,-1,16
 90 267 90 267 69.5 293.5 c 128,-1,17
 49 320 49 320 49 365 c 0,18,19
 49 400 49 400 65.5 426 c 128,-1,20
 82 452 82 452 108.5 469.5 c 128,-1,21
 135 487 135 487 169.5 495.5 c 128,-1,22
 204 504 204 504 240 504 c 0,23,24
 271 504 271 504 301 497.5 c 128,-1,25
 331 491 331 491 357 478.5 c 128,-1,26
 383 466 383 466 402.5 447 c 128,-1,27
 422 428 422 428 431 402 c 1,28,-1
 351 374 l 1,29,30
 346 389 346 389 334 400.5 c 128,-1,31
 322 412 322 412 306 419.5 c 128,-1,32
 290 427 290 427 271 431 c 128,-1,33
 252 435 252 435 233 435 c 256,34,35
 214 435 214 435 196 431 c 128,-1,36
 178 427 178 427 164.5 419 c 128,-1,37
 151 411 151 411 142.5 399 c 128,-1,38
 134 387 134 387 134 370 c 0,39,40
 134 343 134 343 154.5 328 c 128,-1,41
 175 313 175 313 206 302.5 c 128,-1,42
 237 292 237 292 273.5 282.5 c 128,-1,43
 310 273 310 273 341 257 c 128,-1,44
 372 241 372 241 392.5 214 c 128,-1,45
 413 187 413 187 413 143 c 0,46,47
 413 105 413 105 397.5 76 c 128,-1,48
 382 47 382 47 355 27.5 c 128,-1,49
 328 8 328 8 291.5 -2 c 128,-1,50
 255 -12 255 -12 213 -12 c 0,51,52
 138 -12 138 -12 87 17 c 128,-1,53
 36 46 36 46 10 113 c 1,54,-1
 10 113 l 1,0,-1
EndSplineSet
Validated: 5
EndChar

StartChar: t
Encoding: 116 116 59
Width: 324
GlyphClass: 1
Flags: W
LayerCount: 2
Fore
SplineSet
63 496 m 1,0,-1
 146 496 l 1,1,-1
 173 620 l 1,2,-1
 259 620 l 1,3,-1
 232 496 l 1,4,-1
 327 496 l 1,5,-1
 313 428 l 1,6,-1
 218 428 l 1,7,-1
 156 140 l 2,8,9
 152 122 152 122 150.5 110 c 128,-1,10
 149 98 149 98 152.5 90 c 128,-1,11
 156 82 156 82 166 78.5 c 128,-1,12
 176 75 176 75 194 75 c 2,13,-1
 238 75 l 1,14,-1
 222 0 l 1,15,-1
 160 0 l 2,16,17
 121 0 121 0 99 7.5 c 128,-1,18
 77 15 77 15 67.5 31 c 128,-1,19
 58 47 58 47 59 70.5 c 128,-1,20
 60 94 60 94 67 125 c 2,21,-1
 132 428 l 1,22,-1
 49 428 l 1,23,-1
 63 496 l 1,24,-1
 63 496 l 1,0,-1
EndSplineSet
Validated: 37
EndChar

StartChar: u
Encoding: 117 117 60
Width: 540
GlyphClass: 1
Flags: W
LayerCount: 2
Fore
SplineSet
49 203 m 1,0,-1
 111 496 l 1,1,-1
 197 496 l 1,2,-1
 135 205 l 2,3,4
 129 176 129 176 126.5 150 c 128,-1,5
 124 124 124 124 130 104.5 c 128,-1,6
 136 85 136 85 153 73.5 c 128,-1,7
 170 62 170 62 203 62 c 0,8,9
 262 62 262 62 307 102.5 c 128,-1,10
 352 143 352 143 372 236 c 2,11,-1
 428 496 l 1,12,-1
 513 496 l 1,13,-1
 408 0 l 1,14,-1
 343 0 l 1,15,-1
 337 70 l 1,16,17
 305 28 305 28 267.5 8.5 c 128,-1,18
 230 -11 230 -11 173 -11 c 0,19,20
 125 -11 125 -11 96.5 6.5 c 128,-1,21
 68 24 68 24 54.5 53.5 c 128,-1,22
 41 83 41 83 40.5 122 c 128,-1,23
 40 161 40 161 49 203 c 1,24,-1
 49 203 l 1,0,-1
EndSplineSet
Validated: 37
EndChar

StartChar: v
Encoding: 118 118 61
Width: 444
GlyphClass: 1
Flags: W
LayerCount: 2
Fore
SplineSet
43 496 m 1,0,-1
 130 496 l 1,1,-1
 177 110 l 1,2,-1
 389 496 l 1,3,-1
 487 496 l 1,4,-1
 204 0 l 1,5,-1
 115 0 l 1,6,-1
 43 496 l 1,0,-1
EndSplineSet
Validated: 1
EndChar

StartChar: w
Encoding: 119 119 62
Width: 658
GlyphClass: 1
Flags: W
LayerCount: 2
Fore
SplineSet
43 496 m 1,0,-1
 130 496 l 1,1,-1
 147 138 l 1,2,-1
 319 496 l 1,3,-1
 409 496 l 1,4,-1
 429 130 l 1,5,-1
 605 496 l 1,6,-1
 701 496 l 1,7,-1
 452 0 l 1,8,-1
 370 0 l 1,9,-1
 347 400 l 1,10,-1
 154 0 l 1,11,-1
 80 0 l 1,12,-1
 43 496 l 1,0,-1
EndSplineSet
Validated: 1
EndChar

StartChar: x
Encoding: 120 120 63
Width: 463
GlyphClass: 1
Flags: W
LayerCount: 2
Fore
SplineSet
-62 0 m 1,0,-1
 180 262 l 1,1,-1
 62 496 l 1,2,-1
 152 496 l 1,3,-1
 238 325 l 1,4,-1
 397 496 l 1,5,-1
 506 496 l 1,6,-1
 276 248 l 1,7,-1
 400 0 l 1,8,-1
 310 0 l 1,9,-1
 218 185 l 1,10,-1
 47 0 l 1,11,-1
 -62 0 l 1,0,-1
EndSplineSet
Validated: 1
EndChar

StartChar: y
Encoding: 121 121 64
Width: 435
GlyphClass: 1
Flags: W
LayerCount: 2
Fore
SplineSet
-62 -161 m 1,0,-1
 -46 -86 l 1,1,-1
 -12 -86 l 2,2,3
 19 -86 19 -86 37.5 -83 c 128,-1,4
 56 -80 56 -80 69 -71 c 128,-1,5
 82 -62 82 -62 92.5 -45 c 128,-1,6
 103 -28 103 -28 116 0 c 1,7,-1
 43 496 l 1,8,-1
 132 496 l 1,9,-1
 172 110 l 1,10,-1
 378 496 l 1,11,-1
 478 496 l 1,12,-1
 191 -21 l 2,13,14
 166 -67 166 -67 147.5 -94.5 c 128,-1,15
 129 -122 129 -122 107.5 -137 c 128,-1,16
 86 -152 86 -152 57 -156.5 c 128,-1,17
 28 -161 28 -161 -19 -161 c 2,18,-1
 -62 -161 l 1,19,-1
 -62 -161 l 1,0,-1
EndSplineSet
Validated: 5
EndChar

StartChar: z
Encoding: 122 122 65
Width: 467
GlyphClass: 1
Flags: W
LayerCount: 2
Fore
SplineSet
-7 73 m 1,0,-1
 355 424 l 1,1,-1
 83 424 l 1,2,-1
 99 497 l 1,3,-1
 476 497 l 1,4,-1
 460 424 l 1,5,-1
 101 73 l 1,6,-1
 390 73 l 1,7,-1
 375 0 l 1,8,-1
 -22 0 l 1,9,-1
 -7 73 l 1,0,-1
EndSplineSet
Validated: 1
EndChar

StartChar: circumflex
Encoding: 710 710 67
Width: 429
GlyphClass: 1
Flags: W
LayerCount: 2
Fore
SplineSet
113 575 m 1,0,-1
 247 676 l 2,1,2
 272 695 272 695 301 695 c 0,3,4
 328 695 328 695 346 676 c 2,5,-1
 436 575 l 1,6,-1
 344 575 l 1,7,-1
 290 636 l 1,8,-1
 209 575 l 1,9,-1
 113 575 l 1,10,-1
 113 575 l 1,0,-1
EndSplineSet
Validated: 5
Substitution2: "'case' Case-Sensitive Forms lookup 1 subtable" circumflex.case
EndChar

StartChar: caron
Encoding: 711 711 68
Width: 429
GlyphClass: 1
Flags: W
LayerCount: 2
Fore
SplineSet
227 682 m 1,0,-1
 281 621 l 1,1,-1
 362 682 l 1,2,-1
 459 682 l 1,3,-1
 326 581 l 2,4,5
 301 562 301 562 273 562 c 0,6,7
 259 562 259 562 247 566.5 c 128,-1,8
 235 571 235 571 227 581 c 2,9,-1
 136 682 l 1,10,-1
 227 682 l 1,11,-1
 227 682 l 1,0,-1
EndSplineSet
Validated: 5
Substitution2: "'case' Case-Sensitive Forms lookup 1 subtable" caron.case
EndChar

StartChar: breve
Encoding: 728 728 69
Width: 400
GlyphClass: 1
Flags: W
LayerCount: 2
Fore
SplineSet
430 682 m 1,0,1
 421 660 421 660 406 638.5 c 128,-1,2
 391 617 391 617 370.5 600 c 128,-1,3
 350 583 350 583 323.5 572.5 c 128,-1,4
 297 562 297 562 265 562 c 256,5,6
 233 562 233 562 209 573 c 128,-1,7
 185 584 185 584 168.5 601.5 c 128,-1,8
 152 619 152 619 144 640 c 128,-1,9
 136 661 136 661 136 682 c 1,10,-1
 205 682 l 1,11,12
 209 662 209 662 224.5 645.5 c 128,-1,13
 240 629 240 629 272 629 c 256,14,15
 304 629 304 629 326 645.5 c 128,-1,16
 348 662 348 662 361 682 c 1,17,-1
 430 682 l 1,18,-1
 430 682 l 1,0,1
EndSplineSet
Validated: 5
Substitution2: "'case' Case-Sensitive Forms lookup 1 subtable" breve.case
EndChar

StartChar: dotaccent
Encoding: 729 729 70
Width: 216
GlyphClass: 1
Flags: W
LayerCount: 2
Fore
SplineSet
128 637 m 1,0,1
 128 660 128 660 143.5 675.5 c 128,-1,2
 159 691 159 691 182 691 c 256,3,4
 205 691 205 691 220.5 675.5 c 128,-1,5
 236 660 236 660 236 637 c 256,6,7
 236 614 236 614 220.5 598.5 c 128,-1,8
 205 583 205 583 182 583 c 256,9,10
 159 583 159 583 143.5 598.5 c 128,-1,11
 128 614 128 614 128 637 c 1,12,-1
 128 637 l 1,0,1
EndSplineSet
Validated: 5
Substitution2: "'case' Case-Sensitive Forms lookup 1 subtable" dotaccent.case
EndChar

StartChar: ring
Encoding: 730 730 71
Width: 329
GlyphClass: 1
Flags: W
LayerCount: 2
Fore
SplineSet
245 770 m 1,0,1
 268 770 268 770 287.5 761.5 c 128,-1,2
 307 753 307 753 321.5 738 c 128,-1,3
 336 723 336 723 344 703 c 128,-1,4
 352 683 352 683 352 661 c 256,5,6
 352 639 352 639 344 619 c 128,-1,7
 336 599 336 599 321.5 584 c 128,-1,8
 307 569 307 569 287.5 560.5 c 128,-1,9
 268 552 268 552 245 552 c 256,10,11
 222 552 222 552 201.5 560.5 c 128,-1,12
 181 569 181 569 166 584 c 128,-1,13
 151 599 151 599 142.5 619 c 128,-1,14
 134 639 134 639 134 661 c 256,15,16
 134 683 134 683 142.5 703 c 128,-1,17
 151 723 151 723 166 738 c 128,-1,18
 181 753 181 753 201.5 761.5 c 128,-1,19
 222 770 222 770 245 770 c 1,20,-1
 245 770 l 1,0,1
191 661 m 1,21,22
 191 640 191 640 206 625 c 128,-1,23
 221 610 221 610 243 610 c 256,24,25
 265 610 265 610 280 625 c 128,-1,26
 295 640 295 640 295 661 c 256,27,28
 295 682 295 682 280 697 c 128,-1,29
 265 712 265 712 243 712 c 256,30,31
 221 712 221 712 206 697 c 128,-1,32
 191 682 191 682 191 661 c 1,33,-1
 191 661 l 1,21,22
EndSplineSet
Validated: 5
Substitution2: "'case' Case-Sensitive Forms lookup 1 subtable" ring.case
EndChar

StartChar: ogonek
Encoding: 731 731 72
Width: 270
GlyphClass: 1
Flags: W
LayerCount: 2
Fore
SplineSet
-30 -106 m 1,0,1
 -30 -72 -30 -72 -1 -43 c 128,-1,2
 28 -14 28 -14 76 0 c 1,3,-1
 155 0 l 1,4,5
 107 -17 107 -17 77 -40 c 128,-1,6
 47 -63 47 -63 47 -89 c 0,7,8
 47 -101 47 -101 58.5 -108.5 c 128,-1,9
 70 -116 70 -116 88 -116 c 0,10,11
 108 -116 108 -116 132 -107 c 1,12,-1
 121 -161 l 1,13,14
 82 -173 82 -173 54 -173 c 0,15,16
 12 -173 12 -173 -9 -153.5 c 128,-1,17
 -30 -134 -30 -134 -30 -106 c 1,18,-1
 -30 -106 l 1,0,1
EndSplineSet
Validated: 5
EndChar

StartChar: quoteleft
Encoding: 8216 8216 73
Width: 238
GlyphClass: 1
Flags: W
LayerCount: 2
Fore
SplineSet
105 517 m 1,0,-1
 196 668 l 1,1,-1
 257 668 l 1,2,-1
 181 543 l 1,3,4
 204 535 204 535 216 515 c 128,-1,5
 228 495 228 495 223 471 c 0,6,7
 218 445 218 445 196.5 429.5 c 128,-1,8
 175 414 175 414 148 419 c 0,9,10
 132 422 132 422 120 432 c 128,-1,11
 108 442 108 442 101.5 456 c 128,-1,12
 95 470 95 470 95.5 486 c 128,-1,13
 96 502 96 502 105 517 c 1,14,-1
 105 517 l 1,0,-1
EndSplineSet
Validated: 37
EndChar

StartChar: quoteright
Encoding: 8217 8217 74
Width: 238
GlyphClass: 1
Flags: W
LayerCount: 2
Fore
SplineSet
166 555 m 1,0,1
 144 563 144 563 132 583 c 128,-1,2
 120 603 120 603 124 627 c 0,3,4
 129 653 129 653 151 668.5 c 128,-1,5
 173 684 173 684 199 679 c 0,6,7
 216 676 216 676 228 666 c 128,-1,8
 240 656 240 656 246.5 642 c 128,-1,9
 253 628 253 628 252.5 612 c 128,-1,10
 252 596 252 596 242 581 c 2,11,-1
 152 429 l 1,12,-1
 91 429 l 1,13,-1
 166 555 l 1,14,-1
 166 555 l 1,0,1
EndSplineSet
Validated: 37
EndChar

StartChar: quotesinglbase
Encoding: 8218 8218 75
Width: 239
GlyphClass: 1
Flags: W
LayerCount: 2
Fore
SplineSet
47 -8 m 1,0,1
 25 0 25 0 13 20.5 c 128,-1,2
 1 41 1 41 5 64 c 0,3,4
 10 90 10 90 32 106 c 128,-1,5
 54 122 54 122 80 117 c 0,6,7
 97 114 97 114 109 104 c 128,-1,8
 121 94 121 94 127.5 79.5 c 128,-1,9
 134 65 134 65 133.5 49 c 128,-1,10
 133 33 133 33 123 18 c 2,11,-1
 33 -133 l 1,12,-1
 -28 -133 l 1,13,-1
 47 -8 l 1,14,-1
 47 -8 l 1,0,1
EndSplineSet
Validated: 37
EndChar

StartChar: quotedblleft
Encoding: 8220 8220 76
Width: 395
GlyphClass: 1
Flags: W
LayerCount: 2
Fore
SplineSet
105 517 m 1,0,-1
 196 668 l 1,1,-1
 257 668 l 1,2,-1
 181 543 l 1,3,4
 204 535 204 535 216 515 c 128,-1,5
 228 495 228 495 223 471 c 0,6,7
 218 445 218 445 196.5 429.5 c 128,-1,8
 175 414 175 414 148 419 c 0,9,10
 132 422 132 422 120 432 c 128,-1,11
 108 442 108 442 101.5 456 c 128,-1,12
 95 470 95 470 95.5 486 c 128,-1,13
 96 502 96 502 105 517 c 1,14,-1
 105 517 l 1,0,-1
262 517 m 1,15,-1
 352 668 l 1,16,-1
 412 668 l 1,17,-1
 338 543 l 1,18,19
 360 535 360 535 372 514.5 c 128,-1,20
 384 494 384 494 380 471 c 0,21,22
 375 445 375 445 353 429.5 c 128,-1,23
 331 414 331 414 305 419 c 0,24,25
 289 422 289 422 276.5 432 c 128,-1,26
 264 442 264 442 257.5 456 c 128,-1,27
 251 470 251 470 251.5 486 c 128,-1,28
 252 502 252 502 262 517 c 1,29,-1
 262 517 l 1,15,-1
EndSplineSet
Validated: 37
EndChar

StartChar: quotedblright
Encoding: 8221 8221 77
Width: 394
GlyphClass: 1
Flags: W
LayerCount: 2
Fore
SplineSet
166 555 m 1,0,1
 144 563 144 563 132 583 c 128,-1,2
 120 603 120 603 124 627 c 0,3,4
 129 653 129 653 151 668.5 c 128,-1,5
 173 684 173 684 199 679 c 0,6,7
 216 676 216 676 228 666 c 128,-1,8
 240 656 240 656 246.5 642 c 128,-1,9
 253 628 253 628 252.5 612 c 128,-1,10
 252 596 252 596 242 581 c 2,11,-1
 152 429 l 1,12,-1
 91 429 l 1,13,-1
 166 555 l 1,14,-1
 166 555 l 1,0,1
247 429 m 1,15,-1
 322 555 l 1,16,17
 300 563 300 563 288.5 583 c 128,-1,18
 277 603 277 603 281 627 c 0,19,20
 286 653 286 653 307.5 668.5 c 128,-1,21
 329 684 329 684 355 679 c 0,22,23
 371 676 371 676 383.5 666 c 128,-1,24
 396 656 396 656 402 642 c 128,-1,25
 408 628 408 628 407.5 612 c 128,-1,26
 407 596 407 596 398 581 c 2,27,-1
 308 429 l 1,28,-1
 247 429 l 1,29,-1
 247 429 l 1,15,-1
EndSplineSet
Validated: 37
EndChar

StartChar: quotedblbase
Encoding: 8222 8222 78
Width: 394
GlyphClass: 1
Flags: W
LayerCount: 2
Fore
SplineSet
47 -8 m 1,0,1
 25 0 25 0 13 20.5 c 128,-1,2
 1 41 1 41 5 64 c 0,3,4
 10 90 10 90 32 106 c 128,-1,5
 54 122 54 122 80 117 c 0,6,7
 97 114 97 114 109 104 c 128,-1,8
 121 94 121 94 127.5 79.5 c 128,-1,9
 134 65 134 65 133.5 49 c 128,-1,10
 133 33 133 33 123 18 c 2,11,-1
 33 -133 l 1,12,-1
 -28 -133 l 1,13,-1
 47 -8 l 1,14,-1
 47 -8 l 1,0,1
128 -133 m 1,15,-1
 203 -8 l 1,16,17
 181 0 181 0 169.5 20.5 c 128,-1,18
 158 41 158 41 162 64 c 0,19,20
 167 90 167 90 188.5 106 c 128,-1,21
 210 122 210 122 236 117 c 0,22,23
 252 114 252 114 264.5 104 c 128,-1,24
 277 94 277 94 283 79.5 c 128,-1,25
 289 65 289 65 288.5 49 c 128,-1,26
 288 33 288 33 279 18 c 2,27,-1
 189 -133 l 1,28,-1
 128 -133 l 1,29,-1
 128 -133 l 1,15,-1
EndSplineSet
Validated: 37
EndChar

StartChar: dagger
Encoding: 8224 8224 79
Width: 541
GlyphClass: 1
Flags: W
LayerCount: 2
Fore
SplineSet
84 496 m 1,0,-1
 274 496 l 1,1,-1
 311 668 l 1,2,-1
 391 668 l 1,3,-1
 355 496 l 1,4,-1
 544 496 l 1,5,-1
 527 417 l 1,6,-1
 338 417 l 1,7,-1
 250 0 l 1,8,-1
 168 0 l 1,9,-1
 257 417 l 1,10,-1
 67 417 l 1,11,-1
 84 496 l 1,0,-1
EndSplineSet
Validated: 1
EndChar

StartChar: daggerdbl
Encoding: 8225 8225 80
Width: 541
GlyphClass: 1
Flags: W
LayerCount: 2
Fore
SplineSet
32 252 m 1,0,-1
 222 252 l 1,1,-1
 257 417 l 1,2,-1
 67 417 l 1,3,-1
 84 496 l 1,4,-1
 274 496 l 1,5,-1
 311 668 l 1,6,-1
 391 668 l 1,7,-1
 354 496 l 1,8,-1
 544 496 l 1,9,-1
 527 417 l 1,10,-1
 337 417 l 1,11,-1
 303 252 l 1,12,-1
 492 252 l 1,13,-1
 475 173 l 1,14,-1
 286 173 l 1,15,-1
 250 0 l 1,16,-1
 168 0 l 1,17,-1
 205 173 l 1,18,-1
 15 173 l 1,19,-1
 32 252 l 1,0,-1
EndSplineSet
Validated: 1
EndChar

StartChar: bullet
Encoding: 8226 8226 81
Width: 446
GlyphClass: 1
Flags: W
LayerCount: 2
Fore
SplineSet
49 254 m 1,0,1
 49 289 49 289 62 319 c 128,-1,2
 75 349 75 349 97.5 371.5 c 128,-1,3
 120 394 120 394 150.5 407 c 128,-1,4
 181 420 181 420 215 420 c 0,5,6
 250 420 250 420 280 407 c 128,-1,7
 310 394 310 394 332.5 371.5 c 128,-1,8
 355 349 355 349 368 319 c 128,-1,9
 381 289 381 289 381 254 c 0,10,11
 381 220 381 220 368 189.5 c 128,-1,12
 355 159 355 159 332.5 136.5 c 128,-1,13
 310 114 310 114 280 101 c 128,-1,14
 250 88 250 88 215 88 c 0,15,16
 181 88 181 88 150.5 101 c 128,-1,17
 120 114 120 114 97.5 136.5 c 128,-1,18
 75 159 75 159 62 189.5 c 128,-1,19
 49 220 49 220 49 254 c 1,20,-1
 49 254 l 1,0,1
EndSplineSet
Validated: 5
EndChar

StartChar: ellipsis
Encoding: 8230 8230 82
Width: 699
GlyphClass: 1
Flags: W
LayerCount: 2
Fore
SplineSet
299 117 m 1,0,1
 326 117 326 117 345 98 c 128,-1,2
 364 79 364 79 364 52 c 0,3,4
 364 26 364 26 345 7 c 128,-1,5
 326 -12 326 -12 299 -12 c 256,6,7
 272 -12 272 -12 253.5 7 c 128,-1,8
 235 26 235 26 235 52 c 0,9,10
 235 79 235 79 253.5 98 c 128,-1,11
 272 117 272 117 299 117 c 1,12,-1
 299 117 l 1,0,1
530 117 m 1,13,14
 556 117 556 117 575 98 c 128,-1,15
 594 79 594 79 594 52 c 0,16,17
 594 26 594 26 575 7 c 128,-1,18
 556 -12 556 -12 530 -12 c 0,19,20
 503 -12 503 -12 484 7 c 128,-1,21
 465 26 465 26 465 52 c 0,22,23
 465 79 465 79 484 98 c 128,-1,24
 503 117 503 117 530 117 c 1,25,-1
 530 117 l 1,13,14
68 117 m 1,26,27
 95 117 95 117 114 98 c 128,-1,28
 133 79 133 79 133 52 c 0,29,30
 133 26 133 26 114 7 c 128,-1,31
 95 -12 95 -12 68 -12 c 0,32,33
 42 -12 42 -12 23 7 c 128,-1,34
 4 26 4 26 4 52 c 0,35,36
 4 79 4 79 23 98 c 128,-1,37
 42 117 42 117 68 117 c 1,38,-1
 68 117 l 1,26,27
EndSplineSet
Validated: 5
EndChar

StartChar: perthousand
Encoding: 8240 8240 83
Width: 1407
GlyphClass: 1
Flags: W
LayerCount: 2
Fore
SplineSet
86 498 m 1,0,1
 86 536 86 536 100 569 c 128,-1,2
 114 602 114 602 139 626.5 c 128,-1,3
 164 651 164 651 197 665.5 c 128,-1,4
 230 680 230 680 268 680 c 256,5,6
 306 680 306 680 338.5 665.5 c 128,-1,7
 371 651 371 651 396 626.5 c 128,-1,8
 421 602 421 602 435 569 c 128,-1,9
 449 536 449 536 449 498 c 0,10,11
 449 461 449 461 435 427.5 c 128,-1,12
 421 394 421 394 396 369.5 c 128,-1,13
 371 345 371 345 338.5 330.5 c 128,-1,14
 306 316 306 316 268 316 c 256,15,16
 230 316 230 316 197 330.5 c 128,-1,17
 164 345 164 345 139 369.5 c 128,-1,18
 114 394 114 394 100 427.5 c 128,-1,19
 86 461 86 461 86 498 c 1,20,-1
 86 498 l 1,0,1
756 351 m 1,21,22
 794 351 794 351 826.5 337 c 128,-1,23
 859 323 859 323 884 298 c 128,-1,24
 909 273 909 273 923 240 c 128,-1,25
 937 207 937 207 937 169 c 0,26,27
 937 132 937 132 923 99 c 128,-1,28
 909 66 909 66 884 41 c 128,-1,29
 859 16 859 16 826.5 2 c 128,-1,30
 794 -12 794 -12 756 -12 c 256,31,32
 718 -12 718 -12 685 2 c 128,-1,33
 652 16 652 16 627 41 c 128,-1,34
 602 66 602 66 588 99 c 128,-1,35
 574 132 574 132 574 169 c 0,36,37
 574 207 574 207 588 240 c 128,-1,38
 602 273 602 273 627 298 c 128,-1,39
 652 323 652 323 685 337 c 128,-1,40
 718 351 718 351 756 351 c 1,41,-1
 756 351 l 1,21,22
975 169 m 1,42,43
 975 207 975 207 989 240 c 128,-1,44
 1003 273 1003 273 1028 298 c 128,-1,45
 1053 323 1053 323 1086 337 c 128,-1,46
 1119 351 1119 351 1157 351 c 256,47,48
 1195 351 1195 351 1227.5 337 c 128,-1,49
 1260 323 1260 323 1285 298 c 128,-1,50
 1310 273 1310 273 1324 240 c 128,-1,51
 1338 207 1338 207 1338 169 c 0,52,53
 1338 132 1338 132 1324 99 c 128,-1,54
 1310 66 1310 66 1285 41 c 128,-1,55
 1260 16 1260 16 1227.5 2 c 128,-1,56
 1195 -12 1195 -12 1157 -12 c 256,57,58
 1119 -12 1119 -12 1086 2 c 128,-1,59
 1053 16 1053 16 1028 41 c 128,-1,60
 1003 66 1003 66 989 99 c 128,-1,61
 975 132 975 132 975 169 c 1,62,-1
 975 169 l 1,42,43
1049 169 m 1,63,64
 1049 147 1049 147 1057.5 127.5 c 128,-1,65
 1066 108 1066 108 1080.5 93.5 c 128,-1,66
 1095 79 1095 79 1115 70.5 c 128,-1,67
 1135 62 1135 62 1157 62 c 256,68,69
 1179 62 1179 62 1198.5 70.5 c 128,-1,70
 1218 79 1218 79 1232.5 93.5 c 128,-1,71
 1247 108 1247 108 1255.5 127.5 c 128,-1,72
 1264 147 1264 147 1264 169 c 0,73,74
 1264 192 1264 192 1255.5 211.5 c 128,-1,75
 1247 231 1247 231 1232.5 245.5 c 128,-1,76
 1218 260 1218 260 1198.5 268.5 c 128,-1,77
 1179 277 1179 277 1157 277 c 256,78,79
 1135 277 1135 277 1115 268.5 c 128,-1,80
 1095 260 1095 260 1080.5 245.5 c 128,-1,81
 1066 231 1066 231 1057.5 211.5 c 128,-1,82
 1049 192 1049 192 1049 169 c 1,83,-1
 1049 169 l 1,63,64
648 169 m 1,84,85
 648 147 648 147 656.5 127.5 c 128,-1,86
 665 108 665 108 679.5 93.5 c 128,-1,87
 694 79 694 79 714 70.5 c 128,-1,88
 734 62 734 62 756 62 c 256,89,90
 778 62 778 62 797.5 70.5 c 128,-1,91
 817 79 817 79 831.5 93.5 c 128,-1,92
 846 108 846 108 854.5 127.5 c 128,-1,93
 863 147 863 147 863 169 c 0,94,95
 863 192 863 192 854.5 211.5 c 128,-1,96
 846 231 846 231 831.5 245.5 c 128,-1,97
 817 260 817 260 797.5 268.5 c 128,-1,98
 778 277 778 277 756 277 c 256,99,100
 734 277 734 277 714 268.5 c 128,-1,101
 694 260 694 260 679.5 245.5 c 128,-1,102
 665 231 665 231 656.5 211.5 c 128,-1,103
 648 192 648 192 648 169 c 1,104,-1
 648 169 l 1,84,85
160 498 m 1,105,106
 160 476 160 476 168.5 456.5 c 128,-1,107
 177 437 177 437 192 422.5 c 128,-1,108
 207 408 207 408 226.5 399.5 c 128,-1,109
 246 391 246 391 268 391 c 256,110,111
 290 391 290 391 309.5 399.5 c 128,-1,112
 329 408 329 408 343.5 422.5 c 128,-1,113
 358 437 358 437 366.5 456.5 c 128,-1,114
 375 476 375 476 375 498 c 256,115,116
 375 520 375 520 366.5 539.5 c 128,-1,117
 358 559 358 559 343.5 573.5 c 128,-1,118
 329 588 329 588 309.5 596.5 c 128,-1,119
 290 605 290 605 268 605 c 256,120,121
 246 605 246 605 226.5 596.5 c 128,-1,122
 207 588 207 588 192 573.5 c 128,-1,123
 177 559 177 559 168.5 539.5 c 128,-1,124
 160 520 160 520 160 498 c 1,125,-1
 160 498 l 1,105,106
234 0 m 1,126,-1
 702 668 l 1,127,-1
 790 668 l 1,128,-1
 322 0 l 1,129,-1
 234 0 l 1,126,-1
EndSplineSet
Validated: 5
EndChar

StartChar: guilsinglleft
Encoding: 8249 8249 84
Width: 355
GlyphClass: 1
Flags: W
LayerCount: 2
Fore
SplineSet
45 250 m 1,0,-1
 217 461 l 1,1,-1
 321 461 l 1,2,-1
 140 240 l 1,3,-1
 237 40 l 1,4,-1
 148 40 l 1,5,-1
 45 250 l 1,0,-1
EndSplineSet
Validated: 1
EndChar

StartChar: guilsinglright
Encoding: 8250 8250 85
Width: 347
GlyphClass: 1
Flags: W
LayerCount: 2
Fore
SplineSet
190 261 m 1,0,-1
 93 461 l 1,1,-1
 182 461 l 1,2,-1
 285 251 l 1,3,-1
 113 40 l 1,4,-1
 9 40 l 1,5,-1
 190 261 l 1,0,-1
EndSplineSet
Validated: 1
EndChar

StartChar: fraction
Encoding: 8260 8260 86
Width: 444
GlyphClass: 1
Flags: W
LayerCount: 2
Fore
SplineSet
421 668 m 1,0,-1
 509 668 l 1,1,-1
 41 0 l 1,2,-1
 -47 0 l 1,3,-1
 421 668 l 1,0,-1
EndSplineSet
Validated: 1
EndChar

StartChar: ordfeminine
Encoding: 170 170 87
Width: 363
GlyphClass: 1
Flags: W
LayerCount: 2
Fore
SplineSet
72 470 m 1,0,1
 73 499 73 499 89.5 518 c 128,-1,2
 106 537 106 537 134 548.5 c 128,-1,3
 162 560 162 560 197.5 566.5 c 128,-1,4
 233 573 233 573 272 577 c 1,5,6
 275 589 275 589 275 601 c 128,-1,7
 275 613 275 613 270.5 622.5 c 128,-1,8
 266 632 266 632 254 637.5 c 128,-1,9
 242 643 242 643 221 643 c 0,10,11
 204 643 204 643 189 634 c 128,-1,12
 174 625 174 625 165 606 c 1,13,-1
 108 624 l 1,14,15
 124 656 124 656 155 673.5 c 128,-1,16
 186 691 186 691 231 691 c 0,17,18
 292 691 292 691 322 661.5 c 128,-1,19
 352 632 352 632 338 572 c 0,20,21
 328 530 328 530 321 488.5 c 128,-1,22
 314 447 314 447 314 403 c 1,23,-1
 255 403 l 1,24,-1
 252 441 l 1,25,26
 235 414 235 414 209.5 405 c 128,-1,27
 184 396 184 396 159 396 c 0,28,29
 119 396 119 396 95 416.5 c 128,-1,30
 71 437 71 437 72 470 c 1,31,-1
 72 470 l 1,0,1
179 447 m 1,32,33
 220 447 220 447 236.5 467.5 c 128,-1,34
 253 488 253 488 259 518 c 2,35,-1
 262 529 l 1,36,37
 228 526 228 526 205.5 521.5 c 128,-1,38
 183 517 183 517 170 511 c 128,-1,39
 157 505 157 505 151.5 497.5 c 128,-1,40
 146 490 146 490 145 480 c 0,41,42
 143 464 143 464 152.5 455.5 c 128,-1,43
 162 447 162 447 179 447 c 1,44,-1
 179 447 l 1,32,33
EndSplineSet
Validated: 37
EndChar

StartChar: guillemotleft
Encoding: 171 171 88
Width: 563
GlyphClass: 1
Flags: W
LayerCount: 2
Fore
SplineSet
45 250 m 1,0,-1
 217 461 l 1,1,-1
 321 461 l 1,2,-1
 140 240 l 1,3,-1
 237 40 l 1,4,-1
 148 40 l 1,5,-1
 45 250 l 1,0,-1
253 250 m 1,6,-1
 425 461 l 1,7,-1
 529 461 l 1,8,-1
 348 240 l 1,9,-1
 445 40 l 1,10,-1
 356 40 l 1,11,-1
 253 250 l 1,6,-1
EndSplineSet
Validated: 1
EndChar

StartChar: logicalnot
Encoding: 172 172 89
Width: 667
GlyphClass: 1
Flags: W
LayerCount: 2
Fore
SplineSet
75 396 m 1,0,-1
 571 396 l 1,1,-1
 571 90 l 1,2,-1
 490 90 l 1,3,-1
 490 317 l 1,4,-1
 75 317 l 1,5,-1
 75 396 l 1,0,-1
EndSplineSet
Validated: 1
EndChar

StartChar: registered
Encoding: 174 174 90
Width: 814
GlyphClass: 1
Flags: W
LayerCount: 2
Fore
SplineSet
416 680 m 1,0,1
 488 680 488 680 551 653 c 128,-1,2
 614 626 614 626 661 578.5 c 128,-1,3
 708 531 708 531 735 468 c 128,-1,4
 762 405 762 405 762 333 c 0,5,6
 762 262 762 262 735 199 c 128,-1,7
 708 136 708 136 661 89 c 128,-1,8
 614 42 614 42 551 15 c 128,-1,9
 488 -12 488 -12 416 -12 c 256,10,11
 344 -12 344 -12 281 15 c 128,-1,12
 218 42 218 42 171 89 c 128,-1,13
 124 136 124 136 97 199 c 128,-1,14
 70 262 70 262 70 333 c 0,15,16
 70 405 70 405 97 468 c 128,-1,17
 124 531 124 531 171 578.5 c 128,-1,18
 218 626 218 626 281 653 c 128,-1,19
 344 680 344 680 416 680 c 1,20,-1
 416 680 l 1,0,1
416 49 m 1,21,22
 475 49 475 49 526.5 71.5 c 128,-1,23
 578 94 578 94 616.5 132.5 c 128,-1,24
 655 171 655 171 677.5 223 c 128,-1,25
 700 275 700 275 700 333 c 0,26,27
 700 392 700 392 677.5 444 c 128,-1,28
 655 496 655 496 616.5 535 c 128,-1,29
 578 574 578 574 526.5 596.5 c 128,-1,30
 475 619 475 619 416 619 c 256,31,32
 357 619 357 619 305.5 596.5 c 128,-1,33
 254 574 254 574 215.5 535 c 128,-1,34
 177 496 177 496 154.5 444 c 128,-1,35
 132 392 132 392 132 333 c 0,36,37
 132 275 132 275 154.5 223 c 128,-1,38
 177 171 177 171 215.5 132.5 c 128,-1,39
 254 94 254 94 305.5 71.5 c 128,-1,40
 357 49 357 49 416 49 c 1,41,-1
 416 49 l 1,21,22
281 162 m 1,42,-1
 281 530 l 1,43,-1
 393 530 l 2,44,45
 434 530 434 530 466 525.5 c 128,-1,46
 498 521 498 521 520.5 508.5 c 128,-1,47
 543 496 543 496 555 473 c 128,-1,48
 567 450 567 450 567 414 c 0,49,50
 567 402 567 402 564 387.5 c 128,-1,51
 561 373 561 373 551.5 358.5 c 128,-1,52
 542 344 542 344 525 331.5 c 128,-1,53
 508 319 508 319 479 311 c 1,54,-1
 587 162 l 1,55,-1
 501 162 l 1,56,-1
 399 301 l 1,57,-1
 357 301 l 1,58,-1
 357 162 l 1,59,-1
 281 162 l 1,60,-1
 281 162 l 1,42,-1
357 469 m 1,61,-1
 357 359 l 1,62,-1
 410 359 l 2,63,64
 453 359 453 359 472 373 c 128,-1,65
 491 387 491 387 491 413 c 0,66,67
 491 447 491 447 467 458 c 128,-1,68
 443 469 443 469 405 469 c 2,69,-1
 357 469 l 1,70,-1
 357 469 l 1,61,-1
EndSplineSet
Validated: 5
EndChar

StartChar: macron
Encoding: 175 175 91
Width: 382
GlyphClass: 1
Flags: W
LayerCount: 2
Fore
SplineSet
133 668 m 1,0,-1
 409 668 l 1,1,-1
 395 601 l 1,2,-1
 119 601 l 1,3,-1
 133 668 l 1,0,-1
EndSplineSet
Validated: 1
Substitution2: "'case' Case-Sensitive Forms lookup 1 subtable" macron.case
EndChar

StartChar: degree
Encoding: 176 176 92
Width: 358
GlyphClass: 1
Flags: W
LayerCount: 2
Fore
SplineSet
87 544 m 1,0,1
 87 572 87 572 97.5 597 c 128,-1,2
 108 622 108 622 126.5 640.5 c 128,-1,3
 145 659 145 659 170 669.5 c 128,-1,4
 195 680 195 680 223 680 c 256,5,6
 251 680 251 680 276 669.5 c 128,-1,7
 301 659 301 659 319.5 640.5 c 128,-1,8
 338 622 338 622 348.5 597 c 128,-1,9
 359 572 359 572 359 544 c 256,10,11
 359 516 359 516 348.5 491 c 128,-1,12
 338 466 338 466 319.5 447.5 c 128,-1,13
 301 429 301 429 276 418.5 c 128,-1,14
 251 408 251 408 223 408 c 256,15,16
 195 408 195 408 170 418.5 c 128,-1,17
 145 429 145 429 126.5 447.5 c 128,-1,18
 108 466 108 466 97.5 491 c 128,-1,19
 87 516 87 516 87 544 c 1,20,-1
 87 544 l 1,0,1
150 544 m 1,21,22
 150 514 150 514 171.5 492.5 c 128,-1,23
 193 471 193 471 223 471 c 0,24,25
 254 471 254 471 275 492.5 c 128,-1,26
 296 514 296 514 296 544 c 0,27,28
 296 575 296 575 275 596 c 128,-1,29
 254 617 254 617 223 617 c 0,30,31
 193 617 193 617 171.5 596 c 128,-1,32
 150 575 150 575 150 544 c 1,33,-1
 150 544 l 1,21,22
EndSplineSet
Validated: 5
EndChar

StartChar: plusminus
Encoding: 177 177 93
Width: 653
GlyphClass: 1
Flags: W
LayerCount: 2
Fore
SplineSet
65 270 m 1,0,-1
 65 349 l 1,1,-1
 262 349 l 1,2,-1
 262 496 l 1,3,-1
 341 496 l 1,4,-1
 341 349 l 1,5,-1
 538 349 l 1,6,-1
 538 270 l 1,7,-1
 341 270 l 1,8,-1
 341 124 l 1,9,-1
 262 124 l 1,10,-1
 262 270 l 1,11,-1
 65 270 l 1,0,-1
538 79 m 1,12,-1
 538 0 l 1,13,-1
 65 0 l 1,14,-1
 65 79 l 1,15,-1
 538 79 l 1,12,-1
EndSplineSet
Validated: 1
EndChar

StartChar: uni00B2
Encoding: 178 178 94
Width: 384
GlyphClass: 1
Flags: W
LayerCount: 2
Fore
SplineSet
71 457 m 1,0,1
 139 495 139 495 184.5 525 c 128,-1,2
 230 555 230 555 257.5 581.5 c 128,-1,3
 285 608 285 608 297.5 631 c 128,-1,4
 310 654 310 654 312 678 c 0,5,6
 314 704 314 704 298.5 720 c 128,-1,7
 283 736 283 736 257 736 c 0,8,9
 234 736 234 736 212 722 c 128,-1,10
 190 708 190 708 179 676 c 1,11,-1
 119 695 l 1,12,13
 136 737 136 737 171.5 761.5 c 128,-1,14
 207 786 207 786 258 786 c 0,15,16
 284 786 284 786 307.5 780 c 128,-1,17
 331 774 331 774 348 761 c 128,-1,18
 365 748 365 748 374.5 728.5 c 128,-1,19
 384 709 384 709 382 682 c 0,20,21
 379 625 379 625 323.5 568 c 128,-1,22
 268 511 268 511 168 461 c 1,23,-1
 347 461 l 1,24,-1
 335 403 l 1,25,-1
 59 403 l 1,26,-1
 71 457 l 1,27,-1
 71 457 l 1,0,1
EndSplineSet
Validated: 37
EndChar

StartChar: uni00B3
Encoding: 179 179 95
Width: 394
GlyphClass: 1
Flags: W
LayerCount: 2
Fore
SplineSet
87 486 m 1,0,-1
 151 503 l 1,1,2
 158 479 158 479 175.5 463 c 128,-1,3
 193 447 193 447 223 447 c 0,4,5
 255 447 255 447 275.5 463 c 128,-1,6
 296 479 296 479 298 509 c 0,7,8
 299 535 299 535 287.5 548 c 128,-1,9
 276 561 276 561 259.5 566 c 128,-1,10
 243 571 243 571 224.5 571.5 c 128,-1,11
 206 572 206 572 194 572 c 1,12,-1
 205 626 l 1,13,14
 215 626 215 626 234 626.5 c 128,-1,15
 253 627 253 627 271.5 632 c 128,-1,16
 290 637 290 637 303.5 648.5 c 128,-1,17
 317 660 317 660 317 682 c 0,18,19
 317 712 317 712 299.5 724 c 128,-1,20
 282 736 282 736 258 736 c 0,21,22
 229 736 229 736 210.5 724 c 128,-1,23
 192 712 192 712 178 683 c 1,24,-1
 120 701 l 1,25,26
 141 745 141 745 177.5 765.5 c 128,-1,27
 214 786 214 786 261 786 c 0,28,29
 284 786 284 786 306.5 781 c 128,-1,30
 329 776 329 776 346.5 765 c 128,-1,31
 364 754 364 754 374.5 735 c 128,-1,32
 385 716 385 716 385 689 c 0,33,34
 385 660 385 660 368 637.5 c 128,-1,35
 351 615 351 615 317 602 c 1,36,37
 345 589 345 589 357 563 c 128,-1,38
 369 537 369 537 366 505 c 0,39,40
 359 449 359 449 317 422.5 c 128,-1,41
 275 396 275 396 217 396 c 0,42,43
 169 396 169 396 135 420 c 128,-1,44
 101 444 101 444 87 486 c 1,45,-1
 87 486 l 1,0,-1
EndSplineSet
Validated: 37
EndChar

StartChar: acute
Encoding: 180 180 96
Width: 271
GlyphClass: 1
Flags: W
LayerCount: 2
Fore
SplineSet
113 572 m 1,0,1
 142 603 142 603 166 629 c 0,2,3
 187 651 187 651 206.5 671.5 c 128,-1,4
 226 692 226 692 234 698 c 0,5,6
 245 707 245 707 259 707 c 0,7,8
 276 707 276 707 288 695 c 0,9,10
 299 683 299 683 297.5 667 c 128,-1,11
 296 651 296 651 285 641 c 0,12,13
 277 635 277 635 261.5 623 c 128,-1,14
 246 611 246 611 229 600 c 0,15,16
 209 587 209 587 187 572 c 1,17,-1
 113 572 l 1,18,-1
 113 572 l 1,0,1
EndSplineSet
Validated: 5
Substitution2: "'case' Case-Sensitive Forms lookup 1 subtable" acute.case
EndChar

StartChar: uni03BC
Encoding: 956 956 97
Width: 544
GlyphClass: 1
Flags: W
LayerCount: 2
Fore
SplineSet
114 495 m 1,0,-1
 202 495 l 1,1,-1
 138 196 l 2,2,3
 125 132 125 132 137.5 100.5 c 128,-1,4
 150 69 150 69 190 61 c 0,5,6
 198 59 198 59 206.5 58 c 128,-1,7
 215 57 215 57 224 57 c 0,8,9
 246 57 246 57 268.5 65 c 128,-1,10
 291 73 291 73 311 93 c 128,-1,11
 331 113 331 113 348 147.5 c 128,-1,12
 365 182 365 182 376 235 c 2,13,-1
 431 495 l 1,14,-1
 517 495 l 1,15,-1
 411 0 l 1,16,-1
 346 0 l 1,17,-1
 341 68 l 1,18,19
 314 30 314 30 282 9 c 128,-1,20
 250 -12 250 -12 195 -12 c 0,21,22
 168 -12 168 -12 143 1.5 c 128,-1,23
 118 15 118 15 105 44 c 1,24,-1
 62 -162 l 1,25,-1
 -26 -162 l 1,26,-1
 114 495 l 1,27,-1
 114 495 l 1,0,-1
EndSplineSet
Validated: 37
EndChar

StartChar: paragraph
Encoding: 182 182 98
Width: 521
GlyphClass: 1
Flags: W
LayerCount: 2
Fore
SplineSet
78 478 m 1,0,1
 87 517 87 517 109 552 c 128,-1,2
 131 587 131 587 162 612.5 c 128,-1,3
 193 638 193 638 231 653 c 128,-1,4
 269 668 269 668 308 668 c 2,5,-1
 568 668 l 1,6,-1
 553 600 l 1,7,-1
 512 600 l 1,8,-1
 351 -162 l 1,9,-1
 268 -162 l 1,10,-1
 429 600 l 1,11,-1
 336 600 l 1,12,-1
 174 -162 l 1,13,-1
 91 -162 l 1,14,-1
 188 294 l 1,15,16
 158 301 158 301 134 318 c 128,-1,17
 110 335 110 335 95 359.5 c 128,-1,18
 80 384 80 384 75.5 414 c 128,-1,19
 71 444 71 444 78 478 c 1,20,-1
 78 478 l 1,0,1
EndSplineSet
Validated: 33
EndChar

StartChar: periodcentered
Encoding: 183 183 99
Width: 235
GlyphClass: 1
Flags: W
LayerCount: 2
Fore
SplineSet
53 248 m 1,0,1
 53 274 53 274 72 293 c 128,-1,2
 91 312 91 312 117 312 c 0,3,4
 144 312 144 312 163 293 c 128,-1,5
 182 274 182 274 182 248 c 0,6,7
 182 221 182 221 163 202 c 128,-1,8
 144 183 144 183 117 183 c 0,9,10
 91 183 91 183 72 202 c 128,-1,11
 53 221 53 221 53 248 c 1,12,-1
 53 248 l 1,0,1
EndSplineSet
Validated: 5
EndChar

StartChar: cedilla
Encoding: 184 184 100
Width: 294
GlyphClass: 1
Flags: W
LayerCount: 2
Fore
SplineSet
-1 -126 m 1,0,1
 30 -140 30 -140 56 -140 c 0,2,3
 79 -140 79 -140 93.5 -131 c 128,-1,4
 108 -122 108 -122 112 -111 c 128,-1,5
 116 -100 116 -100 108 -91 c 128,-1,6
 100 -82 100 -82 79 -82 c 0,7,8
 65 -82 65 -82 49 -86 c 0,9,10
 34 -90 34 -90 27.5 -79 c 128,-1,11
 21 -68 21 -68 30 -57 c 2,12,-1
 98 25 l 1,13,-1
 128 4 l 1,14,-1
 87 -45 l 1,15,16
 120 -40 120 -40 140.5 -47.5 c 128,-1,17
 161 -55 161 -55 169.5 -70 c 128,-1,18
 178 -85 178 -85 175.5 -104 c 128,-1,19
 173 -123 173 -123 159.5 -140 c 128,-1,20
 146 -157 146 -157 122 -168.5 c 128,-1,21
 98 -180 98 -180 63 -180 c 0,22,23
 23 -180 23 -180 -24 -163 c 1,24,-1
 -1 -126 l 1,25,-1
 -1 -126 l 1,0,1
EndSplineSet
Validated: 37
EndChar

StartChar: uni00B9
Encoding: 185 185 101
Width: 257
GlyphClass: 1
Flags: W
LayerCount: 2
Fore
SplineSet
126 730 m 1,0,1
 166 730 166 730 191.5 740 c 128,-1,2
 217 750 217 750 231 779 c 1,3,-1
 288 779 l 1,4,-1
 208 403 l 1,5,-1
 139 403 l 1,6,-1
 199 682 l 1,7,-1
 116 682 l 1,8,-1
 126 730 l 1,9,-1
 126 730 l 1,0,1
EndSplineSet
Validated: 5
EndChar

StartChar: ordmasculine
Encoding: 186 186 102
Width: 383
GlyphClass: 1
Flags: W
LayerCount: 2
Fore
SplineSet
88 546 m 1,0,1
 92 584 92 584 106.5 611.5 c 128,-1,2
 121 639 121 639 142 657 c 128,-1,3
 163 675 163 675 188.5 683.5 c 128,-1,4
 214 692 214 692 241 692 c 256,5,6
 268 692 268 692 291.5 683.5 c 128,-1,7
 315 675 315 675 332.5 657 c 128,-1,8
 350 639 350 639 358.5 611.5 c 128,-1,9
 367 584 367 584 363 546 c 256,10,11
 359 508 359 508 344.5 480.5 c 128,-1,12
 330 453 330 453 309 435 c 128,-1,13
 288 417 288 417 262.5 408 c 128,-1,14
 237 399 237 399 210 399 c 256,15,16
 183 399 183 399 159.5 408 c 128,-1,17
 136 417 136 417 118.5 435 c 128,-1,18
 101 453 101 453 92.5 480.5 c 128,-1,19
 84 508 84 508 88 546 c 1,20,-1
 88 546 l 1,0,1
216 452 m 1,21,22
 246 452 246 452 267.5 476.5 c 128,-1,23
 289 501 289 501 294 546 c 256,24,25
 299 591 299 591 282 615 c 128,-1,26
 265 639 265 639 235 639 c 0,27,28
 206 639 206 639 184 615 c 128,-1,29
 162 591 162 591 157 546 c 256,30,31
 152 501 152 501 169 476.5 c 128,-1,32
 186 452 186 452 216 452 c 1,33,-1
 216 452 l 1,21,22
EndSplineSet
Validated: 37
EndChar

StartChar: guillemotright
Encoding: 187 187 103
Width: 555
GlyphClass: 1
Flags: W
LayerCount: 2
Fore
SplineSet
9 40 m 1,0,-1
 190 261 l 1,1,-1
 93 461 l 1,2,-1
 182 461 l 1,3,-1
 285 251 l 1,4,-1
 113 40 l 1,5,-1
 9 40 l 1,0,-1
398 261 m 1,6,-1
 301 461 l 1,7,-1
 390 461 l 1,8,-1
 493 251 l 1,9,-1
 321 40 l 1,10,-1
 217 40 l 1,11,-1
 398 261 l 1,6,-1
EndSplineSet
Validated: 1
EndChar

StartChar: onequarter
Encoding: 188 188 104
Width: 824
GlyphClass: 1
Flags: W
LayerCount: 2
Fore
SplineSet
122 618 m 1,0,1
 162 618 162 618 187.5 628 c 128,-1,2
 213 638 213 638 227 667 c 1,3,-1
 284 667 l 1,4,-1
 204 292 l 1,5,-1
 136 292 l 1,6,-1
 195 571 l 1,7,-1
 112 571 l 1,8,-1
 122 618 l 1,9,-1
 122 618 l 1,0,1
100 0 m 1,10,-1
 568 668 l 1,11,-1
 656 668 l 1,12,-1
 188 0 l 1,13,-1
 100 0 l 1,10,-1
411 140 m 1,14,-1
 647 375 l 1,15,-1
 724 375 l 1,16,-1
 674 143 l 1,17,-1
 739 143 l 1,18,-1
 727 86 l 1,19,-1
 662 86 l 1,20,-1
 644 0 l 1,21,-1
 574 0 l 1,22,-1
 592 86 l 1,23,-1
 399 86 l 1,24,-1
 411 140 l 1,14,-1
604 143 m 1,25,-1
 636 289 l 1,26,-1
 492 143 l 1,27,-1
 604 143 l 1,25,-1
EndSplineSet
Validated: 5
Ligature2: "'frac' Diagonal Fractions lookup 2 subtable" one slash four
EndChar

StartChar: onehalf
Encoding: 189 189 105
Width: 802
GlyphClass: 1
Flags: W
LayerCount: 2
Fore
SplineSet
411 0 m 1,0,-1
 422 54 l 1,1,2
 490 92 490 92 536 122 c 128,-1,3
 582 152 582 152 609.5 178 c 128,-1,4
 637 204 637 204 649.5 227.5 c 128,-1,5
 662 251 662 251 664 274 c 0,6,7
 666 301 666 301 650 317 c 128,-1,8
 634 333 634 333 608 333 c 0,9,10
 585 333 585 333 563.5 319 c 128,-1,11
 542 305 542 305 531 273 c 1,12,-1
 471 292 l 1,13,14
 488 334 488 334 523.5 358 c 128,-1,15
 559 382 559 382 610 382 c 0,16,17
 636 382 636 382 659.5 376 c 128,-1,18
 683 370 683 370 700.5 357 c 128,-1,19
 718 344 718 344 727.5 325 c 128,-1,20
 737 306 737 306 735 279 c 0,21,22
 732 222 732 222 676 165 c 128,-1,23
 620 108 620 108 520 58 c 1,24,-1
 699 58 l 1,25,-1
 687 0 l 1,26,-1
 411 0 l 1,27,-1
 411 0 l 1,0,-1
112 571 m 1,28,-1
 122 618 l 1,29,30
 162 618 162 618 187.5 628 c 128,-1,31
 213 638 213 638 227 667 c 1,32,-1
 284 667 l 1,33,-1
 204 292 l 1,34,-1
 135 292 l 1,35,-1
 194 571 l 1,36,-1
 112 571 l 1,37,-1
 112 571 l 1,28,-1
93 0 m 1,38,-1
 561 668 l 1,39,-1
 649 668 l 1,40,-1
 181 0 l 1,41,-1
 93 0 l 1,38,-1
EndSplineSet
Validated: 37
Ligature2: "'frac' Diagonal Fractions lookup 2 subtable" one slash two
EndChar

StartChar: threequarters
Encoding: 190 190 106
Width: 906
GlyphClass: 1
Flags: W
LayerCount: 2
Fore
SplineSet
84 379 m 1,0,-1
 148 397 l 1,1,2
 155 373 155 373 172.5 357.5 c 128,-1,3
 190 342 190 342 220 342 c 0,4,5
 252 342 252 342 272.5 357.5 c 128,-1,6
 293 373 293 373 295 402 c 0,7,8
 296 428 296 428 284.5 441 c 128,-1,9
 273 454 273 454 256.5 459.5 c 128,-1,10
 240 465 240 465 221.5 465 c 128,-1,11
 203 465 203 465 191 465 c 1,12,-1
 202 520 l 1,13,14
 212 520 212 520 231 520.5 c 128,-1,15
 250 521 250 521 268.5 526 c 128,-1,16
 287 531 287 531 300.5 542.5 c 128,-1,17
 314 554 314 554 314 576 c 0,18,19
 314 606 314 606 296.5 617.5 c 128,-1,20
 279 629 279 629 255 629 c 0,21,22
 226 629 226 629 207.5 617 c 128,-1,23
 189 605 189 605 175 576 c 1,24,-1
 117 594 l 1,25,26
 138 638 138 638 174.5 658.5 c 128,-1,27
 211 679 211 679 258 679 c 0,28,29
 281 679 281 679 303.5 674.5 c 128,-1,30
 326 670 326 670 343.5 658.5 c 128,-1,31
 361 647 361 647 371.5 628.5 c 128,-1,32
 382 610 382 610 382 582 c 256,33,34
 382 554 382 554 365 531.5 c 128,-1,35
 348 509 348 509 314 496 c 1,36,37
 342 483 342 483 354 457 c 128,-1,38
 366 431 366 431 363 399 c 0,39,40
 356 344 356 344 314 317.5 c 128,-1,41
 272 291 272 291 214 291 c 0,42,43
 166 291 166 291 132 314.5 c 128,-1,44
 98 338 98 338 84 379 c 1,45,-1
 84 379 l 1,0,-1
193 0 m 1,46,-1
 661 668 l 1,47,-1
 749 668 l 1,48,-1
 281 0 l 1,49,-1
 193 0 l 1,46,-1
493 140 m 1,50,-1
 730 375 l 1,51,-1
 806 375 l 1,52,-1
 756 143 l 1,53,-1
 821 143 l 1,54,-1
 809 86 l 1,55,-1
 745 86 l 1,56,-1
 726 0 l 1,57,-1
 656 0 l 1,58,-1
 675 86 l 1,59,-1
 482 86 l 1,60,-1
 493 140 l 1,50,-1
574 143 m 1,61,-1
 687 143 l 1,62,-1
 718 289 l 1,63,-1
 574 143 l 1,61,-1
EndSplineSet
Validated: 37
Ligature2: "'frac' Diagonal Fractions lookup 2 subtable" three slash four
EndChar

StartChar: less
Encoding: 60 60 107
Width: 613
GlyphClass: 1
Flags: W
LayerCount: 2
Fore
SplineSet
38 213 m 1,0,-1
 38 283 l 1,1,-1
 511 496 l 1,2,-1
 511 406 l 1,3,-1
 143 248 l 1,4,-1
 511 90 l 1,5,-1
 511 0 l 1,6,-1
 38 213 l 1,0,-1
EndSplineSet
Validated: 1
EndChar

StartChar: equal
Encoding: 61 61 108
Width: 658
GlyphClass: 1
Flags: W
LayerCount: 2
Fore
SplineSet
63 386 m 1,0,-1
 559 386 l 1,1,-1
 559 307 l 1,2,-1
 63 307 l 1,3,-1
 63 386 l 1,0,-1
559 200 m 1,4,-1
 559 121 l 1,5,-1
 63 121 l 1,6,-1
 63 200 l 1,7,-1
 559 200 l 1,4,-1
EndSplineSet
Validated: 1
EndChar

StartChar: greater
Encoding: 62 62 109
Width: 613
GlyphClass: 1
Flags: W
LayerCount: 2
Fore
SplineSet
556 283 m 1,0,-1
 556 213 l 1,1,-1
 83 0 l 1,2,-1
 83 90 l 1,3,-1
 451 248 l 1,4,-1
 83 406 l 1,5,-1
 83 496 l 1,6,-1
 556 283 l 1,0,-1
EndSplineSet
Validated: 1
EndChar

StartChar: question
Encoding: 63 63 110
Width: 527
GlyphClass: 1
Flags: W
LayerCount: 2
Fore
SplineSet
89 524 m 1,0,1
 118 604 118 604 182.5 641.5 c 128,-1,2
 247 679 247 679 332 679 c 0,3,4
 367 679 367 679 403.5 670.5 c 128,-1,5
 440 662 440 662 468.5 642 c 128,-1,6
 497 622 497 622 512.5 589 c 128,-1,7
 528 556 528 556 522 508 c 0,8,9
 518 479 518 479 504 455.5 c 128,-1,10
 490 432 490 432 469 413 c 128,-1,11
 448 394 448 394 423 378.5 c 128,-1,12
 398 363 398 363 372 351 c 0,13,14
 344 337 344 337 324.5 322.5 c 128,-1,15
 305 308 305 308 292.5 292.5 c 128,-1,16
 280 277 280 277 273.5 260 c 128,-1,17
 267 243 267 243 263 224 c 2,18,-1
 255 190 l 1,19,-1
 170 190 l 1,20,-1
 177 227 l 2,21,22
 186 269 186 269 202 299 c 128,-1,23
 218 329 218 329 239.5 351 c 128,-1,24
 261 373 261 373 287 389.5 c 128,-1,25
 313 406 313 406 342 421 c 0,26,27
 373 437 373 437 399.5 458.5 c 128,-1,28
 426 480 426 480 432 513 c 0,29,30
 435 535 435 535 428.5 553 c 128,-1,31
 422 571 422 571 407.5 583.5 c 128,-1,32
 393 596 393 596 373 602.5 c 128,-1,33
 353 609 353 609 329 609 c 0,34,35
 267 609 267 609 225.5 581.5 c 128,-1,36
 184 554 184 554 166 500 c 1,37,-1
 89 524 l 1,38,-1
 89 524 l 1,0,1
128 77 m 1,39,40
 136 96 136 96 152.5 106.5 c 128,-1,41
 169 117 169 117 188 117 c 0,42,43
 200 117 200 117 213 112 c 0,44,45
 238 101 238 101 248.5 77 c 128,-1,46
 259 53 259 53 248 28 c 0,47,48
 240 9 240 9 223.5 -1.5 c 128,-1,49
 207 -12 207 -12 188 -12 c 0,50,51
 176 -12 176 -12 163 -7 c 0,52,53
 138 3 138 3 127.5 27.5 c 128,-1,54
 117 52 117 52 128 77 c 1,55,-1
 128 77 l 1,39,40
EndSplineSet
Validated: 37
EndChar

StartChar: at
Encoding: 64 64 111
Width: 787
GlyphClass: 1
Flags: W
LayerCount: 2
Fore
SplineSet
67 334 m 1,0,1
 67 406 67 406 94 469 c 128,-1,2
 121 532 121 532 168 579 c 128,-1,3
 215 626 215 626 278 653 c 128,-1,4
 341 680 341 680 413 680 c 0,5,6
 470 680 470 680 529 659.5 c 128,-1,7
 588 639 588 639 636 599 c 128,-1,8
 684 559 684 559 715 500.5 c 128,-1,9
 746 442 746 442 746 366 c 0,10,11
 746 309 746 309 730 269 c 128,-1,12
 714 229 714 229 688.5 203.5 c 128,-1,13
 663 178 663 178 631.5 166.5 c 128,-1,14
 600 155 600 155 569 155 c 0,15,16
 527 155 527 155 495 174 c 128,-1,17
 463 193 463 193 456 225 c 1,18,19
 430 190 430 190 395.5 172.5 c 128,-1,20
 361 155 361 155 328 155 c 0,21,22
 301 155 301 155 278 165.5 c 128,-1,23
 255 176 255 176 239 197 c 128,-1,24
 223 218 223 218 217 248.5 c 128,-1,25
 211 279 211 279 220 319 c 0,26,27
 232 376 232 376 256 414.5 c 128,-1,28
 280 453 280 453 311.5 476 c 128,-1,29
 343 499 343 499 380 509 c 128,-1,30
 417 519 417 519 454 519 c 0,31,32
 485 519 485 519 515 513.5 c 128,-1,33
 545 508 545 508 571 499 c 1,34,35
 561 449 561 449 552 406 c 0,36,37
 548 387 548 387 544 368 c 128,-1,38
 540 349 540 349 536 332 c 128,-1,39
 532 315 532 315 529 301 c 128,-1,40
 526 287 526 287 524 278 c 0,41,42
 517 249 517 249 533.5 234 c 128,-1,43
 550 219 550 219 576 219 c 0,44,45
 603 219 603 219 631 237 c 128,-1,46
 659 255 659 255 672 293 c 0,47,48
 693 355 693 355 680 413.5 c 128,-1,49
 667 472 667 472 630 517.5 c 128,-1,50
 593 563 593 563 536.5 591 c 128,-1,51
 480 619 480 619 413 619 c 0,52,53
 355 619 355 619 303 596.5 c 128,-1,54
 251 574 251 574 212.5 535.5 c 128,-1,55
 174 497 174 497 151.5 445 c 128,-1,56
 129 393 129 393 129 334 c 0,57,58
 129 271 129 271 153 218.5 c 128,-1,59
 177 166 177 166 216.5 128.5 c 128,-1,60
 256 91 256 91 307.5 70 c 128,-1,61
 359 49 359 49 414 49 c 0,62,63
 485 49 485 49 549 85 c 1,64,-1
 549 16 l 1,65,66
 486 -12 486 -12 416 -12 c 0,67,68
 349 -12 349 -12 286.5 13 c 128,-1,69
 224 38 224 38 175 83.5 c 128,-1,70
 126 129 126 129 96.5 192.5 c 128,-1,71
 67 256 67 256 67 334 c 1,72,-1
 67 334 l 1,0,1
348 228 m 1,73,74
 363 228 363 228 379.5 235 c 128,-1,75
 396 242 396 242 411 256 c 128,-1,76
 426 270 426 270 437.5 290.5 c 128,-1,77
 449 311 449 311 455 339 c 0,78,79
 463 377 463 377 467.5 397.5 c 128,-1,80
 472 418 472 418 474 428 c 0,81,82
 477 440 477 440 477 442 c 0,83,84
 467 444 467 444 456.5 445 c 128,-1,85
 446 446 446 446 434 446 c 0,86,87
 415 446 415 446 394.5 441 c 128,-1,88
 374 436 374 436 356 421 c 128,-1,89
 338 406 338 406 323 380 c 128,-1,90
 308 354 308 354 299 312 c 256,91,92
 290 270 290 270 306 249 c 128,-1,93
 322 228 322 228 348 228 c 1,94,-1
 348 228 l 1,73,74
EndSplineSet
Validated: 37
EndChar

StartChar: colon
Encoding: 58 58 112
Width: 209
GlyphClass: 1
Flags: W
LayerCount: 2
Fore
SplineSet
135 504 m 1,0,1
 162 504 162 504 181 485 c 128,-1,2
 200 466 200 466 200 440 c 0,3,4
 200 413 200 413 181 394 c 128,-1,5
 162 375 162 375 135 375 c 0,6,7
 109 375 109 375 90 394 c 128,-1,8
 71 413 71 413 71 440 c 0,9,10
 71 466 71 466 90 485 c 128,-1,11
 109 504 109 504 135 504 c 1,12,-1
 135 504 l 1,0,1
-11 52 m 1,13,14
 -11 79 -11 79 8 98 c 128,-1,15
 27 117 27 117 53 117 c 0,16,17
 80 117 80 117 99 98 c 128,-1,18
 118 79 118 79 118 52 c 0,19,20
 118 26 118 26 99 7 c 128,-1,21
 80 -12 80 -12 53 -12 c 0,22,23
 27 -12 27 -12 8 7 c 128,-1,24
 -11 26 -11 26 -11 52 c 1,25,-1
 -11 52 l 1,13,14
EndSplineSet
Validated: 5
EndChar

StartChar: semicolon
Encoding: 59 59 113
Width: 209
GlyphClass: 1
Flags: W
LayerCount: 2
Fore
SplineSet
32 -8 m 1,0,1
 10 0 10 0 -2 20 c 128,-1,2
 -14 40 -14 40 -10 64 c 0,3,4
 -5 90 -5 90 17 105.5 c 128,-1,5
 39 121 39 121 65 116 c 0,6,7
 82 113 82 113 94 103 c 128,-1,8
 106 93 106 93 112.5 79 c 128,-1,9
 119 65 119 65 118.5 49 c 128,-1,10
 118 33 118 33 108 18 c 2,11,-1
 18 -133 l 1,12,-1
 -43 -133 l 1,13,-1
 32 -8 l 1,14,-1
 32 -8 l 1,0,1
136 504 m 1,15,16
 163 504 163 504 182 485 c 128,-1,17
 201 466 201 466 201 440 c 0,18,19
 201 413 201 413 182 394 c 128,-1,20
 163 375 163 375 136 375 c 0,21,22
 110 375 110 375 91 394 c 128,-1,23
 72 413 72 413 72 440 c 0,24,25
 72 466 72 466 91 485 c 128,-1,26
 110 504 110 504 136 504 c 1,27,-1
 136 504 l 1,15,16
EndSplineSet
Validated: 37
EndChar

StartChar: bracketleft
Encoding: 91 91 114
Width: 317
GlyphClass: 1
Flags: W
LayerCount: 2
Fore
SplineSet
156 668 m 1,0,-1
 363 668 l 1,1,-1
 348 593 l 1,2,-1
 224 593 l 1,3,-1
 79 -87 l 1,4,-1
 204 -87 l 1,5,-1
 188 -161 l 1,6,-1
 -20 -161 l 1,7,-1
 156 668 l 1,0,-1
EndSplineSet
Validated: 1
EndChar

StartChar: backslash
Encoding: 92 92 115
Width: 519
GlyphClass: 1
Flags: W
LayerCount: 2
Fore
SplineSet
95 668 m 1,0,-1
 182 668 l 1,1,-1
 442 0 l 1,2,-1
 355 0 l 1,3,-1
 95 668 l 1,0,-1
EndSplineSet
Validated: 1
EndChar

StartChar: bracketright
Encoding: 93 93 116
Width: 317
GlyphClass: 1
Flags: W
LayerCount: 2
Fore
SplineSet
-47 -87 m 1,0,-1
 78 -87 l 1,1,-1
 223 593 l 1,2,-1
 98 593 l 1,3,-1
 113 668 l 1,4,-1
 320 668 l 1,5,-1
 145 -161 l 1,6,-1
 -63 -161 l 1,7,-1
 -47 -87 l 1,0,-1
EndSplineSet
Validated: 1
EndChar

StartChar: asciicircum
Encoding: 94 94 117
Width: 552
GlyphClass: 1
Flags: W
LayerCount: 2
Fore
SplineSet
47 311 m 1,0,-1
 232 668 l 1,1,-1
 308 668 l 1,2,-1
 493 311 l 1,3,-1
 404 311 l 1,4,-1
 270 569 l 1,5,-1
 136 311 l 1,6,-1
 47 311 l 1,0,-1
EndSplineSet
Validated: 1
EndChar

StartChar: underscore
Encoding: 95 95 118
Width: 413
GlyphClass: 1
Flags: W
LayerCount: 2
Fore
SplineSet
-32 0 m 1,0,-1
 344 0 l 1,1,-1
 344 -79 l 1,2,-1
 -32 -79 l 1,3,-1
 -32 0 l 1,0,-1
EndSplineSet
Validated: 1
EndChar

StartChar: grave
Encoding: 96 96 119
Width: 272
GlyphClass: 1
Flags: W
LayerCount: 2
Fore
SplineSet
149 700 m 1,0,1
 159 707 159 707 172 707 c 0,2,3
 180 707 180 707 188.5 703.5 c 128,-1,4
 197 700 197 700 202 692 c 0,5,6
 208 684 208 684 220.5 664 c 128,-1,7
 233 644 233 644 246 623 c 0,8,9
 261 599 261 599 278 571 c 1,10,-1
 210 571 l 1,11,12
 195 586 195 586 182 601 c 0,13,14
 170 613 170 613 158.5 626 c 128,-1,15
 147 639 147 639 141 647 c 0,16,17
 132 660 132 660 134.5 676 c 128,-1,18
 137 692 137 692 149 700 c 1,19,-1
 149 700 l 1,0,1
EndSplineSet
Validated: 1
Substitution2: "'case' Case-Sensitive Forms lookup 1 subtable" grave.case
EndChar

StartChar: exclam
Encoding: 33 33 120
Width: 284
GlyphClass: 1
Flags: W
LayerCount: 2
Fore
SplineSet
81 116 m 1,0,1
 107 121 107 121 129 105 c 128,-1,2
 151 89 151 89 155 63 c 0,3,4
 160 37 160 37 144 15 c 128,-1,5
 128 -7 128 -7 102 -11 c 0,6,7
 89 -13 89 -13 76.5 -10 c 128,-1,8
 64 -7 64 -7 54 0 c 128,-1,9
 44 7 44 7 37 18 c 128,-1,10
 30 29 30 29 28 42 c 256,11,12
 26 55 26 55 29 67.5 c 128,-1,13
 32 80 32 80 39 90 c 128,-1,14
 46 100 46 100 57 107 c 128,-1,15
 68 114 68 114 81 116 c 1,16,-1
 81 116 l 1,0,1
95 195 m 1,17,-1
 140 495 l 1,18,-1
 177 668 l 1,19,-1
 268 668 l 1,20,-1
 232 495 l 1,21,-1
 149 195 l 1,22,-1
 95 195 l 1,17,-1
EndSplineSet
Validated: 33
EndChar

StartChar: quotedbl
Encoding: 34 34 121
Width: 334
GlyphClass: 1
Flags: W
LayerCount: 2
Fore
SplineSet
95 668 m 1,0,-1
 175 668 l 1,1,-1
 161 447 l 1,2,-1
 109 447 l 1,3,-1
 95 668 l 1,0,-1
316 668 m 1,4,-1
 302 447 l 1,5,-1
 250 447 l 1,6,-1
 236 668 l 1,7,-1
 316 668 l 1,4,-1
EndSplineSet
Validated: 1
EndChar

StartChar: numbersign
Encoding: 35 35 122
Width: 634
GlyphClass: 1
Flags: W
LayerCount: 2
Fore
SplineSet
47 253 m 1,0,-1
 171 253 l 1,1,-1
 194 415 l 1,2,-1
 70 415 l 1,3,-1
 81 496 l 1,4,-1
 205 496 l 1,5,-1
 229 668 l 1,6,-1
 311 668 l 1,7,-1
 287 496 l 1,8,-1
 410 496 l 1,9,-1
 434 668 l 1,10,-1
 516 668 l 1,11,-1
 492 496 l 1,12,-1
 615 496 l 1,13,-1
 604 415 l 1,14,-1
 480 415 l 1,15,-1
 458 253 l 1,16,-1
 581 253 l 1,17,-1
 570 172 l 1,18,-1
 446 172 l 1,19,-1
 422 0 l 1,20,-1
 340 0 l 1,21,-1
 364 172 l 1,22,-1
 241 172 l 1,23,-1
 217 0 l 1,24,-1
 135 0 l 1,25,-1
 160 172 l 1,26,-1
 36 172 l 1,27,-1
 47 253 l 1,0,-1
253 253 m 1,28,-1
 376 253 l 1,29,-1
 398 415 l 1,30,-1
 275 415 l 1,31,-1
 253 253 l 1,28,-1
EndSplineSet
Validated: 1
EndChar

StartChar: dollar
Encoding: 36 36 123
Width: 610
GlyphClass: 1
Flags: W
LayerCount: 2
Fore
SplineSet
129 179 m 1,0,1
 141 143 141 143 167.5 120 c 128,-1,2
 194 97 194 97 226 86 c 1,3,-1
 276 319 l 1,4,5
 242 329 242 329 208 342 c 128,-1,6
 174 355 174 355 148 375.5 c 128,-1,7
 122 396 122 396 105.5 426.5 c 128,-1,8
 89 457 89 457 89 503 c 0,9,10
 89 553 89 553 112.5 589.5 c 128,-1,11
 136 626 136 626 173.5 649 c 128,-1,12
 211 672 211 672 258.5 681.5 c 128,-1,13
 306 691 306 691 354 687 c 1,14,-1
 367 750 l 1,15,-1
 419 750 l 1,16,-1
 404 679 l 1,17,18
 457 667 457 667 500 638 c 128,-1,19
 543 609 543 609 564 563 c 1,20,-1
 472 537 l 1,21,22
 460 560 460 560 438 575.5 c 128,-1,23
 416 591 416 591 387 599 c 1,24,-1
 342 388 l 1,25,26
 379 377 379 377 415.5 363.5 c 128,-1,27
 452 350 452 350 481.5 330 c 128,-1,28
 511 310 511 310 529 279.5 c 128,-1,29
 547 249 547 249 547 204 c 0,30,31
 547 150 547 150 521.5 109 c 128,-1,32
 496 68 496 68 455 41.5 c 128,-1,33
 414 15 414 15 362.5 3 c 128,-1,34
 311 -9 311 -9 259 -4 c 1,35,-1
 243 -80 l 1,36,-1
 191 -80 l 1,37,-1
 209 4 l 1,38,39
 151 18 151 18 105 55 c 128,-1,40
 59 92 59 92 38 153 c 1,41,-1
 129 179 l 1,42,-1
 129 179 l 1,0,1
276 75 m 1,43,44
 308 72 308 72 339 78 c 128,-1,45
 370 84 370 84 394.5 99 c 128,-1,46
 419 114 419 114 434 137 c 128,-1,47
 449 160 449 160 449 191 c 0,48,49
 449 216 449 216 439 233.5 c 128,-1,50
 429 251 429 251 412.5 264 c 128,-1,51
 396 277 396 277 373.5 286.5 c 128,-1,52
 351 296 351 296 325 304 c 1,53,-1
 276 75 l 1,54,-1
 276 75 l 1,43,44
294 403 m 1,55,-1
 337 608 l 1,56,57
 310 610 310 610 283 605 c 128,-1,58
 256 600 256 600 235 588.5 c 128,-1,59
 214 577 214 577 200 558 c 128,-1,60
 186 539 186 539 184 512 c 0,61,62
 183 489 183 489 191 472 c 128,-1,63
 199 455 199 455 214 442.5 c 128,-1,64
 229 430 229 430 249.5 420.5 c 128,-1,65
 270 411 270 411 294 403 c 1,66,-1
 294 403 l 1,55,-1
EndSplineSet
Validated: 37
EndChar

StartChar: percent
Encoding: 37 37 124
Width: 1000
GlyphClass: 1
Flags: W
LayerCount: 2
Fore
SplineSet
83 499 m 1,0,1
 87 537 87 537 105 569.5 c 128,-1,2
 123 602 123 602 150 627 c 128,-1,3
 177 652 177 652 212 666 c 128,-1,4
 247 680 247 680 284 680 c 0,5,6
 322 680 322 680 353.5 666 c 128,-1,7
 385 652 385 652 407.5 627 c 128,-1,8
 430 602 430 602 440.5 569.5 c 128,-1,9
 451 537 451 537 447 499 c 256,10,11
 443 461 443 461 425 428 c 128,-1,12
 407 395 407 395 380 370 c 128,-1,13
 353 345 353 345 318.5 331 c 128,-1,14
 284 317 284 317 246 317 c 256,15,16
 208 317 208 317 176.5 331 c 128,-1,17
 145 345 145 345 122.5 370 c 128,-1,18
 100 395 100 395 89.5 428 c 128,-1,19
 79 461 79 461 83 499 c 1,20,-1
 83 499 l 1,0,1
571 170 m 1,21,22
 575 208 575 208 593 240.5 c 128,-1,23
 611 273 611 273 638 298 c 128,-1,24
 665 323 665 323 700 337 c 128,-1,25
 735 351 735 351 772 351 c 0,26,27
 810 351 810 351 841.5 337 c 128,-1,28
 873 323 873 323 895.5 298 c 128,-1,29
 918 273 918 273 928.5 240.5 c 128,-1,30
 939 208 939 208 935 170 c 256,31,32
 931 132 931 132 913 99 c 128,-1,33
 895 66 895 66 868 41 c 128,-1,34
 841 16 841 16 806.5 2 c 128,-1,35
 772 -12 772 -12 734 -12 c 256,36,37
 696 -12 696 -12 664.5 2 c 128,-1,38
 633 16 633 16 610.5 41 c 128,-1,39
 588 66 588 66 577.5 99 c 128,-1,40
 567 132 567 132 571 170 c 1,41,-1
 571 170 l 1,21,22
742 62 m 1,42,43
 764 62 764 62 784.5 70.5 c 128,-1,44
 805 79 805 79 820.5 93.5 c 128,-1,45
 836 108 836 108 846.5 128 c 128,-1,46
 857 148 857 148 860 170 c 256,47,48
 863 192 863 192 856.5 211.5 c 128,-1,49
 850 231 850 231 837 245.5 c 128,-1,50
 824 260 824 260 805.5 268.5 c 128,-1,51
 787 277 787 277 764 277 c 0,52,53
 742 277 742 277 721.5 268.5 c 128,-1,54
 701 260 701 260 684.5 245.5 c 128,-1,55
 668 231 668 231 657.5 211.5 c 128,-1,56
 647 192 647 192 645 170 c 256,57,58
 643 148 643 148 649.5 128 c 128,-1,59
 656 108 656 108 669 93.5 c 128,-1,60
 682 79 682 79 701 70.5 c 128,-1,61
 720 62 720 62 742 62 c 1,62,-1
 742 62 l 1,42,43
254 391 m 1,63,64
 276 391 276 391 296.5 399.5 c 128,-1,65
 317 408 317 408 332.5 422.5 c 128,-1,66
 348 437 348 437 358.5 457 c 128,-1,67
 369 477 369 477 372 499 c 256,68,69
 375 521 375 521 368.5 540.5 c 128,-1,70
 362 560 362 560 349 574.5 c 128,-1,71
 336 589 336 589 317.5 597.5 c 128,-1,72
 299 606 299 606 276 606 c 0,73,74
 254 606 254 606 233.5 597.5 c 128,-1,75
 213 589 213 589 196.5 574.5 c 128,-1,76
 180 560 180 560 169.5 540.5 c 128,-1,77
 159 521 159 521 157 499 c 256,78,79
 155 477 155 477 161.5 457 c 128,-1,80
 168 437 168 437 181 422.5 c 128,-1,81
 194 408 194 408 213 399.5 c 128,-1,82
 232 391 232 391 254 391 c 1,83,-1
 254 391 l 1,63,64
231 0 m 1,84,-1
 699 668 l 1,85,-1
 787 668 l 1,86,-1
 319 0 l 1,87,-1
 231 0 l 1,84,-1
EndSplineSet
Validated: 37
EndChar

StartChar: ampersand
Encoding: 38 38 125
Width: 691
GlyphClass: 1
Flags: W
LayerCount: 2
Fore
SplineSet
15 175 m 1,0,1
 17 213 17 213 34.5 246 c 128,-1,2
 52 279 52 279 80 306.5 c 128,-1,3
 108 334 108 334 144.5 355 c 128,-1,4
 181 376 181 376 222 389 c 1,5,6
 200 424 200 424 188.5 464 c 128,-1,7
 177 504 177 504 185 543 c 0,8,9
 198 609 198 609 247 644 c 128,-1,10
 296 679 296 679 371 679 c 0,11,12
 408 679 408 679 439.5 669.5 c 128,-1,13
 471 660 471 660 494 642 c 128,-1,14
 517 624 517 624 528.5 597.5 c 128,-1,15
 540 571 540 571 536 536 c 0,16,17
 532 502 532 502 515.5 475.5 c 128,-1,18
 499 449 499 449 473.5 428 c 128,-1,19
 448 407 448 407 416.5 391 c 128,-1,20
 385 375 385 375 351 362 c 1,21,-1
 456 222 l 1,22,23
 478 248 478 248 497.5 284 c 128,-1,24
 517 320 517 320 529 360 c 1,25,-1
 616 360 l 1,26,27
 600 306 600 306 569.5 254 c 128,-1,28
 539 202 539 202 503 157 c 1,29,-1
 619 0 l 1,30,-1
 507 0 l 1,31,-1
 443 86 l 1,32,33
 390 41 390 41 333 14.5 c 128,-1,34
 276 -12 276 -12 204 -12 c 0,35,36
 155 -12 155 -12 118 3 c 128,-1,37
 81 18 81 18 57.5 43.5 c 128,-1,38
 34 69 34 69 23.5 103 c 128,-1,39
 13 137 13 137 15 175 c 1,40,-1
 15 175 l 1,0,1
212 66 m 1,41,42
 265 66 265 66 309.5 87 c 128,-1,43
 354 108 354 108 400 145 c 1,44,-1
 263 333 l 1,45,46
 198 312 198 312 153.5 275.5 c 128,-1,47
 109 239 109 239 102 185 c 0,48,49
 98 156 98 156 105 133.5 c 128,-1,50
 112 111 112 111 127 96 c 128,-1,51
 142 81 142 81 163.5 73.5 c 128,-1,52
 185 66 185 66 212 66 c 1,53,-1
 212 66 l 1,41,42
312 416 m 1,54,55
 338 425 338 425 362 436 c 128,-1,56
 386 447 386 447 405.5 461.5 c 128,-1,57
 425 476 425 476 438 493 c 128,-1,58
 451 510 451 510 453 530 c 0,59,60
 455 545 455 545 451 560 c 128,-1,61
 447 575 447 575 436.5 586 c 128,-1,62
 426 597 426 597 408.5 603.5 c 128,-1,63
 391 610 391 610 365 609 c 0,64,65
 329 607 329 607 304.5 590.5 c 128,-1,66
 280 574 280 574 272 540 c 0,67,68
 268 519 268 519 272.5 498.5 c 128,-1,69
 277 478 277 478 284.5 461.5 c 128,-1,70
 292 445 292 445 300.5 433 c 128,-1,71
 309 421 309 421 312 416 c 1,72,-1
 312 416 l 1,54,55
EndSplineSet
Validated: 37
EndChar

StartChar: quotesingle
Encoding: 39 39 126
Width: 193
GlyphClass: 1
Flags: W
LayerCount: 2
Fore
SplineSet
95 668 m 1,0,-1
 175 668 l 1,1,-1
 161 447 l 1,2,-1
 109 447 l 1,3,-1
 95 668 l 1,0,-1
EndSplineSet
Validated: 1
EndChar

StartChar: parenleft
Encoding: 40 40 127
Width: 303
GlyphClass: 1
Flags: W
LayerCount: 2
Fore
SplineSet
260 668 m 1,0,-1
 339 668 l 1,1,2
 267 579 267 579 212.5 484.5 c 128,-1,3
 158 390 158 390 132 287 c 128,-1,4
 106 184 106 184 113.5 72.5 c 128,-1,5
 121 -39 121 -39 172 -162 c 1,6,-1
 95 -162 l 1,7,8
 47 -52 47 -52 35 56.5 c 128,-1,9
 23 165 23 165 45.5 270 c 128,-1,10
 68 375 68 375 122 475 c 128,-1,11
 176 575 176 575 260 668 c 1,12,-1
 260 668 l 1,0,-1
EndSplineSet
Validated: 37
EndChar

StartChar: parenright
Encoding: 41 41 128
Width: 303
GlyphClass: 1
Flags: W
LayerCount: 2
Fore
SplineSet
-53 -162 m 1,0,1
 20 -73 20 -73 74.5 21.5 c 128,-1,2
 129 116 129 116 155 219 c 128,-1,3
 181 322 181 322 173.5 433.5 c 128,-1,4
 166 545 166 545 115 668 c 1,5,-1
 192 668 l 1,6,7
 240 559 240 559 251.5 450 c 128,-1,8
 263 341 263 341 241 236 c 128,-1,9
 219 131 219 131 165 31 c 128,-1,10
 111 -69 111 -69 28 -162 c 1,11,-1
 -53 -162 l 1,12,-1
 -53 -162 l 1,0,1
EndSplineSet
Validated: 37
EndChar

StartChar: asterisk
Encoding: 42 42 129
Width: 440
GlyphClass: 1
Flags: W
LayerCount: 2
Fore
SplineSet
198 513 m 1,0,-1
 106 566 l 1,1,-1
 135 615 l 1,2,-1
 227 562 l 1,3,-1
 249 667 l 1,4,-1
 305 655 l 1,5,-1
 283 550 l 1,6,-1
 388 561 l 1,7,-1
 395 505 l 1,8,-1
 289 493 l 1,9,-1
 332 396 l 1,10,-1
 280 373 l 1,11,-1
 236 470 l 1,12,-1
 157 399 l 1,13,-1
 119 442 l 1,14,-1
 198 513 l 1,0,-1
EndSplineSet
Validated: 1
EndChar

StartChar: plus
Encoding: 43 43 130
Width: 619
GlyphClass: 1
Flags: W
LayerCount: 2
Fore
SplineSet
42 208 m 1,0,-1
 42 288 l 1,1,-1
 250 288 l 1,2,-1
 250 496 l 1,3,-1
 330 496 l 1,4,-1
 330 288 l 1,5,-1
 538 288 l 1,6,-1
 538 208 l 1,7,-1
 330 208 l 1,8,-1
 330 0 l 1,9,-1
 250 0 l 1,10,-1
 250 208 l 1,11,-1
 42 208 l 1,0,-1
EndSplineSet
Validated: 1
EndChar

StartChar: comma
Encoding: 44 44 131
Width: 209
GlyphClass: 1
Flags: W
LayerCount: 2
Fore
SplineSet
32 -8 m 1,0,1
 10 0 10 0 -2 20 c 128,-1,2
 -14 40 -14 40 -10 64 c 0,3,4
 -5 90 -5 90 17 105.5 c 128,-1,5
 39 121 39 121 65 116 c 0,6,7
 82 113 82 113 94 103 c 128,-1,8
 106 93 106 93 112.5 79 c 128,-1,9
 119 65 119 65 118.5 49 c 128,-1,10
 118 33 118 33 108 18 c 2,11,-1
 18 -133 l 1,12,-1
 -43 -133 l 1,13,-1
 32 -8 l 1,14,-1
 32 -8 l 1,0,1
EndSplineSet
Validated: 37
EndChar

StartChar: hyphen
Encoding: 45 45 132
Width: 369
GlyphClass: 1
Flags: W
LayerCount: 2
Fore
SplineSet
38 289 m 1,0,-1
 330 289 l 1,1,-1
 312 208 l 1,2,-1
 20 208 l 1,3,-1
 38 289 l 1,0,-1
EndSplineSet
Validated: 1
EndChar

StartChar: period
Encoding: 46 46 133
Width: 208
GlyphClass: 1
Flags: W
LayerCount: 2
Fore
SplineSet
-1 52 m 1,0,1
 -1 79 -1 79 18 98 c 128,-1,2
 37 117 37 117 63 117 c 0,3,4
 90 117 90 117 109 98 c 128,-1,5
 128 79 128 79 128 52 c 0,6,7
 128 26 128 26 109 7 c 128,-1,8
 90 -12 90 -12 63 -12 c 0,9,10
 37 -12 37 -12 18 7 c 128,-1,11
 -1 26 -1 26 -1 52 c 1,12,-1
 -1 52 l 1,0,1
EndSplineSet
Validated: 5
EndChar

StartChar: slash
Encoding: 47 47 134
Width: 371
GlyphClass: 1
Flags: W
LayerCount: 2
Fore
SplineSet
352 668 m 1,0,-1
 439 668 l 1,1,-1
 37 0 l 1,2,-1
 -50 0 l 1,3,-1
 352 668 l 1,0,-1
EndSplineSet
Validated: 1
EndChar

StartChar: braceleft
Encoding: 123 123 135
Width: 322
GlyphClass: 1
Flags: W
LayerCount: 2
Fore
SplineSet
41 -25 m 1,0,-1
 73 125 l 2,1,2
 78 146 78 146 79 163.5 c 128,-1,3
 80 181 80 181 75.5 193.5 c 128,-1,4
 71 206 71 206 58.5 213 c 128,-1,5
 46 220 46 220 23 220 c 1,6,-1
 37 287 l 1,7,8
 60 287 60 287 75.5 293.5 c 128,-1,9
 91 300 91 300 101 312.5 c 128,-1,10
 111 325 111 325 117.5 342.5 c 128,-1,11
 124 360 124 360 128 381 c 2,12,-1
 159 531 l 2,13,14
 168 572 168 572 178.5 598.5 c 128,-1,15
 189 625 189 625 206 640 c 128,-1,16
 223 655 223 655 251 661 c 128,-1,17
 279 667 279 667 322 667 c 2,18,-1
 368 667 l 1,19,-1
 353 596 l 1,20,-1
 312 596 l 2,21,22
 296 596 296 596 285 593 c 128,-1,23
 274 590 274 590 267 583 c 128,-1,24
 260 576 260 576 255.5 563.5 c 128,-1,25
 251 551 251 551 247 532 c 2,26,-1
 214 380 l 2,27,28
 201 317 201 317 173.5 290 c 128,-1,29
 146 263 146 263 108 253 c 1,30,31
 125 248 125 248 138 239.5 c 128,-1,32
 151 231 151 231 158 217 c 128,-1,33
 165 203 165 203 166 181 c 128,-1,34
 167 159 167 159 160 127 c 2,35,-1
 128 -26 l 2,36,37
 120 -65 120 -65 126 -78 c 128,-1,38
 132 -91 132 -91 166 -91 c 2,39,-1
 207 -91 l 1,40,-1
 192 -162 l 1,41,-1
 147 -162 l 2,42,43
 106 -162 106 -162 81.5 -154 c 128,-1,44
 57 -146 57 -146 45.5 -129 c 128,-1,45
 34 -112 34 -112 34 -86.5 c 128,-1,46
 34 -61 34 -61 41 -25 c 1,47,-1
 41 -25 l 1,0,-1
EndSplineSet
Validated: 37
EndChar

StartChar: bar
Encoding: 124 124 136
Width: 289
GlyphClass: 1
Flags: W
LayerCount: 2
Fore
SplineSet
96 668 m 1,0,-1
 177 668 l 1,1,-1
 177 -161 l 1,2,-1
 96 -161 l 1,3,-1
 96 668 l 1,0,-1
EndSplineSet
Validated: 1
EndChar

StartChar: braceright
Encoding: 125 125 137
Width: 322
GlyphClass: 1
Flags: W
LayerCount: 2
Fore
SplineSet
-47 -91 m 1,0,-1
 -5 -91 l 2,1,2
 28 -91 28 -91 40 -78 c 128,-1,3
 52 -65 52 -65 60 -26 c 2,4,-1
 92 126 l 2,5,6
 106 190 106 190 133 216.5 c 128,-1,7
 160 243 160 243 199 253 c 1,8,9
 182 258 182 258 169 266.5 c 128,-1,10
 156 275 156 275 148.5 289.5 c 128,-1,11
 141 304 141 304 140 326 c 128,-1,12
 139 348 139 348 146 379 c 2,13,-1
 179 532 l 2,14,15
 187 570 187 570 180.5 583 c 128,-1,16
 174 596 174 596 141 596 c 2,17,-1
 99 596 l 1,18,-1
 114 667 l 1,19,-1
 160 667 l 2,20,21
 201 667 201 667 225 659 c 128,-1,22
 249 651 249 651 260 634.5 c 128,-1,23
 271 618 271 618 271.5 592 c 128,-1,24
 272 566 272 566 265 531 c 2,25,-1
 234 381 l 2,26,27
 229 359 229 359 227.5 341.5 c 128,-1,28
 226 324 226 324 230.5 312 c 128,-1,29
 235 300 235 300 247.5 293.5 c 128,-1,30
 260 287 260 287 283 287 c 1,31,-1
 268 220 l 1,32,33
 245 220 245 220 230 213 c 128,-1,34
 215 206 215 206 205 193.5 c 128,-1,35
 195 181 195 181 189.5 163 c 128,-1,36
 184 145 184 145 179 124 c 2,37,-1
 147 -25 l 2,38,39
 138 -66 138 -66 127.5 -92.5 c 128,-1,40
 117 -119 117 -119 99.5 -134.5 c 128,-1,41
 82 -150 82 -150 54.5 -156 c 128,-1,42
 27 -162 27 -162 -17 -162 c 2,43,-1
 -62 -162 l 1,44,-1
 -47 -91 l 1,45,-1
 -47 -91 l 1,0,-1
EndSplineSet
Validated: 37
EndChar

StartChar: asciitilde
Encoding: 126 126 138
Width: 539
GlyphClass: 1
Flags: W
LayerCount: 2
Fore
SplineSet
25 221 m 1,0,1
 36 267 36 267 72 295 c 128,-1,2
 108 323 108 323 162 323 c 0,3,4
 193 323 193 323 221 314.5 c 128,-1,5
 249 306 249 306 274 295.5 c 128,-1,6
 299 285 299 285 321 276.5 c 128,-1,7
 343 268 343 268 363 268 c 0,8,9
 386 268 386 268 403.5 280.5 c 128,-1,10
 421 293 421 293 426 319 c 1,11,-1
 500 297 l 1,12,13
 489 251 489 251 453.5 223 c 128,-1,14
 418 195 418 195 364 195 c 0,15,16
 337 195 337 195 311 203.5 c 128,-1,17
 285 212 285 212 259.5 222 c 128,-1,18
 234 232 234 232 210.5 240.5 c 128,-1,19
 187 249 187 249 164 249 c 0,20,21
 139 249 139 249 122 236.5 c 128,-1,22
 105 224 105 224 100 199 c 1,23,-1
 25 221 l 1,24,-1
 25 221 l 1,0,1
EndSplineSet
Validated: 5
EndChar

StartChar: exclamdown
Encoding: 161 161 139
Width: 284
GlyphClass: 1
Flags: W
LayerCount: 2
Fore
SplineSet
177 519 m 1,0,1
 203 519 203 519 222 500 c 128,-1,2
 241 481 241 481 241 455 c 0,3,4
 241 428 241 428 222 409 c 128,-1,5
 203 390 203 390 177 390 c 0,6,7
 150 390 150 390 131 409 c 128,-1,8
 112 428 112 428 112 455 c 0,9,10
 112 481 112 481 131 500 c 128,-1,11
 150 519 150 519 177 519 c 1,12,-1
 177 519 l 1,0,1
37 12 m 1,13,-1
 119 311 l 1,14,-1
 174 311 l 1,15,-1
 128 12 l 1,16,-1
 91 -161 l 1,17,-1
 0 -161 l 1,18,-1
 37 12 l 1,13,-1
EndSplineSet
Validated: 5
EndChar

StartChar: cent
Encoding: 162 162 140
Width: 492
GlyphClass: 1
Flags: W
LayerCount: 2
Fore
SplineSet
29 247 m 1,0,1
 37 300 37 300 58.5 346 c 128,-1,2
 80 392 80 392 112.5 426 c 128,-1,3
 145 460 145 460 188 480.5 c 128,-1,4
 231 501 231 501 283 503 c 1,5,-1
 297 571 l 1,6,-1
 347 571 l 1,7,-1
 332 501 l 1,8,9
 436 486 436 486 480 392 c 1,10,-1
 397 364 l 1,11,12
 389 389 389 389 368 405.5 c 128,-1,13
 347 422 347 422 318 427 c 1,14,-1
 240 61 l 1,15,16
 280 62 280 62 309.5 79.5 c 128,-1,17
 339 97 339 97 362 127 c 1,18,-1
 433 98 l 1,19,20
 400 43 400 43 345 16 c 128,-1,21
 290 -11 290 -11 224 -12 c 1,22,-1
 208 -87 l 1,23,-1
 157 -87 l 1,24,-1
 174 -8 l 1,25,26
 90 7 90 7 51.5 75 c 128,-1,27
 13 143 13 143 29 247 c 1,28,-1
 29 247 l 1,0,1
190 68 m 1,29,-1
 267 428 l 1,30,31
 233 423 233 423 207.5 405.5 c 128,-1,32
 182 388 182 388 164 363 c 128,-1,33
 146 338 146 338 135.5 308 c 128,-1,34
 125 278 125 278 120 248 c 0,35,36
 115 217 115 217 115.5 188 c 128,-1,37
 116 159 116 159 124 135.5 c 128,-1,38
 132 112 132 112 148 94.5 c 128,-1,39
 164 77 164 77 190 68 c 1,40,-1
 190 68 l 1,29,-1
EndSplineSet
Validated: 37
EndChar

StartChar: sterling
Encoding: 163 163 141
Width: 586
GlyphClass: 1
Flags: W
LayerCount: 2
Fore
SplineSet
22 55 m 1,0,1
 41 62 41 62 75 81.5 c 128,-1,2
 109 101 109 101 138.5 133 c 128,-1,3
 168 165 168 165 184.5 211 c 128,-1,4
 201 257 201 257 185 317 c 1,5,-1
 75 317 l 1,6,-1
 86 368 l 1,7,-1
 172 368 l 1,8,9
 162 402 162 402 156 436 c 128,-1,10
 150 470 150 470 154 511 c 0,11,12
 159 557 159 557 181 589 c 128,-1,13
 203 621 203 621 235 641 c 128,-1,14
 267 661 267 661 306.5 670 c 128,-1,15
 346 679 346 679 386 679 c 0,16,17
 466 679 466 679 520.5 646 c 128,-1,18
 575 613 575 613 591 549 c 1,19,-1
 508 526 l 1,20,21
 491 574 491 574 462.5 591 c 128,-1,22
 434 608 434 608 382 608 c 0,23,24
 361 608 361 608 338.5 603.5 c 128,-1,25
 316 599 316 599 296.5 587.5 c 128,-1,26
 277 576 277 576 263.5 556.5 c 128,-1,27
 250 537 250 537 245 507 c 0,28,29
 240 471 240 471 247 437 c 128,-1,30
 254 403 254 403 265 368 c 1,31,-1
 468 368 l 1,32,-1
 457 317 l 1,33,-1
 277 317 l 1,34,35
 286 277 286 277 279 242.5 c 128,-1,36
 272 208 272 208 254 179.5 c 128,-1,37
 236 151 236 151 208.5 128.5 c 128,-1,38
 181 106 181 106 150 90 c 1,39,40
 168 97 168 97 183.5 99.5 c 128,-1,41
 199 102 199 102 212 102 c 0,42,43
 234 102 234 102 252 96.5 c 128,-1,44
 270 91 270 91 288 84 c 128,-1,45
 306 77 306 77 326 71.5 c 128,-1,46
 346 66 346 66 372 66 c 0,47,48
 395 66 395 66 423 71.5 c 128,-1,49
 451 77 451 77 487 91 c 1,50,-1
 497 18 l 1,51,52
 455 1 455 1 423.5 -5.5 c 128,-1,53
 392 -12 392 -12 366 -12 c 0,54,55
 338 -12 338 -12 315 -6 c 128,-1,56
 292 0 292 0 270.5 6.5 c 128,-1,57
 249 13 249 13 227 19 c 128,-1,58
 205 25 205 25 177 25 c 0,59,60
 150 25 150 25 115.5 17 c 128,-1,61
 81 9 81 9 35 -12 c 1,62,-1
 22 55 l 1,63,-1
 22 55 l 1,0,1
EndSplineSet
Validated: 37
EndChar

StartChar: currency
Encoding: 164 164 142
Width: 666
GlyphClass: 1
Flags: W
LayerCount: 2
Fore
SplineSet
102 119 m 1,0,-1
 168 185 l 1,1,2
 145 215 145 215 133 250 c 128,-1,3
 121 285 121 285 121 321 c 256,4,5
 121 357 121 357 133 392 c 128,-1,6
 145 427 145 427 168 456 c 1,7,-1
 102 522 l 1,8,-1
 138 558 l 1,9,-1
 204 492 l 1,10,11
 234 516 234 516 268.5 527.5 c 128,-1,12
 303 539 303 539 339 539 c 256,13,14
 375 539 375 539 410 527.5 c 128,-1,15
 445 516 445 516 474 492 c 1,16,-1
 540 558 l 1,17,-1
 576 522 l 1,18,-1
 510 456 l 1,19,20
 534 427 534 427 545.5 392 c 128,-1,21
 557 357 557 357 557 321 c 256,22,23
 557 285 557 285 545.5 250 c 128,-1,24
 534 215 534 215 510 185 c 1,25,-1
 576 119 l 1,26,-1
 540 84 l 1,27,-1
 474 149 l 1,28,29
 445 126 445 126 410 114.5 c 128,-1,30
 375 103 375 103 339 103 c 256,31,32
 303 103 303 103 268.5 114.5 c 128,-1,33
 234 126 234 126 204 149 c 1,34,-1
 138 84 l 1,35,-1
 102 119 l 1,36,-1
 102 119 l 1,0,-1
339 178 m 1,37,38
 369 178 369 178 394.5 189 c 128,-1,39
 420 200 420 200 439.5 219.5 c 128,-1,40
 459 239 459 239 470 265 c 128,-1,41
 481 291 481 291 481 321 c 0,42,43
 481 350 481 350 470 376 c 128,-1,44
 459 402 459 402 439.5 421.5 c 128,-1,45
 420 441 420 441 394.5 452 c 128,-1,46
 369 463 369 463 339 463 c 256,47,48
 309 463 309 463 283.5 452 c 128,-1,49
 258 441 258 441 238.5 421.5 c 128,-1,50
 219 402 219 402 208 376 c 128,-1,51
 197 350 197 350 197 321 c 0,52,53
 197 291 197 291 208 265 c 128,-1,54
 219 239 219 239 238.5 219.5 c 128,-1,55
 258 200 258 200 283.5 189 c 128,-1,56
 309 178 309 178 339 178 c 1,57,-1
 339 178 l 1,37,38
EndSplineSet
Validated: 5
EndChar

StartChar: yen
Encoding: 165 165 143
Width: 598
GlyphClass: 1
Flags: W
LayerCount: 2
Fore
SplineSet
58 137 m 1,0,-1
 207 137 l 1,1,-1
 225 223 l 1,2,-1
 76 223 l 1,3,-1
 87 274 l 1,4,-1
 218 274 l 1,5,-1
 90 668 l 1,6,-1
 186 668 l 1,7,-1
 291 329 l 1,8,-1
 554 668 l 1,9,-1
 668 668 l 1,10,-1
 352 274 l 1,11,-1
 479 274 l 1,12,-1
 468 223 l 1,13,-1
 322 223 l 1,14,-1
 304 137 l 1,15,-1
 450 137 l 1,16,-1
 439 86 l 1,17,-1
 293 86 l 1,18,-1
 275 0 l 1,19,-1
 178 0 l 1,20,-1
 196 86 l 1,21,-1
 47 86 l 1,22,-1
 58 137 l 1,0,-1
EndSplineSet
Validated: 1
EndChar

StartChar: brokenbar
Encoding: 166 166 144
Width: 289
GlyphClass: 1
Flags: W
LayerCount: 2
Fore
SplineSet
96 668 m 1,0,-1
 177 668 l 1,1,-1
 177 358 l 1,2,-1
 96 358 l 1,3,-1
 96 668 l 1,0,-1
177 149 m 1,4,-1
 177 -161 l 1,5,-1
 96 -161 l 1,6,-1
 96 149 l 1,7,-1
 177 149 l 1,4,-1
EndSplineSet
Validated: 1
EndChar

StartChar: section
Encoding: 167 167 145
Width: 526
GlyphClass: 1
Flags: W
LayerCount: 2
Fore
SplineSet
43 -32 m 1,0,1
 45 -50 45 -50 54 -63.5 c 128,-1,2
 63 -77 63 -77 76 -85.5 c 128,-1,3
 89 -94 89 -94 105.5 -98 c 128,-1,4
 122 -102 122 -102 140 -102 c 256,5,6
 158 -102 158 -102 175.5 -98 c 128,-1,7
 193 -94 193 -94 207.5 -86 c 128,-1,8
 222 -78 222 -78 233 -66.5 c 128,-1,9
 244 -55 244 -55 248 -40 c 0,10,11
 254 -18 254 -18 248.5 0.5 c 128,-1,12
 243 19 243 19 229.5 35.5 c 128,-1,13
 216 52 216 52 195.5 68 c 128,-1,14
 175 84 175 84 152 102 c 256,15,16
 129 120 129 120 108.5 136.5 c 128,-1,17
 88 153 88 153 72.5 171 c 128,-1,18
 57 189 57 189 48 209.5 c 128,-1,19
 39 230 39 230 39 256 c 0,20,21
 39 292 39 292 52.5 322 c 128,-1,22
 66 352 66 352 90 374.5 c 128,-1,23
 114 397 114 397 145.5 412.5 c 128,-1,24
 177 428 177 428 213 435 c 1,25,26
 185 463 185 463 179.5 504.5 c 128,-1,27
 174 546 174 546 193 585 c 128,-1,28
 212 624 212 624 255 652 c 128,-1,29
 298 680 298 680 366 680 c 0,30,31
 393 680 393 680 420.5 674.5 c 128,-1,32
 448 669 448 669 471 657.5 c 128,-1,33
 494 646 494 646 512 628 c 128,-1,34
 530 610 530 610 537 584 c 1,35,-1
 454 561 l 1,36,37
 449 587 449 587 423.5 599.5 c 128,-1,38
 398 612 398 612 367 612 c 0,39,40
 333 612 333 612 303 597.5 c 128,-1,41
 273 583 273 583 267 554 c 0,42,43
 263 533 263 533 269.5 517.5 c 128,-1,44
 276 502 276 502 291 487 c 128,-1,45
 306 472 306 472 327 457 c 128,-1,46
 348 442 348 442 371 422 c 0,47,48
 393 404 393 404 414 388 c 128,-1,49
 435 372 435 372 451 355 c 128,-1,50
 467 338 467 338 477 318 c 128,-1,51
 487 298 487 298 487 272 c 0,52,53
 487 234 487 234 473.5 204 c 128,-1,54
 460 174 460 174 436 150.5 c 128,-1,55
 412 127 412 127 380.5 110.5 c 128,-1,56
 349 94 349 94 313 82 c 1,57,58
 338 51 338 51 339.5 7 c 128,-1,59
 341 -37 341 -37 318.5 -77 c 128,-1,60
 296 -117 296 -117 250 -145.5 c 128,-1,61
 204 -174 204 -174 135 -174 c 0,62,63
 64 -174 64 -174 17 -142 c 128,-1,64
 -30 -110 -30 -110 -43 -55 c 1,65,-1
 43 -32 l 1,66,-1
 43 -32 l 1,0,1
166 208 m 1,67,68
 176 200 176 200 192.5 187 c 128,-1,69
 209 174 209 174 226 161 c 0,70,71
 245 146 245 146 266 129 c 1,72,73
 318 145 318 145 349.5 166.5 c 128,-1,74
 381 188 381 188 391.5 213.5 c 128,-1,75
 402 239 402 239 391 267 c 128,-1,76
 380 295 380 295 346 323 c 0,77,78
 338 331 338 331 323 342 c 128,-1,79
 308 353 308 353 294 364 c 0,80,81
 278 377 278 377 260 391 c 1,82,83
 219 382 219 382 186.5 362.5 c 128,-1,84
 154 343 154 343 138 317.5 c 128,-1,85
 122 292 122 292 127 263.5 c 128,-1,86
 132 235 132 235 166 208 c 1,87,-1
 166 208 l 1,67,68
EndSplineSet
Validated: 37
EndChar

StartChar: dieresis
Encoding: 168 168 146
Width: 427
GlyphClass: 1
Flags: W
LayerCount: 2
Fore
SplineSet
129 644 m 1,0,1
 129 666 129 666 144.5 681.5 c 128,-1,2
 160 697 160 697 183 697 c 256,3,4
 206 697 206 697 221.5 681.5 c 128,-1,5
 237 666 237 666 237 644 c 0,6,7
 237 621 237 621 221.5 605.5 c 128,-1,8
 206 590 206 590 183 590 c 256,9,10
 160 590 160 590 144.5 605.5 c 128,-1,11
 129 621 129 621 129 644 c 1,12,-1
 129 644 l 1,0,1
394 697 m 1,13,14
 417 697 417 697 432.5 681.5 c 128,-1,15
 448 666 448 666 448 644 c 0,16,17
 448 621 448 621 432.5 605.5 c 128,-1,18
 417 590 417 590 394 590 c 0,19,20
 372 590 372 590 356.5 605.5 c 128,-1,21
 341 621 341 621 341 644 c 0,22,23
 341 666 341 666 356.5 681.5 c 128,-1,24
 372 697 372 697 394 697 c 1,25,-1
 394 697 l 1,13,14
EndSplineSet
Validated: 5
Substitution2: "'case' Case-Sensitive Forms lookup 1 subtable" dieresis.case
EndChar

StartChar: copyright
Encoding: 169 169 147
Width: 814
GlyphClass: 1
Flags: W
LayerCount: 2
Fore
SplineSet
70 334 m 1,0,1
 70 406 70 406 97 469 c 128,-1,2
 124 532 124 532 171 579 c 128,-1,3
 218 626 218 626 281 653 c 128,-1,4
 344 680 344 680 416 680 c 256,5,6
 488 680 488 680 551 653 c 128,-1,7
 614 626 614 626 661 579 c 128,-1,8
 708 532 708 532 735 469 c 128,-1,9
 762 406 762 406 762 334 c 256,10,11
 762 262 762 262 735 199 c 128,-1,12
 708 136 708 136 661 89 c 128,-1,13
 614 42 614 42 551 15 c 128,-1,14
 488 -12 488 -12 416 -12 c 256,15,16
 344 -12 344 -12 281 15 c 128,-1,17
 218 42 218 42 171 89 c 128,-1,18
 124 136 124 136 97 199 c 128,-1,19
 70 262 70 262 70 334 c 1,20,-1
 70 334 l 1,0,1
132 334 m 1,21,22
 132 275 132 275 154.5 223.5 c 128,-1,23
 177 172 177 172 215.5 133.5 c 128,-1,24
 254 95 254 95 305.5 72.5 c 128,-1,25
 357 50 357 50 416 50 c 256,26,27
 475 50 475 50 526.5 72.5 c 128,-1,28
 578 95 578 95 616.5 133.5 c 128,-1,29
 655 172 655 172 677.5 223.5 c 128,-1,30
 700 275 700 275 700 334 c 256,31,32
 700 393 700 393 677.5 444.5 c 128,-1,33
 655 496 655 496 616.5 534.5 c 128,-1,34
 578 573 578 573 526.5 595.5 c 128,-1,35
 475 618 475 618 416 618 c 256,36,37
 357 618 357 618 305.5 595.5 c 128,-1,38
 254 573 254 573 215.5 534.5 c 128,-1,39
 177 496 177 496 154.5 444.5 c 128,-1,40
 132 393 132 393 132 334 c 1,41,-1
 132 334 l 1,21,22
420 531 m 1,42,43
 474 531 474 531 510 508 c 128,-1,44
 546 485 546 485 565 449 c 1,45,-1
 498 424 l 1,46,47
 485 448 485 448 464.5 460.5 c 128,-1,48
 444 473 444 473 418 473 c 0,49,50
 375 473 375 473 347.5 441 c 128,-1,51
 320 409 320 409 320 342 c 0,52,53
 320 274 320 274 347.5 241.5 c 128,-1,54
 375 209 375 209 418 209 c 0,55,56
 443 209 443 209 465 219 c 128,-1,57
 487 229 487 229 501 254 c 1,58,-1
 567 230 l 1,59,60
 547 196 547 196 510.5 173 c 128,-1,61
 474 150 474 150 418 150 c 0,62,63
 333 150 333 150 288.5 201 c 128,-1,64
 244 252 244 252 244 342 c 0,65,66
 244 431 244 431 291.5 481 c 128,-1,67
 339 531 339 531 420 531 c 1,68,-1
 420 531 l 1,42,43
EndSplineSet
Validated: 5
EndChar

StartChar: questiondown
Encoding: 191 191 148
Width: 527
GlyphClass: 1
Flags: W
LayerCount: 2
Fore
SplineSet
-12 -3 m 1,0,1
 -8 26 -8 26 6 49.5 c 128,-1,2
 20 73 20 73 41 92 c 128,-1,3
 62 111 62 111 87.5 126 c 128,-1,4
 113 141 113 141 139 154 c 0,5,6
 168 168 168 168 187 182.5 c 128,-1,7
 206 197 206 197 218.5 213 c 128,-1,8
 231 229 231 229 237.5 246 c 128,-1,9
 244 263 244 263 248 282 c 2,10,-1
 255 316 l 1,11,-1
 340 316 l 1,12,-1
 332 279 l 2,13,14
 323 236 323 236 307 206 c 128,-1,15
 291 176 291 176 270 154 c 128,-1,16
 249 132 249 132 223.5 115.5 c 128,-1,17
 198 99 198 99 169 84 c 0,18,19
 138 68 138 68 111 46.5 c 128,-1,20
 84 25 84 25 78 -8 c 0,21,22
 75 -30 75 -30 81.5 -48 c 128,-1,23
 88 -66 88 -66 102.5 -78.5 c 128,-1,24
 117 -91 117 -91 137.5 -98 c 128,-1,25
 158 -105 158 -105 182 -105 c 0,26,27
 244 -105 244 -105 285 -77 c 128,-1,28
 326 -49 326 -49 344 5 c 1,29,-1
 421 -19 l 1,30,31
 392 -99 392 -99 328 -137 c 128,-1,32
 264 -175 264 -175 179 -175 c 0,33,34
 144 -175 144 -175 107 -166.5 c 128,-1,35
 70 -158 70 -158 41.5 -137.5 c 128,-1,36
 13 -117 13 -117 -2.5 -84 c 128,-1,37
 -18 -51 -18 -51 -12 -3 c 1,38,-1
 -12 -3 l 1,0,1
259 452 m 1,39,40
 259 479 259 479 277 498 c 128,-1,41
 295 517 295 517 322 517 c 256,42,43
 349 517 349 517 368 498 c 128,-1,44
 387 479 387 479 387 452 c 0,45,46
 387 426 387 426 368 407 c 128,-1,47
 349 388 349 388 322 388 c 256,48,49
 295 388 295 388 277 407 c 128,-1,50
 259 426 259 426 259 452 c 1,51,-1
 259 452 l 1,39,40
EndSplineSet
Validated: 37
EndChar

StartChar: grave.case
Encoding: 65539 -1 149
Width: 278
GlyphClass: 1
Flags: W
LayerCount: 2
Fore
SplineSet
168 828 m 1,0,1
 168 837 168 837 176 850.5 c 128,-1,2
 184 864 184 864 204 864 c 0,3,4
 210 864 210 864 216 862 c 0,5,6
 221 860 221 860 226.5 857 c 128,-1,7
 232 854 232 854 237 847 c 2,8,-1
 321 744 l 1,9,-1
 248 744 l 1,10,11
 225 761 225 761 209.5 772.5 c 128,-1,12
 194 784 194 784 185 793.5 c 128,-1,13
 176 803 176 803 172 811 c 128,-1,14
 168 819 168 819 168 828 c 1,15,-1
 168 828 l 1,0,1
EndSplineSet
Validated: 5
EndChar

StartChar: acute.case
Encoding: 65540 -1 150
Width: 287
GlyphClass: 1
Flags: W
LayerCount: 2
Fore
SplineSet
149 744 m 1,0,1
 152 746 152 746 161.5 754 c 128,-1,2
 171 762 171 762 184.5 773.5 c 128,-1,3
 198 785 198 785 213.5 798 c 128,-1,4
 229 811 229 811 243.5 822.5 c 128,-1,5
 258 834 258 834 269 843 c 128,-1,6
 280 852 280 852 285 855 c 0,7,8
 299 864 299 864 311 864 c 0,9,10
 326 864 326 864 336.5 853.5 c 128,-1,11
 347 843 347 843 347 828 c 0,12,13
 347 815 347 815 341 807 c 128,-1,14
 335 799 335 799 328 794 c 0,15,16
 322 790 322 790 307.5 782.5 c 128,-1,17
 293 775 293 775 277 767 c 128,-1,18
 261 759 261 759 247.5 752.5 c 128,-1,19
 234 746 234 746 230 744 c 2,20,-1
 149 744 l 1,21,-1
 149 744 l 1,0,1
EndSplineSet
Validated: 5
EndChar

StartChar: germandbls
Encoding: 223 223 153
Width: 609
GlyphClass: 1
Flags: W
LayerCount: 2
Fore
SplineSet
110 452 m 1,0,1
 118 488 118 488 131 528 c 128,-1,2
 144 568 144 568 172.5 601.5 c 128,-1,3
 201 635 201 635 250 657.5 c 128,-1,4
 299 680 299 680 378 680 c 0,5,6
 418 680 418 680 454 671 c 128,-1,7
 490 662 490 662 516.5 642.5 c 128,-1,8
 543 623 543 623 557.5 594 c 128,-1,9
 572 565 572 565 570 524 c 0,10,11
 569 499 569 499 560 474 c 128,-1,12
 551 449 551 449 534.5 428.5 c 128,-1,13
 518 408 518 408 494.5 393 c 128,-1,14
 471 378 471 378 439 372 c 1,15,16
 468 361 468 361 489.5 346.5 c 128,-1,17
 511 332 511 332 524.5 311 c 128,-1,18
 538 290 538 290 544 262.5 c 128,-1,19
 550 235 550 235 548 197 c 0,20,21
 545 137 545 137 517.5 96 c 128,-1,22
 490 55 490 55 446.5 29.5 c 128,-1,23
 403 4 403 4 349 -5.5 c 128,-1,24
 295 -15 295 -15 239 -12 c 1,25,-1
 233 67 l 1,26,27
 257 64 257 64 280 64 c 0,28,29
 315 64 315 64 345 72 c 128,-1,30
 375 80 375 80 398 96.5 c 128,-1,31
 421 113 421 113 435.5 138.5 c 128,-1,32
 450 164 450 164 453 200 c 0,33,34
 460 271 460 271 417.5 300 c 128,-1,35
 375 329 375 329 289 329 c 1,36,-1
 305 406 l 1,37,38
 343 406 343 406 374.5 413.5 c 128,-1,39
 406 421 406 421 430 434.5 c 128,-1,40
 454 448 454 448 468 468.5 c 128,-1,41
 482 489 482 489 483 514 c 0,42,43
 486 559 486 559 458 584.5 c 128,-1,44
 430 610 430 610 374 610 c 0,45,46
 297 610 297 610 255.5 574 c 128,-1,47
 214 538 214 538 196 452 c 2,48,-1
 100 0 l 1,49,-1
 14 0 l 1,50,-1
 110 452 l 1,51,-1
 110 452 l 1,0,1
EndSplineSet
Validated: 37
EndChar

StartChar: AE
Encoding: 198 198 154
Width: 991
GlyphClass: 1
Flags: W
LayerCount: 2
Fore
SplineSet
-52 0 m 1,0,-1
 577 667 l 1,1,-1
 1032 667 l 1,2,-1
 1015 586 l 1,3,-1
 656 586 l 1,4,-1
 613 383 l 1,5,-1
 879 383 l 1,6,-1
 862 303 l 1,7,-1
 596 303 l 1,8,-1
 549 81 l 1,9,-1
 908 81 l 1,10,-1
 891 0 l 1,11,-1
 435 0 l 1,12,-1
 466 145 l 1,13,-1
 194 145 l 1,14,-1
 60 0 l 1,15,-1
 -52 0 l 1,0,-1
483 226 m 1,16,-1
 548 529 l 1,17,-1
 267 226 l 1,18,-1
 483 226 l 1,16,-1
EndSplineSet
Validated: 1
EndChar

StartChar: florin
Encoding: 402 402 156
Width: 329
GlyphClass: 1
Flags: W
LayerCount: 2
Fore
SplineSet
-56 -90 m 1,0,1
 -46 -92 -46 -92 -38 -93.5 c 128,-1,2
 -30 -95 -30 -95 -22 -95 c 0,3,4
 10 -95 10 -95 22.5 -75.5 c 128,-1,5
 35 -56 35 -56 42 -24 c 2,6,-1
 138 428 l 1,7,-1
 54 428 l 1,8,-1
 69 496 l 1,9,-1
 153 496 l 1,10,-1
 165 555 l 2,11,12
 174 600 174 600 185.5 629.5 c 128,-1,13
 197 659 197 659 215.5 676 c 128,-1,14
 234 693 234 693 262.5 699.5 c 128,-1,15
 291 706 291 706 335 706 c 2,16,-1
 384 706 l 1,17,-1
 368 635 l 1,18,-1
 328 635 l 2,19,20
 299 635 299 635 280 621.5 c 128,-1,21
 261 608 261 608 253 570 c 2,22,-1
 237 496 l 1,23,-1
 339 496 l 1,24,-1
 325 428 l 1,25,-1
 224 428 l 1,26,-1
 125 -38 l 2,27,28
 111 -107 111 -107 81.5 -140 c 128,-1,29
 52 -173 52 -173 -6 -173 c 0,30,31
 -21 -173 -21 -173 -37 -171 c 128,-1,32
 -53 -169 -53 -169 -72 -165 c 1,33,-1
 -56 -90 l 1,34,-1
 -56 -90 l 1,0,1
EndSplineSet
Validated: 5
EndChar

StartChar: integral
Encoding: 8747 8747 157
Width: 306
GlyphClass: 1
Flags: W
LayerCount: 2
Fore
SplineSet
-31 -111 m 1,0,1
 -31 -91 -31 -91 -16.5 -76 c 128,-1,2
 -2 -61 -2 -61 19 -61 c 0,3,4
 41 -61 41 -61 54.5 -76.5 c 128,-1,5
 68 -92 68 -92 68 -112 c 0,6,7
 68 -122 68 -122 66 -127 c 1,8,9
 76 -127 76 -127 85 -117 c 0,10,11
 92 -109 92 -109 97.5 -89 c 128,-1,12
 103 -69 103 -69 103 -31 c 2,13,-1
 103 464 l 2,14,15
 103 533 103 533 115.5 576 c 128,-1,16
 128 619 128 619 147 642 c 128,-1,17
 166 665 166 665 190 673 c 128,-1,18
 214 681 214 681 236 681 c 0,19,20
 269 681 269 681 295 667.5 c 128,-1,21
 321 654 321 654 321 619 c 0,22,23
 321 598 321 598 306.5 583.5 c 128,-1,24
 292 569 292 569 271 569 c 0,25,26
 249 569 249 569 235 584 c 128,-1,27
 221 599 221 599 221 619 c 0,28,29
 221 628 221 628 224 635 c 1,30,31
 214 635 214 635 206 625 c 0,32,33
 198 616 198 616 192.5 596 c 128,-1,34
 187 576 187 576 187 538 c 2,35,-1
 187 44 l 2,36,37
 187 -26 187 -26 174.5 -68.5 c 128,-1,38
 162 -111 162 -111 143 -134.5 c 128,-1,39
 124 -158 124 -158 100.5 -165.5 c 128,-1,40
 77 -173 77 -173 54 -173 c 0,41,42
 21 -173 21 -173 -5 -159.5 c 128,-1,43
 -31 -146 -31 -146 -31 -111 c 1,44,-1
 -31 -111 l 1,0,1
EndSplineSet
Validated: 5
EndChar

StartChar: approxequal
Encoding: 8776 8776 158
Width: 605
GlyphClass: 1
Flags: W
LayerCount: 2
Fore
SplineSet
57 309 m 1,0,1
 69 355 69 355 105 383 c 128,-1,2
 141 411 141 411 196 411 c 0,3,4
 227 411 227 411 255 402.5 c 128,-1,5
 283 394 283 394 307.5 383.5 c 128,-1,6
 332 373 332 373 354.5 364.5 c 128,-1,7
 377 356 377 356 396 356 c 0,8,9
 419 356 419 356 436 369 c 128,-1,10
 453 382 453 382 458 407 c 1,11,-1
 532 385 l 1,12,13
 521 339 521 339 485.5 311 c 128,-1,14
 450 283 450 283 396 283 c 0,15,16
 369 283 369 283 343 291.5 c 128,-1,17
 317 300 317 300 291.5 310 c 128,-1,18
 266 320 266 320 242.5 328.5 c 128,-1,19
 219 337 219 337 196 337 c 0,20,21
 171 337 171 337 154 324.5 c 128,-1,22
 137 312 137 312 132 287 c 1,23,-1
 57 309 l 1,24,-1
 57 309 l 1,0,1
194 225 m 1,25,26
 225 225 225 225 253 216.5 c 128,-1,27
 281 208 281 208 306 197.5 c 128,-1,28
 331 187 331 187 353 178.5 c 128,-1,29
 375 170 375 170 395 170 c 0,30,31
 418 170 418 170 435.5 182.5 c 128,-1,32
 453 195 453 195 458 221 c 1,33,-1
 532 199 l 1,34,35
 521 153 521 153 485.5 125 c 128,-1,36
 450 97 450 97 396 97 c 0,37,38
 369 97 369 97 343 105.5 c 128,-1,39
 317 114 317 114 291.5 124 c 128,-1,40
 266 134 266 134 242.5 142.5 c 128,-1,41
 219 151 219 151 196 151 c 0,42,43
 171 151 171 151 154 138.5 c 128,-1,44
 137 126 137 126 132 101 c 1,45,-1
 57 123 l 1,46,47
 68 169 68 169 104 197 c 128,-1,48
 140 225 140 225 194 225 c 1,49,-1
 194 225 l 1,25,26
EndSplineSet
Validated: 5
EndChar

StartChar: notequal
Encoding: 8800 8800 159
Width: 658
GlyphClass: 1
Flags: W
LayerCount: 2
Fore
SplineSet
238 200 m 1,0,-1
 312 307 l 1,1,-1
 73 307 l 1,2,-1
 73 387 l 1,3,-1
 368 387 l 1,4,-1
 445 496 l 1,5,-1
 544 496 l 1,6,-1
 468 387 l 1,7,-1
 569 387 l 1,8,-1
 569 307 l 1,9,-1
 412 307 l 1,10,-1
 337 200 l 1,11,-1
 569 200 l 1,12,-1
 569 121 l 1,13,-1
 282 121 l 1,14,-1
 197 0 l 1,15,-1
 97 0 l 1,16,-1
 182 121 l 1,17,-1
 73 121 l 1,18,-1
 73 200 l 1,19,-1
 238 200 l 1,0,-1
EndSplineSet
Validated: 1
EndChar

StartChar: lessequal
Encoding: 8804 8804 160
Width: 651
GlyphClass: 1
Flags: W
LayerCount: 2
Fore
SplineSet
63 267 m 1,0,-1
 63 337 l 1,1,-1
 536 505 l 1,2,-1
 536 414 l 1,3,-1
 168 302 l 1,4,-1
 536 190 l 1,5,-1
 536 100 l 1,6,-1
 63 267 l 1,0,-1
63 80 m 1,7,-1
 536 80 l 1,8,-1
 536 0 l 1,9,-1
 63 0 l 1,10,-1
 63 80 l 1,7,-1
EndSplineSet
Validated: 1
EndChar

StartChar: greaterequal
Encoding: 8805 8805 161
Width: 686
GlyphClass: 1
Flags: W
LayerCount: 2
Fore
SplineSet
98 505 m 1,0,-1
 571 337 l 1,1,-1
 571 267 l 1,2,-1
 98 100 l 1,3,-1
 98 190 l 1,4,-1
 466 302 l 1,5,-1
 98 414 l 1,6,-1
 98 505 l 1,0,-1
98 0 m 1,7,-1
 98 80 l 1,8,-1
 571 80 l 1,9,-1
 571 0 l 1,10,-1
 98 0 l 1,7,-1
EndSplineSet
Validated: 1
EndChar

StartChar: lozenge
Encoding: 9674 9674 162
Width: 561
GlyphClass: 1
Flags: W
LayerCount: 2
Fore
SplineSet
58 315 m 1,0,-1
 286 703 l 1,1,-1
 513 315 l 1,2,-1
 286 -73 l 1,3,-1
 58 315 l 1,0,-1
426 315 m 1,4,-1
 286 554 l 1,5,-1
 145 315 l 1,6,-1
 286 76 l 1,7,-1
 426 315 l 1,4,-1
EndSplineSet
Validated: 1
EndChar

StartChar: summation
Encoding: 8721 8721 163
Width: 763
GlyphClass: 1
Flags: W
LayerCount: 2
Fore
SplineSet
604 668 m 1,0,-1
 604 587 l 1,1,-1
 224 587 l 1,2,-1
 469 254 l 1,3,-1
 224 -80 l 1,4,-1
 604 -80 l 1,5,-1
 604 -161 l 1,6,-1
 123 -161 l 1,7,-1
 123 -80 l 1,8,-1
 369 254 l 1,9,-1
 123 587 l 1,10,-1
 123 668 l 1,11,-1
 604 668 l 1,0,-1
EndSplineSet
Validated: 1
EndChar

StartChar: minus
Encoding: 8722 8722 164
Width: 619
GlyphClass: 1
Flags: W
LayerCount: 2
Fore
SplineSet
42 288 m 1,0,-1
 538 288 l 1,1,-1
 538 209 l 1,2,-1
 42 209 l 1,3,-1
 42 288 l 1,0,-1
EndSplineSet
Validated: 1
EndChar

StartChar: uni2215
Encoding: 8725 8725 165
Width: 444
GlyphClass: 1
Flags: W
LayerCount: 2
Fore
SplineSet
421 668 m 1,0,-1
 509 668 l 1,1,-1
 41 0 l 1,2,-1
 -47 0 l 1,3,-1
 421 668 l 1,0,-1
EndSplineSet
Validated: 1
EndChar

StartChar: uni2219
Encoding: 8729 8729 166
Width: 237
GlyphClass: 1
Flags: W
LayerCount: 2
Fore
SplineSet
46 255 m 1,0,1
 46 282 46 282 65 301 c 128,-1,2
 84 320 84 320 111 320 c 0,3,4
 137 320 137 320 156 301 c 128,-1,5
 175 282 175 282 175 256 c 256,6,7
 175 230 175 230 156 210.5 c 128,-1,8
 137 191 137 191 111 191 c 0,9,10
 81 191 81 191 63.5 211 c 128,-1,11
 46 231 46 231 46 255 c 1,12,-1
 46 255 l 1,0,1
EndSplineSet
Validated: 5
EndChar

StartChar: radical
Encoding: 8730 8730 167
Width: 513
GlyphClass: 1
Flags: W
LayerCount: 2
Fore
SplineSet
145 145 m 1,0,-1
 39 145 l 1,1,-1
 39 225 l 1,2,-1
 201 225 l 1,3,-1
 304 -37 l 1,4,-1
 427 669 l 1,5,-1
 515 669 l 1,6,-1
 364 -161 l 1,7,-1
 265 -161 l 1,8,-1
 145 145 l 1,0,-1
EndSplineSet
Validated: 1
EndChar

StartChar: infinity
Encoding: 8734 8734 168
Width: 780
GlyphClass: 1
Flags: W
LayerCount: 2
Fore
SplineSet
215 406 m 1,0,1
 269 406 269 406 310 379 c 128,-1,2
 351 352 351 352 383 317 c 1,3,4
 399 335 399 335 417 351 c 128,-1,5
 435 367 435 367 455.5 379 c 128,-1,6
 476 391 476 391 499.5 398.5 c 128,-1,7
 523 406 523 406 550 406 c 0,8,9
 587 406 587 406 617.5 395 c 128,-1,10
 648 384 648 384 670 364 c 128,-1,11
 692 344 692 344 704 316.5 c 128,-1,12
 716 289 716 289 716 256 c 256,13,14
 716 223 716 223 704.5 195 c 128,-1,15
 693 167 693 167 672 146.5 c 128,-1,16
 651 126 651 126 621.5 115 c 128,-1,17
 592 104 592 104 556 104 c 0,18,19
 528 104 528 104 504 111.5 c 128,-1,20
 480 119 480 119 458.5 132 c 128,-1,21
 437 145 437 145 418.5 162 c 128,-1,22
 400 179 400 179 383 198 c 1,23,24
 366 179 366 179 347 162 c 128,-1,25
 328 145 328 145 306.5 132 c 128,-1,26
 285 119 285 119 261 111.5 c 128,-1,27
 237 104 237 104 209 104 c 0,28,29
 173 104 173 104 143.5 115 c 128,-1,30
 114 126 114 126 93 146.5 c 128,-1,31
 72 167 72 167 60.5 195 c 128,-1,32
 49 223 49 223 49 256 c 256,33,34
 49 289 49 289 61 316.5 c 128,-1,35
 73 344 73 344 95 364 c 128,-1,36
 117 384 117 384 147.5 395 c 128,-1,37
 178 406 178 406 215 406 c 1,38,-1
 215 406 l 1,0,1
130 256 m 1,39,40
 130 224 130 224 153.5 202 c 128,-1,41
 177 180 177 180 213 180 c 0,42,43
 245 180 245 180 272.5 197 c 128,-1,44
 300 214 300 214 335 256 c 1,45,46
 308 288 308 288 280.5 309 c 128,-1,47
 253 330 253 330 216 330 c 256,48,49
 179 330 179 330 154.5 310 c 128,-1,50
 130 290 130 290 130 256 c 1,51,-1
 130 256 l 1,39,40
431 256 m 1,52,53
 466 214 466 214 493 197 c 128,-1,54
 520 180 520 180 552 180 c 0,55,56
 588 180 588 180 611.5 202 c 128,-1,57
 635 224 635 224 635 256 c 0,58,59
 635 290 635 290 610.5 310 c 128,-1,60
 586 330 586 330 549 330 c 0,61,62
 513 330 513 330 485.5 309 c 128,-1,63
 458 288 458 288 431 256 c 1,64,-1
 431 256 l 1,52,53
EndSplineSet
Validated: 5
EndChar

StartChar: uni03A9
Encoding: 937 937 169
Width: 776
GlyphClass: 1
Flags: W
LayerCount: 2
Fore
SplineSet
77 0 m 1,0,-1
 77 81 l 1,1,-1
 228 81 l 1,2,-1
 228 130 l 1,3,4
 194 149 194 149 166.5 175.5 c 128,-1,5
 139 202 139 202 119 235 c 128,-1,6
 99 268 99 268 88 306 c 128,-1,7
 77 344 77 344 77 385 c 0,8,9
 77 446 77 446 100 500 c 128,-1,10
 123 554 123 554 163 594 c 128,-1,11
 203 634 203 634 256 657 c 128,-1,12
 309 680 309 680 370 680 c 256,13,14
 431 680 431 680 484.5 657 c 128,-1,15
 538 634 538 634 578 594 c 128,-1,16
 618 554 618 554 641 500 c 128,-1,17
 664 446 664 446 664 385 c 0,18,19
 664 344 664 344 653 306 c 128,-1,20
 642 268 642 268 622 235 c 128,-1,21
 602 202 602 202 574.5 175.5 c 128,-1,22
 547 149 547 149 513 130 c 1,23,-1
 513 81 l 1,24,-1
 664 81 l 1,25,-1
 664 0 l 1,26,-1
 428 0 l 1,27,-1
 428 173 l 1,28,29
 463 182 463 182 493 202.5 c 128,-1,30
 523 223 523 223 545 250.5 c 128,-1,31
 567 278 567 278 579 312.5 c 128,-1,32
 591 347 591 347 591 385 c 0,33,34
 591 431 591 431 573.5 471 c 128,-1,35
 556 511 556 511 526 541 c 128,-1,36
 496 571 496 571 456 588.5 c 128,-1,37
 416 606 416 606 370 606 c 0,38,39
 325 606 325 606 285 588.5 c 128,-1,40
 245 571 245 571 215 541 c 128,-1,41
 185 511 185 511 167.5 471 c 128,-1,42
 150 431 150 431 150 385 c 0,43,44
 150 347 150 347 162.5 312.5 c 128,-1,45
 175 278 175 278 196.5 250.5 c 128,-1,46
 218 223 218 223 248 202.5 c 128,-1,47
 278 182 278 182 313 173 c 1,48,-1
 313 0 l 1,49,-1
 77 0 l 1,50,-1
 77 0 l 1,0,-1
EndSplineSet
Validated: 5
EndChar

StartChar: estimated
Encoding: 8494 8494 170
Width: 628
GlyphClass: 1
Flags: W
LayerCount: 2
Fore
SplineSet
50 256 m 1,0,1
 50 300 50 300 68.5 344.5 c 128,-1,2
 87 389 87 389 121 424.5 c 128,-1,3
 155 460 155 460 202.5 482 c 128,-1,4
 250 504 250 504 308 504 c 0,5,6
 361 504 361 504 408 484 c 128,-1,7
 455 464 455 464 490 429 c 128,-1,8
 525 394 525 394 545.5 347.5 c 128,-1,9
 566 301 566 301 566 248 c 1,10,-1
 156 248 l 1,11,-1
 156 78 l 1,12,13
 186 51 186 51 224.5 35.5 c 128,-1,14
 263 20 263 20 308 20 c 0,15,16
 359 20 359 20 403 41 c 128,-1,17
 447 62 447 62 478 97 c 1,18,-1
 511 87 l 1,19,20
 476 42 476 42 423.5 15 c 128,-1,21
 371 -12 371 -12 308 -12 c 0,22,23
 262 -12 262 -12 216 5 c 128,-1,24
 170 22 170 22 133 55.5 c 128,-1,25
 96 89 96 89 73 139.5 c 128,-1,26
 50 190 50 190 50 256 c 1,27,-1
 50 256 l 1,0,1
460 279 m 1,28,-1
 460 413 l 1,29,30
 430 441 430 441 391 456.5 c 128,-1,31
 352 472 352 472 308 472 c 0,32,33
 263 472 263 472 224.5 456.5 c 128,-1,34
 186 441 186 441 156 413 c 1,35,-1
 156 279 l 1,36,-1
 460 279 l 1,37,-1
 460 279 l 1,28,-1
EndSplineSet
Validated: 5
EndChar

StartChar: partialdiff
Encoding: 8706 8706 171
Width: 595
GlyphClass: 1
Flags: W
LayerCount: 2
Fore
SplineSet
51 246 m 1,0,1
 51 314 51 314 72 362.5 c 128,-1,2
 93 411 93 411 127 442.5 c 128,-1,3
 161 474 161 474 203.5 489 c 128,-1,4
 246 504 246 504 289 504 c 0,5,6
 304 504 304 504 322 501 c 128,-1,7
 340 498 340 498 358 492 c 128,-1,8
 376 486 376 486 392.5 475.5 c 128,-1,9
 409 465 409 465 421 450 c 1,10,11
 406 498 406 498 379 527.5 c 128,-1,12
 352 557 352 557 315.5 573 c 128,-1,13
 279 589 279 589 234.5 594 c 128,-1,14
 190 599 190 599 140 598 c 1,15,-1
 140 680 l 1,16,17
 170 680 170 680 210.5 678.5 c 128,-1,18
 251 677 251 677 294 666 c 128,-1,19
 337 655 337 655 379 631 c 128,-1,20
 421 607 421 607 454 562 c 128,-1,21
 487 517 487 517 507.5 447.5 c 128,-1,22
 528 378 528 378 528 277 c 0,23,24
 528 219 528 219 515 166.5 c 128,-1,25
 502 114 502 114 473.5 74.5 c 128,-1,26
 445 35 445 35 399.5 11.5 c 128,-1,27
 354 -12 354 -12 289 -12 c 0,28,29
 246 -12 246 -12 203.5 3 c 128,-1,30
 161 18 161 18 127 49.5 c 128,-1,31
 93 81 93 81 72 130 c 128,-1,32
 51 179 51 179 51 246 c 1,33,-1
 51 246 l 1,0,1
289 61 m 1,34,35
 316 61 316 61 342.5 72 c 128,-1,36
 369 83 369 83 390 105.5 c 128,-1,37
 411 128 411 128 424 163 c 128,-1,38
 437 198 437 198 437 246 c 256,39,40
 437 294 437 294 424 329 c 128,-1,41
 411 364 411 364 390 386.5 c 128,-1,42
 369 409 369 409 342.5 419.5 c 128,-1,43
 316 430 316 430 289 430 c 256,44,45
 262 430 262 430 235.5 419.5 c 128,-1,46
 209 409 209 409 187.5 386.5 c 128,-1,47
 166 364 166 364 153 329 c 128,-1,48
 140 294 140 294 140 246 c 256,49,50
 140 198 140 198 153 163 c 128,-1,51
 166 128 166 128 187.5 105.5 c 128,-1,52
 209 83 209 83 235.5 72 c 128,-1,53
 262 61 262 61 289 61 c 1,54,-1
 289 61 l 1,34,35
EndSplineSet
Validated: 37
EndChar

StartChar: uni0394
Encoding: 916 916 172
Width: 759
GlyphClass: 1
Flags: W
LayerCount: 2
Fore
SplineSet
317 680 m 1,0,-1
 644 0 l 1,1,-1
 -9 0 l 1,2,-1
 317 680 l 1,0,-1
518 78 m 1,3,-1
 317 498 l 1,4,-1
 116 78 l 1,5,-1
 518 78 l 1,3,-1
EndSplineSet
Validated: 1
EndChar

StartChar: product
Encoding: 8719 8719 173
Width: 761
GlyphClass: 1
Flags: W
LayerCount: 2
Fore
SplineSet
133 -161 m 1,0,-1
 133 668 l 1,1,-1
 612 668 l 1,2,-1
 612 -161 l 1,3,-1
 530 -161 l 1,4,-1
 530 587 l 1,5,-1
 214 587 l 1,6,-1
 214 -161 l 1,7,-1
 133 -161 l 1,0,-1
EndSplineSet
Validated: 1
EndChar

StartChar: pi
Encoding: 960 960 174
Width: 591
GlyphClass: 1
Flags: W
LayerCount: 2
Fore
SplineSet
41 0 m 1,0,-1
 129 416 l 1,1,-1
 46 416 l 1,2,-1
 63 496 l 1,3,-1
 594 496 l 1,4,-1
 576 416 l 1,5,-1
 492 416 l 1,6,-1
 434 140 l 2,7,8
 431 123 431 123 428.5 111 c 128,-1,9
 426 99 426 99 429 91 c 128,-1,10
 432 83 432 83 442 79 c 128,-1,11
 452 75 452 75 472 75 c 2,12,-1
 504 75 l 1,13,-1
 488 0 l 1,14,-1
 437 0 l 2,15,16
 400 0 400 0 378.5 7 c 128,-1,17
 357 14 357 14 347 29.5 c 128,-1,18
 337 45 337 45 337.5 68.5 c 128,-1,19
 338 92 338 92 345 125 c 2,20,-1
 406 416 l 1,21,-1
 212 416 l 1,22,-1
 124 0 l 1,23,-1
 41 0 l 1,24,-1
 41 0 l 1,0,-1
EndSplineSet
Validated: 37
EndChar

StartChar: hungarumlaut
Encoding: 733 733 175
Width: 394
GlyphClass: 1
Flags: W
LayerCount: 2
Fore
SplineSet
370 699 m 1,0,1
 382 708 382 708 396 708 c 0,2,3
 413 708 413 708 423 696 c 256,4,5
 433 684 433 684 432.5 668.5 c 128,-1,6
 432 653 432 653 420 642 c 0,7,8
 412 635 412 635 396.5 623.5 c 128,-1,9
 381 612 381 612 364 600 c 0,10,11
 344 587 344 587 322 572 c 1,12,-1
 249 572 l 1,13,14
 277 603 277 603 302 629 c 0,15,16
 322 652 322 652 342 672.5 c 128,-1,17
 362 693 362 693 370 699 c 1,18,-1
 370 699 l 1,0,1
103 572 m 1,19,20
 132 603 132 603 156 629 c 0,21,22
 177 651 177 651 197 671.5 c 128,-1,23
 217 692 217 692 224 699 c 0,24,25
 236 708 236 708 250 708 c 0,26,27
 268 708 268 708 278 696 c 0,28,29
 289 684 289 684 287.5 668.5 c 128,-1,30
 286 653 286 653 275 642 c 0,31,32
 267 635 267 635 251.5 623.5 c 128,-1,33
 236 612 236 612 219 600 c 0,34,35
 199 587 199 587 177 572 c 1,36,-1
 103 572 l 1,37,-1
 103 572 l 1,19,20
EndSplineSet
Validated: 5
Substitution2: "'case' Case-Sensitive Forms lookup 1 subtable" hungarumlaut.case
EndChar

StartChar: tilde
Encoding: 732 732 176
Width: 420
GlyphClass: 1
Flags: W
LayerCount: 2
Fore
SplineSet
90 577 m 1,0,1
 110 631 110 631 144 655.5 c 128,-1,2
 178 680 178 680 218 680 c 0,3,4
 243 680 243 680 260 673.5 c 128,-1,5
 277 667 277 667 291 659 c 128,-1,6
 305 651 305 651 318 644.5 c 128,-1,7
 331 638 331 638 346 638 c 0,8,9
 365 638 365 638 376 647.5 c 128,-1,10
 387 657 387 657 397 667 c 0,11,12
 410 680 410 680 424 680 c 0,13,14
 441 680 441 680 450.5 664.5 c 128,-1,15
 460 649 460 649 449 632 c 0,16,17
 436 612 436 612 412 593.5 c 128,-1,18
 388 575 388 575 346 575 c 0,19,20
 324 575 324 575 308.5 581.5 c 128,-1,21
 293 588 293 588 279 596 c 128,-1,22
 265 604 265 604 251 610.5 c 128,-1,23
 237 617 237 617 217 617 c 0,24,25
 194 617 194 617 178.5 606.5 c 128,-1,26
 163 596 163 596 155 577 c 1,27,-1
 90 577 l 1,28,-1
 90 577 l 1,0,1
EndSplineSet
Validated: 37
Substitution2: "'case' Case-Sensitive Forms lookup 1 subtable" tilde.case
EndChar

StartChar: endash
Encoding: 8211 8211 177
Width: 497
GlyphClass: 1
Flags: W
LayerCount: 2
Fore
SplineSet
40 287 m 1,0,-1
 438 287 l 1,1,-1
 438 208 l 1,2,-1
 40 208 l 1,3,-1
 40 287 l 1,0,-1
EndSplineSet
Validated: 1
EndChar

StartChar: emdash
Encoding: 8212 8212 178
Width: 817
GlyphClass: 1
Flags: W
LayerCount: 2
Fore
SplineSet
40 287 m 1,0,-1
 758 287 l 1,1,-1
 758 208 l 1,2,-1
 40 208 l 1,3,-1
 40 287 l 1,0,-1
EndSplineSet
Validated: 1
EndChar

StartChar: trademark
Encoding: 8482 8482 179
Width: 928
GlyphClass: 1
Flags: W
LayerCount: 2
Fore
SplineSet
133 668 m 1,0,-1
 436 668 l 1,1,-1
 436 608 l 1,2,-1
 318 608 l 1,3,-1
 318 292 l 1,4,-1
 251 292 l 1,5,-1
 251 608 l 1,6,-1
 133 608 l 1,7,-1
 133 668 l 1,0,-1
581 668 m 1,8,-1
 674 384 l 1,9,-1
 767 668 l 1,10,-1
 875 668 l 1,11,-1
 875 292 l 1,12,-1
 808 292 l 1,13,-1
 808 571 l 1,14,-1
 710 292 l 1,15,-1
 638 292 l 1,16,-1
 540 571 l 1,17,-1
 540 292 l 1,18,-1
 473 292 l 1,19,-1
 473 668 l 1,20,-1
 581 668 l 1,8,-1
EndSplineSet
Validated: 1
EndChar

StartChar: dotlessi
Encoding: 305 305 180
Width: 270
GlyphClass: 1
Flags: W
LayerCount: 2
Fore
SplineSet
137 428 m 1,0,-1
 57 428 l 1,1,-1
 71 496 l 1,2,-1
 237 496 l 1,3,-1
 132 0 l 1,4,-1
 46 0 l 1,5,-1
 137 428 l 1,0,-1
EndSplineSet
Validated: 1
EndChar

StartChar: Euro
Encoding: 8364 8364 181
Width: 701
GlyphClass: 1
Flags: W
LayerCount: 2
Fore
SplineSet
43 291 m 1,0,-1
 116 291 l 1,1,2
 119 333 119 333 129 376 c 1,3,-1
 33 376 l 1,4,-1
 72 427 l 1,5,-1
 144 427 l 1,6,7
 164 483 164 483 194.5 529.5 c 128,-1,8
 225 576 225 576 266 609 c 128,-1,9
 307 642 307 642 357.5 660.5 c 128,-1,10
 408 679 408 679 466 679 c 0,11,12
 549 679 549 679 607 642 c 128,-1,13
 665 605 665 605 688 528 c 1,14,-1
 603 499 l 1,15,16
 587 549 587 549 548.5 574.5 c 128,-1,17
 510 600 510 600 456 600 c 0,18,19
 384 600 384 600 327 554 c 128,-1,20
 270 508 270 508 238 427 c 1,21,-1
 474 427 l 1,22,-1
 435 376 l 1,23,-1
 221 376 l 1,24,25
 215 353 215 353 212 333.5 c 128,-1,26
 209 314 209 314 207 291 c 1,27,-1
 370 291 l 1,28,-1
 332 240 l 1,29,-1
 208 240 l 1,30,31
 216 162 216 162 260 114.5 c 128,-1,32
 304 67 304 67 375 67 c 0,33,34
 437 67 437 67 479 91 c 128,-1,35
 521 115 521 115 556 169 c 1,36,-1
 631 139 l 1,37,38
 586 64 586 64 517.5 26 c 128,-1,39
 449 -12 449 -12 364 -12 c 0,40,41
 300 -12 300 -12 254 9 c 128,-1,42
 208 30 208 30 178.5 65 c 128,-1,43
 149 100 149 100 134 145.5 c 128,-1,44
 119 191 119 191 116 240 c 1,45,-1
 4 240 l 1,46,-1
 43 291 l 1,47,-1
 43 291 l 1,0,-1
EndSplineSet
Validated: 5
EndChar

StartChar: uni2113
Encoding: 8467 8467 182
Width: 451
GlyphClass: 1
Flags: W
LayerCount: 2
Fore
SplineSet
20 138 m 1,0,-1
 39 227 l 1,1,-1
 117 278 l 1,2,-1
 166 506 l 2,3,4
 175 547 175 547 187.5 579.5 c 128,-1,5
 200 612 200 612 219 634 c 128,-1,6
 238 656 238 656 265 667.5 c 128,-1,7
 292 679 292 679 331 679 c 0,8,9
 358 679 358 679 380.5 671 c 128,-1,10
 403 663 403 663 419 646.5 c 128,-1,11
 435 630 435 630 442 605.5 c 128,-1,12
 449 581 449 581 446 547 c 0,13,14
 442 501 442 501 422.5 461.5 c 128,-1,15
 403 422 403 422 371 386.5 c 128,-1,16
 339 351 339 351 295 318 c 128,-1,17
 251 285 251 285 198 251 c 1,18,-1
 177 151 l 2,19,20
 171 124 171 124 172.5 106.5 c 128,-1,21
 174 89 174 89 181 79 c 128,-1,22
 188 69 188 69 199.5 65 c 128,-1,23
 211 61 211 61 225 61 c 0,24,25
 251 61 251 61 275 72 c 128,-1,26
 299 83 299 83 321 100 c 1,27,-1
 345 42 l 1,28,29
 319 20 319 20 280 4 c 128,-1,30
 241 -12 241 -12 199 -12 c 0,31,32
 123 -12 123 -12 97 27 c 128,-1,33
 71 66 71 66 91 156 c 2,34,-1
 98 188 l 1,35,-1
 20 138 l 1,36,-1
 20 138 l 1,0,-1
218 343 m 1,37,38
 278 380 278 380 313.5 428.5 c 128,-1,39
 349 477 349 477 363 536 c 0,40,41
 373 576 373 576 361.5 592.5 c 128,-1,42
 350 609 350 609 326 609 c 0,43,44
 298 609 298 609 282 589.5 c 128,-1,45
 266 570 266 570 255 517 c 2,46,-1
 218 343 l 1,47,-1
 218 343 l 1,37,38
EndSplineSet
Validated: 37
EndChar

StartChar: Lslash
Encoding: 321 321 183
Width: 573
GlyphClass: 1
Flags: W
LayerCount: 2
Fore
SplineSet
103 266 m 1,0,-1
 4 214 l 1,1,-1
 19 287 l 1,2,-1
 118 339 l 1,3,-1
 188 668 l 1,4,-1
 284 668 l 1,5,-1
 227 396 l 1,6,-1
 428 504 l 1,7,-1
 413 431 l 1,8,-1
 211 324 l 1,9,-1
 159 82 l 1,10,-1
 518 82 l 1,11,-1
 501 0 l 1,12,-1
 46 0 l 1,13,-1
 103 266 l 1,0,-1
EndSplineSet
Validated: 1
EndChar

StartChar: lslash
Encoding: 322 322 184
Width: 272
GlyphClass: 1
Flags: W
LayerCount: 2
Fore
SplineSet
2 232 m 1,0,-1
 17 303 l 1,1,-1
 93 342 l 1,2,-1
 162 668 l 1,3,-1
 248 668 l 1,4,-1
 189 393 l 1,5,-1
 290 447 l 1,6,-1
 275 376 l 1,7,-1
 174 323 l 1,8,-1
 135 140 l 2,9,10
 128 105 128 105 132.5 90 c 128,-1,11
 137 75 137 75 173 75 c 2,12,-1
 211 75 l 1,13,-1
 195 0 l 1,14,-1
 139 0 l 2,15,16
 100 0 100 0 78 7.5 c 128,-1,17
 56 15 56 15 47 31 c 128,-1,18
 38 47 38 47 39 70.5 c 128,-1,19
 40 94 40 94 46 125 c 2,20,-1
 78 272 l 1,21,-1
 2 232 l 1,22,-1
 2 232 l 1,0,-1
EndSplineSet
Validated: 37
EndChar

StartChar: oslash
Encoding: 248 248 185
Width: 547
GlyphClass: 1
Flags: W
LayerCount: 2
Fore
SplineSet
-11 26 m 1,0,-1
 51 84 l 1,1,2
 17 150 17 150 29 246 c 0,3,4
 39 315 39 315 66.5 364 c 128,-1,5
 94 413 94 413 132.5 444 c 128,-1,6
 171 475 171 475 215 489.5 c 128,-1,7
 259 504 259 504 302 504 c 0,8,9
 341 504 341 504 377.5 491 c 128,-1,10
 414 478 414 478 442 451 c 1,11,-1
 503 509 l 1,12,-1
 538 472 l 1,13,-1
 474 411 l 1,14,15
 492 379 492 379 499 336 c 128,-1,16
 506 293 506 293 496 236 c 0,17,18
 490 201 490 201 472 158 c 128,-1,19
 454 115 454 115 422 77 c 128,-1,20
 390 39 390 39 342.5 13.5 c 128,-1,21
 295 -12 295 -12 230 -12 c 0,22,23
 181 -12 181 -12 144 2.5 c 128,-1,24
 107 17 107 17 81 43 c 1,25,-1
 24 -11 l 1,26,-1
 -11 26 l 1,27,-1
 -11 26 l 1,0,-1
144 102 m 1,28,29
 175 62 175 62 237 62 c 0,30,31
 304 62 304 62 348.5 112 c 128,-1,32
 393 162 393 162 407 246 c 0,33,34
 412 278 412 278 411.5 303 c 128,-1,35
 411 328 411 328 406 348 c 1,36,-1
 144 102 l 1,37,-1
 144 102 l 1,28,29
120 149 m 1,38,-1
 383 395 l 1,39,40
 366 414 366 414 342 422 c 128,-1,41
 318 430 318 430 289 430 c 0,42,43
 262 430 262 430 235.5 421.5 c 128,-1,44
 209 413 209 413 186 392 c 128,-1,45
 163 371 163 371 145.5 335.5 c 128,-1,46
 128 300 128 300 119 246 c 0,47,48
 110 190 110 190 120 149 c 1,49,-1
 120 149 l 1,38,-1
EndSplineSet
Validated: 37
EndChar

StartChar: Oslash
Encoding: 216 216 186
Width: 728
GlyphClass: 1
Flags: W
LayerCount: 2
Fore
SplineSet
6 32 m 1,0,-1
 91 112 l 1,1,2
 67 157 67 157 59 213.5 c 128,-1,3
 51 270 51 270 60 333 c 0,4,5
 71 409 71 409 101.5 472.5 c 128,-1,6
 132 536 132 536 179.5 582 c 128,-1,7
 227 628 227 628 291 653.5 c 128,-1,8
 355 679 355 679 433 679 c 0,9,10
 492 679 492 679 538 660 c 128,-1,11
 584 641 584 641 617 606 c 1,12,-1
 695 679 l 1,13,-1
 730 642 l 1,14,-1
 649 566 l 1,15,16
 678 519 678 519 687.5 460 c 128,-1,17
 697 401 697 401 686 333 c 0,18,19
 676 269 676 269 648.5 207 c 128,-1,20
 621 145 621 145 575.5 96 c 128,-1,21
 530 47 530 47 464.5 17.5 c 128,-1,22
 399 -12 399 -12 313 -12 c 0,23,24
 250 -12 250 -12 201.5 9.5 c 128,-1,25
 153 31 153 31 120 70 c 1,26,-1
 41 -4 l 1,27,-1
 6 32 l 1,28,-1
 6 32 l 1,0,-1
189 134 m 1,29,30
 213 101 213 101 248.5 84 c 128,-1,31
 284 67 284 67 326 67 c 0,32,33
 376 67 376 67 420 85 c 128,-1,34
 464 103 464 103 498.5 137.5 c 128,-1,35
 533 172 533 172 557 221 c 128,-1,36
 581 270 581 270 591 333 c 0,37,38
 599 384 599 384 595 425 c 128,-1,39
 591 466 591 466 577 498 c 1,40,-1
 189 134 l 1,41,-1
 189 134 l 1,29,30
164 181 m 1,42,-1
 549 542 l 1,43,44
 525 571 525 571 491.5 585.5 c 128,-1,45
 458 600 458 600 420 600 c 0,46,47
 363 600 363 600 318.5 579.5 c 128,-1,48
 274 559 274 559 241 523 c 128,-1,49
 208 487 208 487 186.5 438 c 128,-1,50
 165 389 165 389 156 333 c 0,51,52
 148 288 148 288 150.5 250 c 128,-1,53
 153 212 153 212 164 181 c 1,54,-1
 164 181 l 1,42,-1
EndSplineSet
Validated: 37
EndChar

StartChar: Thorn
Encoding: 222 222 187
Width: 586
GlyphClass: 1
Flags: W
LayerCount: 2
Fore
SplineSet
154 659 m 1,0,-1
 240 659 l 1,1,-1
 210 519 l 1,2,-1
 337 519 l 2,3,4
 396 519 396 519 442 509 c 128,-1,5
 488 499 488 499 517.5 476 c 128,-1,6
 547 453 547 453 557 414 c 128,-1,7
 567 375 567 375 553 318 c 0,8,9
 541 271 541 271 517.5 239.5 c 128,-1,10
 494 208 494 208 458 189.5 c 128,-1,11
 422 171 422 171 372.5 163 c 128,-1,12
 323 155 323 155 260 155 c 2,13,-1
 133 155 l 1,14,-1
 98 -8 l 1,15,-1
 12 -8 l 1,16,-1
 154 659 l 1,17,-1
 154 659 l 1,0,-1
150 236 m 1,18,-1
 286 236 l 2,19,20
 329 236 329 236 359 243 c 128,-1,21
 389 250 389 250 408.5 261.5 c 128,-1,22
 428 273 428 273 438.5 288.5 c 128,-1,23
 449 304 449 304 453 321 c 0,24,25
 461 352 461 352 459.5 374 c 128,-1,26
 458 396 458 396 444 410.5 c 128,-1,27
 430 425 430 425 402 431.5 c 128,-1,28
 374 438 374 438 328 438 c 2,29,-1
 193 438 l 1,30,-1
 150 236 l 1,31,-1
 150 236 l 1,18,-1
EndSplineSet
Validated: 37
EndChar

StartChar: ae
Encoding: 230 230 189
Width: 869
GlyphClass: 1
Flags: W
LayerCount: 2
Fore
SplineSet
41 217 m 1,0,1
 58 234 58 234 79.5 248 c 128,-1,2
 101 262 101 262 137 272 c 128,-1,3
 173 282 173 282 228 287 c 128,-1,4
 283 292 283 292 366 292 c 1,5,6
 384 364 384 364 367 399.5 c 128,-1,7
 350 435 350 435 285 435 c 0,8,9
 240 435 240 435 207.5 414.5 c 128,-1,10
 175 394 175 394 159 358 c 1,11,-1
 83 382 l 1,12,13
 109 440 109 440 163 474 c 128,-1,14
 217 508 217 508 293 504 c 0,15,16
 354 501 354 501 391 482.5 c 128,-1,17
 428 464 428 464 445 432 c 1,18,19
 520 504 520 504 636 504 c 0,20,21
 696 504 696 504 738 481 c 128,-1,22
 780 458 780 458 804 419.5 c 128,-1,23
 828 381 828 381 834 330.5 c 128,-1,24
 840 280 840 280 827 225 c 1,25,-1
 442 225 l 1,26,27
 437 178 437 178 447.5 146.5 c 128,-1,28
 458 115 458 115 477.5 96.5 c 128,-1,29
 497 78 497 78 522.5 70 c 128,-1,30
 548 62 548 62 575 62 c 0,31,32
 617 62 617 62 647 75 c 128,-1,33
 677 88 677 88 698 111 c 1,34,-1
 776 87 l 1,35,36
 741 42 741 42 688.5 15 c 128,-1,37
 636 -12 636 -12 564 -12 c 0,38,39
 496 -12 496 -12 450 18.5 c 128,-1,40
 404 49 404 49 381 100 c 1,41,42
 361 69 361 69 334.5 47.5 c 128,-1,43
 308 26 308 26 279.5 12.5 c 128,-1,44
 251 -1 251 -1 221 -6.5 c 128,-1,45
 191 -12 191 -12 164 -12 c 0,46,47
 135 -12 135 -12 111.5 -6.5 c 128,-1,48
 88 -1 88 -1 71 7 c 0,49,50
 36 25 36 25 21 54 c 128,-1,51
 6 83 6 83 5 114 c 128,-1,52
 4 145 4 145 14.5 173 c 128,-1,53
 25 201 25 201 41 217 c 1,54,-1
 41 217 l 1,0,1
174 56 m 1,55,56
 245 57 245 57 293.5 103 c 128,-1,57
 342 149 342 149 358 224 c 1,58,59
 312 224 312 224 268 221.5 c 128,-1,60
 224 219 224 219 189 210 c 128,-1,61
 154 201 154 201 130.5 184.5 c 128,-1,62
 107 168 107 168 101 139 c 0,63,64
 94 107 94 107 111 81.5 c 128,-1,65
 128 56 128 56 174 56 c 1,66,-1
 174 56 l 1,55,56
747 292 m 1,67,68
 750 316 750 316 745 341 c 128,-1,69
 740 366 740 366 725 386.5 c 128,-1,70
 710 407 710 407 685 419.5 c 128,-1,71
 660 432 660 432 624 432 c 0,72,73
 596 432 596 432 568.5 422.5 c 128,-1,74
 541 413 541 413 518.5 395 c 128,-1,75
 496 377 496 377 479 351 c 128,-1,76
 462 325 462 325 455 292 c 1,77,-1
 747 292 l 1,78,-1
 747 292 l 1,67,68
EndSplineSet
Validated: 37
EndChar

StartChar: eth
Encoding: 240 240 190
Width: 570
GlyphClass: 1
Flags: W
LayerCount: 2
Fore
SplineSet
24 219 m 1,0,1
 29 267 29 267 48 308.5 c 128,-1,2
 67 350 67 350 98.5 380 c 128,-1,3
 130 410 130 410 173 427.5 c 128,-1,4
 216 445 216 445 269 445 c 0,5,6
 302 445 302 445 329.5 436 c 128,-1,7
 357 427 357 427 378 412 c 128,-1,8
 399 397 399 397 414 378 c 128,-1,9
 429 359 429 359 436 339 c 1,10,11
 445 417 445 417 433 468.5 c 128,-1,12
 421 520 421 520 393 550 c 1,13,-1
 300 473 l 1,14,-1
 272 509 l 1,15,-1
 356 579 l 1,16,17
 328 594 328 594 294 599.5 c 128,-1,18
 260 605 260 605 220 603 c 1,19,-1
 236 679 l 1,20,21
 293 681 293 681 340 671 c 128,-1,22
 387 661 387 661 424 635 c 1,23,-1
 477 679 l 1,24,-1
 506 643 l 1,25,-1
 459 605 l 1,26,27
 493 568 493 568 510 509.5 c 128,-1,28
 527 451 527 451 525 365 c 0,29,30
 525 340 525 340 520 302.5 c 128,-1,31
 515 265 515 265 503.5 223 c 128,-1,32
 492 181 492 181 471.5 139 c 128,-1,33
 451 97 451 97 418.5 63.5 c 128,-1,34
 386 30 386 30 340 9 c 128,-1,35
 294 -12 294 -12 231 -12 c 0,36,37
 184 -12 184 -12 144 7 c 128,-1,38
 104 26 104 26 76 57.5 c 128,-1,39
 48 89 48 89 34 131 c 128,-1,40
 20 173 20 173 24 219 c 1,41,-1
 24 219 l 1,0,1
241 59 m 1,42,43
 307 59 307 59 348.5 102 c 128,-1,44
 390 145 390 145 398 215 c 0,45,46
 402 252 402 252 394 280.5 c 128,-1,47
 386 309 386 309 369 329 c 128,-1,48
 352 349 352 349 327 359.5 c 128,-1,49
 302 370 302 370 273 370 c 0,50,51
 204 370 204 370 160.5 329.5 c 128,-1,52
 117 289 117 289 108 219 c 0,53,54
 104 189 104 189 110.5 160.5 c 128,-1,55
 117 132 117 132 134.5 109.5 c 128,-1,56
 152 87 152 87 178.5 73 c 128,-1,57
 205 59 205 59 241 59 c 1,58,-1
 241 59 l 1,42,43
EndSplineSet
Validated: 37
EndChar

StartChar: thorn
Encoding: 254 254 191
Width: 558
GlyphClass: 1
Flags: W
LayerCount: 2
Fore
SplineSet
150 668 m 1,0,-1
 236 668 l 1,1,-1
 188 438 l 1,2,3
 213 470 213 470 248.5 487 c 128,-1,4
 284 504 284 504 328 504 c 0,5,6
 368 504 368 504 401.5 490 c 128,-1,7
 435 476 435 476 459 449 c 128,-1,8
 483 422 483 422 496.5 382.5 c 128,-1,9
 510 343 510 343 510 291 c 0,10,11
 510 220 510 220 490 163.5 c 128,-1,12
 470 107 470 107 436 68 c 128,-1,13
 402 29 402 29 358 8.5 c 128,-1,14
 314 -12 314 -12 265 -12 c 0,15,16
 205 -12 205 -12 166.5 19.5 c 128,-1,17
 128 51 128 51 115 94 c 1,18,-1
 60 -161 l 1,19,-1
 -26 -161 l 1,20,-1
 150 668 l 1,21,-1
 150 668 l 1,0,-1
262 60 m 1,22,23
 301 60 301 60 330 82 c 128,-1,24
 359 104 359 104 379 137.5 c 128,-1,25
 399 171 399 171 409 211 c 128,-1,26
 419 251 419 251 419 288 c 0,27,28
 420 363 420 363 388.5 397.5 c 128,-1,29
 357 432 357 432 309 432 c 0,30,31
 265 432 265 432 233 409.5 c 128,-1,32
 201 387 201 387 180.5 354.5 c 128,-1,33
 160 322 160 322 150.5 285 c 128,-1,34
 141 248 141 248 141 218 c 0,35,36
 141 140 141 140 174 100 c 128,-1,37
 207 60 207 60 262 60 c 1,38,-1
 262 60 l 1,22,23
EndSplineSet
Validated: 37
EndChar

StartChar: uni02C9
Encoding: 713 713 192
Width: 382
GlyphClass: 1
Flags: W
LayerCount: 2
Fore
SplineSet
131 661 m 1,0,-1
 407 661 l 1,1,-1
 393 594 l 1,2,-1
 117 594 l 1,3,-1
 131 661 l 1,0,-1
EndSplineSet
Validated: 1
EndChar

StartChar: multiply
Encoding: 215 215 198
Width: 593
GlyphClass: 1
Flags: W
LayerCount: 2
Fore
SplineSet
134 462 m 1,0,-1
 288 308 l 1,1,-1
 442 462 l 1,2,-1
 499 404 l 1,3,-1
 346 250 l 1,4,-1
 499 97 l 1,5,-1
 442 39 l 1,6,-1
 288 193 l 1,7,-1
 134 39 l 1,8,-1
 77 97 l 1,9,-1
 231 250 l 1,10,-1
 77 404 l 1,11,-1
 134 462 l 1,0,-1
EndSplineSet
Validated: 1
EndChar

StartChar: divide
Encoding: 247 247 199
Width: 619
GlyphClass: 1
Flags: W
LayerCount: 2
Fore
SplineSet
235 418 m 1,0,1
 235 445 235 445 254 464 c 128,-1,2
 273 483 273 483 300 483 c 256,3,4
 327 483 327 483 345.5 464 c 128,-1,5
 364 445 364 445 364 418 c 256,6,7
 364 391 364 391 345.5 372.5 c 128,-1,8
 327 354 327 354 300 354 c 256,9,10
 273 354 273 354 254 372.5 c 128,-1,11
 235 391 235 391 235 418 c 1,12,-1
 235 418 l 1,0,1
235 79 m 1,13,14
 235 105 235 105 254 124 c 128,-1,15
 273 143 273 143 300 143 c 256,16,17
 327 143 327 143 345.5 124 c 128,-1,18
 364 105 364 105 364 79 c 0,19,20
 364 52 364 52 345.5 33 c 128,-1,21
 327 14 327 14 300 14 c 256,22,23
 273 14 273 14 254 33 c 128,-1,24
 235 52 235 52 235 79 c 1,25,-1
 235 79 l 1,13,14
52 208 m 1,26,-1
 52 289 l 1,27,-1
 548 289 l 1,28,-1
 548 208 l 1,29,-1
 52 208 l 1,26,-1
EndSplineSet
Validated: 5
EndChar

StartChar: OE
Encoding: 338 338 200
Width: 1076
GlyphClass: 1
Flags: W
LayerCount: 2
Fore
SplineSet
60 334 m 1,0,1
 71 410 71 410 101.5 473.5 c 128,-1,2
 132 537 132 537 179 583 c 128,-1,3
 226 629 226 629 290 654.5 c 128,-1,4
 354 680 354 680 433 680 c 0,5,6
 511 680 511 680 566.5 647 c 128,-1,7
 622 614 622 614 654 557 c 1,8,-1
 678 668 l 1,9,-1
 1117 668 l 1,10,-1
 1100 587 l 1,11,-1
 741 587 l 1,12,-1
 698 384 l 1,13,-1
 963 384 l 1,14,-1
 946 304 l 1,15,-1
 680 304 l 1,16,-1
 633 82 l 1,17,-1
 993 82 l 1,18,-1
 976 0 l 1,19,-1
 536 0 l 1,20,-1
 553 80 l 1,21,22
 511 41 511 41 454 14.5 c 128,-1,23
 397 -12 397 -12 313 -12 c 0,24,25
 243 -12 243 -12 191 15 c 128,-1,26
 139 42 139 42 106.5 89 c 128,-1,27
 74 136 74 136 62 199 c 128,-1,28
 50 262 50 262 60 334 c 1,29,-1
 60 334 l 1,0,1
326 68 m 1,30,31
 376 68 376 68 419.5 86 c 128,-1,32
 463 104 463 104 497.5 138.5 c 128,-1,33
 532 173 532 173 556 222 c 128,-1,34
 580 271 580 271 590 334 c 0,35,36
 601 398 601 398 591.5 448 c 128,-1,37
 582 498 582 498 558 532 c 128,-1,38
 534 566 534 566 498 583.5 c 128,-1,39
 462 601 462 601 420 601 c 0,40,41
 363 601 363 601 318.5 580.5 c 128,-1,42
 274 560 274 560 241 524 c 128,-1,43
 208 488 208 488 186.5 439 c 128,-1,44
 165 390 165 390 156 334 c 0,45,46
 145 270 145 270 154 220 c 128,-1,47
 163 170 163 170 187 136.5 c 128,-1,48
 211 103 211 103 247 85.5 c 128,-1,49
 283 68 283 68 326 68 c 1,50,-1
 326 68 l 1,30,31
EndSplineSet
Validated: 37
EndChar

StartChar: oe
Encoding: 339 339 201
Width: 910
GlyphClass: 1
Flags: W
LayerCount: 2
Fore
SplineSet
30 247 m 1,0,1
 39 316 39 316 67.5 364.5 c 128,-1,2
 96 413 96 413 134 444 c 128,-1,3
 172 475 172 475 216 489.5 c 128,-1,4
 260 504 260 504 300 504 c 0,5,6
 352 504 352 504 395 483 c 128,-1,7
 438 462 438 462 467 406 c 1,8,9
 502 454 502 454 556.5 479 c 128,-1,10
 611 504 611 504 674 504 c 0,11,12
 735 504 735 504 778 481.5 c 128,-1,13
 821 459 821 459 845.5 421 c 128,-1,14
 870 383 870 383 876 332.5 c 128,-1,15
 882 282 882 282 868 226 c 1,16,-1
 484 226 l 1,17,18
 480 181 480 181 489 149.5 c 128,-1,19
 498 118 498 118 516.5 98.5 c 128,-1,20
 535 79 535 79 561 70.5 c 128,-1,21
 587 62 587 62 616 62 c 0,22,23
 658 62 658 62 688.5 75 c 128,-1,24
 719 88 719 88 739 111 c 1,25,-1
 817 87 l 1,26,27
 785 45 785 45 733.5 16.5 c 128,-1,28
 682 -12 682 -12 610 -12 c 256,29,30
 538 -12 538 -12 495 13 c 128,-1,31
 452 38 452 38 424 86 c 1,32,33
 394 46 394 46 346.5 17 c 128,-1,34
 299 -12 299 -12 232 -12 c 0,35,36
 177 -12 177 -12 135.5 6.5 c 128,-1,37
 94 25 94 25 68 58.5 c 128,-1,38
 42 92 42 92 32 140 c 128,-1,39
 22 188 22 188 30 247 c 1,40,-1
 30 247 l 1,0,1
233 62 m 1,41,42
 267 62 267 62 296.5 75 c 128,-1,43
 326 88 326 88 348.5 113 c 128,-1,44
 371 138 371 138 386.5 172 c 128,-1,45
 402 206 402 206 408 248 c 0,46,47
 415 300 415 300 409 335 c 128,-1,48
 403 370 403 370 386.5 391 c 128,-1,49
 370 412 370 412 345.5 421 c 128,-1,50
 321 430 321 430 292 430 c 0,51,52
 265 430 265 430 238 421.5 c 128,-1,53
 211 413 211 413 187.5 392.5 c 128,-1,54
 164 372 164 372 146 337 c 128,-1,55
 128 302 128 302 119 249 c 0,56,57
 104 161 104 161 136 112.5 c 128,-1,58
 168 64 168 64 233 62 c 1,59,-1
 233 62 l 1,41,42
789 293 m 1,60,61
 792 318 792 318 787 343 c 128,-1,62
 782 368 782 368 767 387.5 c 128,-1,63
 752 407 752 407 727 419.5 c 128,-1,64
 702 432 702 432 664 432 c 0,65,66
 636 432 636 432 609 422.5 c 128,-1,67
 582 413 582 413 559.5 395.5 c 128,-1,68
 537 378 537 378 520.5 352 c 128,-1,69
 504 326 504 326 497 293 c 1,70,-1
 789 293 l 1,71,-1
 789 293 l 1,60,61
EndSplineSet
Validated: 37
EndChar

StartChar: Aring
Encoding: 197 197 205
Width: 627
GlyphClass: 1
Flags: W
LayerCount: 2
Fore
SplineSet
408 838 m 1,0,1
 431 838 431 838 450.5 829.5 c 128,-1,2
 470 821 470 821 484.5 806 c 128,-1,3
 499 791 499 791 507 771 c 128,-1,4
 515 751 515 751 515 729 c 256,5,6
 515 707 515 707 507 687 c 128,-1,7
 499 667 499 667 484.5 652 c 128,-1,8
 470 637 470 637 450.5 628.5 c 128,-1,9
 431 620 431 620 408 620 c 256,10,11
 385 620 385 620 364.5 628.5 c 128,-1,12
 344 637 344 637 329 652 c 128,-1,13
 314 667 314 667 305.5 687 c 128,-1,14
 297 707 297 707 297 729 c 256,15,16
 297 751 297 751 305.5 771 c 128,-1,17
 314 791 314 791 329 806 c 128,-1,18
 344 821 344 821 364.5 829.5 c 128,-1,19
 385 838 385 838 408 838 c 1,20,-1
 408 838 l 1,21,-1
 408 838 l 1,0,1
354 729 m 1,22,23
 354 708 354 708 369 693 c 128,-1,24
 384 678 384 678 406 678 c 256,25,26
 428 678 428 678 443 693 c 128,-1,27
 458 708 458 708 458 729 c 256,28,29
 458 750 458 750 443 765 c 128,-1,30
 428 780 428 780 406 780 c 256,31,32
 384 780 384 780 369 765 c 128,-1,33
 354 750 354 750 354 729 c 1,34,-1
 354 729 l 1,35,-1
 354 729 l 1,22,23
456 668 m 1,36,-1
 565 0 l 1,37,-1
 462 0 l 1,38,-1
 441 146 l 1,39,-1
 139 146 l 1,40,-1
 56 0 l 1,41,-1
 -52 0 l 1,42,-1
 340 668 l 1,43,-1
 456 668 l 1,36,-1
430 226 m 1,44,-1
 381 573 l 1,45,-1
 184 226 l 1,46,-1
 430 226 l 1,44,-1
EndSplineSet
Validated: 5
EndChar

StartChar: Ccedilla
Encoding: 199 199 210
Width: 666
GlyphClass: 1
Flags: W
LayerCount: 2
Fore
SplineSet
190 -126 m 1,0,1
 221 -140 221 -140 247 -140 c 0,2,3
 270 -140 270 -140 284.5 -131 c 128,-1,4
 299 -122 299 -122 303 -111 c 128,-1,5
 307 -100 307 -100 299 -91 c 128,-1,6
 291 -82 291 -82 270 -82 c 0,7,8
 256 -82 256 -82 240 -86 c 0,9,10
 225 -90 225 -90 218.5 -79 c 128,-1,11
 212 -68 212 -68 221 -57 c 2,12,-1
 289 25 l 1,13,-1
 319 4 l 1,14,-1
 278 -45 l 1,15,16
 311 -40 311 -40 331.5 -47.5 c 128,-1,17
 352 -55 352 -55 360.5 -70 c 128,-1,18
 369 -85 369 -85 366.5 -104 c 128,-1,19
 364 -123 364 -123 350.5 -140 c 128,-1,20
 337 -157 337 -157 313 -168.5 c 128,-1,21
 289 -180 289 -180 254 -180 c 0,22,23
 214 -180 214 -180 167 -163 c 1,24,-1
 190 -126 l 1,25,-1
 190 -126 l 1,26,-1
 190 -126 l 1,0,1
60 336 m 1,27,28
 73 410 73 410 104 473 c 128,-1,29
 135 536 135 536 181.5 582 c 128,-1,30
 228 628 228 628 289 654 c 128,-1,31
 350 680 350 680 422 680 c 0,32,33
 510 680 510 680 571 643 c 128,-1,34
 632 606 632 606 656 528 c 1,35,-1
 567 498 l 1,36,37
 550 549 550 549 509.5 574.5 c 128,-1,38
 469 600 469 600 412 600 c 0,39,40
 364 600 364 600 322.5 581.5 c 128,-1,41
 281 563 281 563 247.5 528.5 c 128,-1,42
 214 494 214 494 190.5 445.5 c 128,-1,43
 167 397 167 397 156 336 c 0,44,45
 146 278 146 278 153.5 229 c 128,-1,46
 161 180 161 180 183.5 144 c 128,-1,47
 206 108 206 108 242.5 87.5 c 128,-1,48
 279 67 279 67 326 67 c 0,49,50
 392 67 392 67 436.5 92 c 128,-1,51
 481 117 481 117 517 171 c 1,52,-1
 596 140 l 1,53,54
 548 64 548 64 476.5 26 c 128,-1,55
 405 -12 405 -12 316 -12 c 0,56,57
 232 -12 232 -12 177.5 19.5 c 128,-1,58
 123 51 123 51 93.5 101.5 c 128,-1,59
 64 152 64 152 57 214 c 128,-1,60
 50 276 50 276 60 336 c 1,61,-1
 60 336 l 1,62,-1
 60 336 l 1,27,28
EndSplineSet
Validated: 37
EndChar

StartChar: ccedilla
Encoding: 231 231 211
Width: 493
GlyphClass: 1
Flags: W
LayerCount: 2
Fore
SplineSet
105 -126 m 1,0,1
 136 -140 136 -140 162 -140 c 0,2,3
 185 -140 185 -140 199.5 -131 c 128,-1,4
 214 -122 214 -122 218 -111 c 128,-1,5
 222 -100 222 -100 214 -91 c 128,-1,6
 206 -82 206 -82 185 -82 c 0,7,8
 171 -82 171 -82 155 -86 c 0,9,10
 140 -90 140 -90 133.5 -79 c 128,-1,11
 127 -68 127 -68 136 -57 c 2,12,-1
 204 25 l 1,13,-1
 234 4 l 1,14,-1
 193 -45 l 1,15,16
 226 -40 226 -40 246.5 -47.5 c 128,-1,17
 267 -55 267 -55 275.5 -70 c 128,-1,18
 284 -85 284 -85 281.5 -104 c 128,-1,19
 279 -123 279 -123 265.5 -140 c 128,-1,20
 252 -157 252 -157 228 -168.5 c 128,-1,21
 204 -180 204 -180 169 -180 c 0,22,23
 129 -180 129 -180 82 -163 c 1,24,-1
 105 -126 l 1,25,-1
 105 -126 l 1,26,-1
 105 -126 l 1,0,1
29 248 m 1,27,28
 38 303 38 303 60 350 c 128,-1,29
 82 397 82 397 116.5 431 c 128,-1,30
 151 465 151 465 196 484.5 c 128,-1,31
 241 504 241 504 296 504 c 0,32,33
 364 504 364 504 410 475.5 c 128,-1,34
 456 447 456 447 481 393 c 1,35,-1
 398 364 l 1,36,37
 388 394 388 394 359 412 c 128,-1,38
 330 430 330 430 292 430 c 0,39,40
 252 430 252 430 222 414 c 128,-1,41
 192 398 192 398 171 372.5 c 128,-1,42
 150 347 150 347 138 314.5 c 128,-1,43
 126 282 126 282 120 249 c 0,44,45
 114 212 114 212 116 178 c 128,-1,46
 118 144 118 144 131.5 118.5 c 128,-1,47
 145 93 145 93 171 77.5 c 128,-1,48
 197 62 197 62 239 62 c 0,49,50
 280 62 280 62 310 79.5 c 128,-1,51
 340 97 340 97 363 127 c 1,52,-1
 434 99 l 1,53,54
 400 43 400 43 343.5 15.5 c 128,-1,55
 287 -12 287 -12 220 -12 c 0,56,57
 167 -12 167 -12 127 6.5 c 128,-1,58
 87 25 87 25 62.5 59.5 c 128,-1,59
 38 94 38 94 29 142 c 128,-1,60
 20 190 20 190 29 248 c 1,61,-1
 29 248 l 1,62,-1
 29 248 l 1,27,28
EndSplineSet
Validated: 37
EndChar

StartChar: Eth
Encoding: 208 208 252
Width: 712
GlyphClass: 1
Flags: W
LayerCount: 2
Fore
SplineSet
22 303 m 1,0,-1
 39 383 l 1,1,-1
 131 383 l 1,2,-1
 192 668 l 1,3,-1
 376 668 l 2,4,5
 456 668 456 668 517 649.5 c 128,-1,6
 578 631 578 631 617 589.5 c 128,-1,7
 656 548 656 548 669.5 481.5 c 128,-1,8
 683 415 683 415 667 319 c 0,9,10
 654 238 654 238 616.5 178.5 c 128,-1,11
 579 119 579 119 523 79 c 128,-1,12
 467 39 467 39 394 19.5 c 128,-1,13
 321 0 321 0 235 0 c 2,14,-1
 50 0 l 1,15,-1
 114 303 l 1,16,-1
 22 303 l 1,17,-1
 22 303 l 1,0,-1
211 303 m 1,18,-1
 163 79 l 1,19,-1
 249 79 l 2,20,21
 310 79 310 79 364 92 c 128,-1,22
 418 105 418 105 460 134 c 128,-1,23
 502 163 502 163 531 210 c 128,-1,24
 560 257 560 257 572 325 c 0,25,26
 587 410 587 410 574.5 461.5 c 128,-1,27
 562 513 562 513 531 541 c 128,-1,28
 500 569 500 569 454 578.5 c 128,-1,29
 408 588 408 588 356 588 c 2,30,-1
 271 588 l 1,31,-1
 228 383 l 1,32,-1
 368 383 l 1,33,-1
 351 303 l 1,34,-1
 211 303 l 1,35,-1
 211 303 l 1,18,-1
EndSplineSet
Validated: 37
EndChar

StartChar: one.tf
Encoding: 65551 -1 254
Width: 639
GlyphClass: 1
Flags: W
LayerCount: 2
Fore
SplineSet
37 8 m 1,0,-1
 53 85 l 1,1,-1
 232 85 l 1,2,-1
 322 513 l 1,3,-1
 144 513 l 1,4,-1
 159 580 l 1,5,6
 212 580 212 580 250 587 c 128,-1,7
 288 594 288 594 314 606.5 c 128,-1,8
 340 619 340 619 357 637 c 128,-1,9
 374 655 374 655 384 677 c 1,10,-1
 442 677 l 1,11,-1
 317 85 l 1,12,-1
 475 85 l 1,13,-1
 459 8 l 1,14,-1
 37 8 l 1,15,-1
 37 8 l 1,0,-1
EndSplineSet
Validated: 5
Substitution2: "'pnum' Proportional Numbers lookup 4 subtable" one
EndChar

StartChar: ogonek.case
Encoding: 65560 -1 265
Width: 266
GlyphClass: 1
Flags: W
LayerCount: 2
Fore
SplineSet
-33 -106 m 1,0,1
 -33 -72 -33 -72 -4 -43 c 128,-1,2
 25 -14 25 -14 73 0 c 1,3,-1
 152 0 l 1,4,5
 104 -17 104 -17 74 -40 c 128,-1,6
 44 -63 44 -63 44 -89 c 0,7,8
 44 -101 44 -101 55.5 -108.5 c 128,-1,9
 67 -116 67 -116 85 -116 c 0,10,11
 105 -116 105 -116 129 -107 c 1,12,-1
 118 -161 l 1,13,14
 79 -173 79 -173 51 -173 c 0,15,16
 9 -173 9 -173 -12 -153.5 c 128,-1,17
 -33 -134 -33 -134 -33 -106 c 1,18,-1
 -33 -106 l 1,0,1
EndSplineSet
Validated: 5
EndChar

StartChar: aogonek
Encoding: 261 261 267
Width: 520
GlyphClass: 1
Flags: W
LayerCount: 2
Fore
SplineSet
222 -106 m 1,0,1
 222 -72 222 -72 251 -43 c 128,-1,2
 280 -14 280 -14 328 0 c 1,3,-1
 407 0 l 1,4,5
 359 -17 359 -17 329 -40 c 128,-1,6
 299 -63 299 -63 299 -89 c 0,7,8
 299 -101 299 -101 310.5 -108.5 c 128,-1,9
 322 -116 322 -116 340 -116 c 0,10,11
 360 -116 360 -116 384 -107 c 1,12,-1
 373 -161 l 1,13,14
 334 -173 334 -173 306 -173 c 0,15,16
 264 -173 264 -173 243 -153.5 c 128,-1,17
 222 -134 222 -134 222 -106 c 1,18,-1
 222 -106 l 1,19,-1
 222 -106 l 1,0,1
369 308 m 1,20,21
 384 371 384 371 364 403.5 c 128,-1,22
 344 436 344 436 284 436 c 0,23,24
 238 436 238 436 206 415.5 c 128,-1,25
 174 395 174 395 157 359 c 1,26,-1
 82 382 l 1,27,28
 108 439 108 439 158 471.5 c 128,-1,29
 208 504 208 504 280 504 c 0,30,31
 384 504 384 504 430 454.5 c 128,-1,32
 476 405 476 405 454 302 c 2,33,-1
 430 188 l 2,34,35
 417 125 417 125 412.5 80 c 128,-1,36
 408 35 408 35 407 0 c 1,37,-1
 328 0 l 1,38,-1
 324 63 l 1,39,40
 291 25 291 25 251.5 6.5 c 128,-1,41
 212 -12 212 -12 153 -12 c 0,42,43
 121 -12 121 -12 94 -3 c 128,-1,44
 67 6 67 6 47 23 c 128,-1,45
 27 40 27 40 15.5 63.5 c 128,-1,46
 4 87 4 87 4 117 c 0,47,48
 4 159 4 159 23 188.5 c 128,-1,49
 42 218 42 218 73 238 c 128,-1,50
 104 258 104 258 143.5 270.5 c 128,-1,51
 183 283 183 283 223.5 290.5 c 128,-1,52
 264 298 264 298 302.5 301.5 c 128,-1,53
 341 305 341 305 369 308 c 1,54,-1
 369 308 l 1,55,-1
 369 308 l 1,20,21
180 57 m 1,56,57
 248 57 248 57 296 102 c 128,-1,58
 344 147 344 147 358 224 c 2,59,-1
 361 241 l 1,60,61
 303 235 303 235 256 229 c 128,-1,62
 209 223 209 223 175.5 212 c 128,-1,63
 142 201 142 201 122.5 184 c 128,-1,64
 103 167 103 167 99 139 c 0,65,66
 93 97 93 97 117.5 77 c 128,-1,67
 142 57 142 57 180 57 c 1,68,-1
 180 57 l 1,69,-1
 180 57 l 1,56,57
EndSplineSet
Validated: 37
EndChar

StartChar: uni0326
Encoding: 806 806 285
Width: 0
GlyphClass: 4
Flags: W
LayerCount: 2
Fore
SplineSet
-329 -215 m 1,0,1
 -318 -216 -318 -216 -302.5 -213.5 c 128,-1,2
 -287 -211 -287 -211 -272 -203.5 c 128,-1,3
 -257 -196 -257 -196 -244.5 -182.5 c 128,-1,4
 -232 -169 -232 -169 -228 -147 c 0,5,6
 -223 -127 -223 -127 -231.5 -110 c 128,-1,7
 -240 -93 -240 -93 -258 -85 c 1,8,-1
 -198 -56 l 1,9,10
 -173 -72 -173 -72 -164.5 -95.5 c 128,-1,11
 -156 -119 -156 -119 -161 -143 c 0,12,13
 -170 -193 -170 -193 -210.5 -222 c 128,-1,14
 -251 -251 -251 -251 -304 -251 c 1,15,-1
 -329 -215 l 1,16,-1
 -329 -215 l 1,0,1
EndSplineSet
Validated: 37
EndChar

StartChar: Uogonek
Encoding: 370 370 296
Width: 693
GlyphClass: 1
Flags: W
LayerCount: 2
Fore
SplineSet
178 -106 m 1,0,1
 178 -72 178 -72 207 -43 c 128,-1,2
 236 -14 236 -14 284 0 c 1,3,-1
 363 0 l 1,4,5
 315 -17 315 -17 285 -40 c 128,-1,6
 255 -63 255 -63 255 -89 c 0,7,8
 255 -101 255 -101 266.5 -108.5 c 128,-1,9
 278 -116 278 -116 296 -116 c 0,10,11
 316 -116 316 -116 340 -107 c 1,12,-1
 329 -161 l 1,13,14
 290 -173 290 -173 262 -173 c 0,15,16
 220 -173 220 -173 199 -153.5 c 128,-1,17
 178 -134 178 -134 178 -106 c 1,18,-1
 178 -106 l 1,19,-1
 178 -106 l 1,0,1
157 668 m 1,20,-1
 253 668 l 1,21,-1
 169 272 l 2,22,23
 147 166 147 166 173.5 117.5 c 128,-1,24
 200 69 200 69 291 69 c 0,25,26
 336 69 336 69 372 78.5 c 128,-1,27
 408 88 408 88 436 111.5 c 128,-1,28
 464 135 464 135 483.5 174 c 128,-1,29
 503 213 503 213 516 272 c 2,30,-1
 601 668 l 1,31,-1
 697 668 l 1,32,-1
 614 280 l 2,33,34
 593 180 593 180 557 121.5 c 128,-1,35
 521 63 521 63 476.5 33.5 c 128,-1,36
 432 4 432 4 382.5 -4 c 128,-1,37
 333 -12 333 -12 286 -12 c 0,38,39
 147 -12 147 -12 94 57.5 c 128,-1,40
 41 127 41 127 74 280 c 1,41,-1
 74 280 l 1,42,-1
 157 668 l 1,20,-1
EndSplineSet
Validated: 37
EndChar

StartChar: Hbar
Encoding: 294 294 305
Width: 710
GlyphClass: 1
Flags: W
LayerCount: 2
Fore
SplineSet
130 504 m 1,0,-1
 55 504 l 1,1,-1
 72 583 l 1,2,-1
 147 583 l 1,3,-1
 165 668 l 1,4,-1
 261 668 l 1,5,-1
 243 583 l 1,6,-1
 593 583 l 1,7,-1
 611 668 l 1,8,-1
 707 668 l 1,9,-1
 689 583 l 1,10,-1
 762 583 l 1,11,-1
 745 504 l 1,12,-1
 672 504 l 1,13,-1
 565 0 l 1,14,-1
 469 0 l 1,15,-1
 533 304 l 1,16,-1
 184 304 l 1,17,-1
 119 0 l 1,18,-1
 23 0 l 1,19,-1
 130 504 l 1,0,-1
226 504 m 1,20,-1
 201 384 l 1,21,-1
 551 384 l 1,22,-1
 576 504 l 1,23,-1
 226 504 l 1,20,-1
EndSplineSet
Validated: 1
EndChar

StartChar: hbar
Encoding: 295 295 306
Width: 582
GlyphClass: 1
Flags: W
LayerCount: 2
Fore
SplineSet
41 0 m 1,0,-1
 157 548 l 1,1,-1
 75 548 l 1,2,-1
 89 615 l 1,3,-1
 172 615 l 1,4,-1
 183 668 l 1,5,-1
 269 668 l 1,6,-1
 258 615 l 1,7,-1
 418 615 l 1,8,-1
 404 548 l 1,9,-1
 244 548 l 1,10,-1
 218 427 l 1,11,12
 243 459 243 459 282.5 481.5 c 128,-1,13
 322 504 322 504 389 504 c 0,14,15
 468 504 468 504 503 451.5 c 128,-1,16
 538 399 538 399 514 288 c 2,17,-1
 452 0 l 1,18,-1
 367 0 l 1,19,-1
 426 280 l 2,20,21
 435 322 435 322 435.5 351 c 128,-1,22
 436 380 436 380 427 397.5 c 128,-1,23
 418 415 418 415 399.5 422.5 c 128,-1,24
 381 430 381 430 352 430 c 0,25,26
 325 430 325 430 298.5 421.5 c 128,-1,27
 272 413 272 413 249.5 392.5 c 128,-1,28
 227 372 227 372 209 339 c 128,-1,29
 191 306 191 306 181 257 c 2,30,-1
 127 0 l 1,31,-1
 41 0 l 1,32,-1
 41 0 l 1,0,-1
EndSplineSet
Validated: 37
EndChar

StartChar: uni0123
Encoding: 291 291 311
Width: 554
GlyphClass: 1
Flags: W
LayerCount: 2
Fore
SplineSet
395 521 m 1,0,1
 395 521 395 521 395 521 c 129,-1,2
 395 521 395 521 395 521 c 129,-1,3
 395 521 395 521 395 521 c 129,-1,4
 395 521 395 521 395 521 c 257,5,6
 395 521 395 521 395 521 c 129,-1,7
 395 521 395 521 395 521 c 1,8,-1
 395 521 l 1,9,10
 395 521 395 521 395 521 c 129,-1,11
 395 521 395 521 395 521 c 257,12,13
 395 521 395 521 395 521 c 129,-1,14
 395 521 395 521 395 521 c 1,15,-1
 395 521 l 1,16,-1
 395 521 l 1,17,-1
 395 521 l 1,0,1
85 -53 m 1,18,19
 90 -78 90 -78 117 -98.5 c 128,-1,20
 144 -119 144 -119 193 -117 c 0,21,22
 231 -116 231 -116 256 -104.5 c 128,-1,23
 281 -93 281 -93 297.5 -74.5 c 128,-1,24
 314 -56 314 -56 324 -31 c 128,-1,25
 334 -6 334 -6 341 23 c 0,26,27
 343 28 343 28 345 37.5 c 128,-1,28
 347 47 347 47 349 56 c 0,29,30
 351 67 351 67 354 80 c 1,31,32
 329 48 329 48 293 32 c 128,-1,33
 257 16 257 16 218 16 c 0,34,35
 181 16 181 16 145 31 c 128,-1,36
 109 46 109 46 82 76 c 128,-1,37
 55 106 55 106 41 151.5 c 128,-1,38
 27 197 27 197 33 258 c 0,39,40
 40 325 40 325 63 372 c 128,-1,41
 86 419 86 419 118.5 449 c 128,-1,42
 151 479 151 479 189 492.5 c 128,-1,43
 227 506 227 506 265 506 c 0,44,45
 318 506 318 506 361.5 482.5 c 128,-1,46
 405 459 405 459 425 418 c 1,47,-1
 465 496 l 1,48,-1
 527 496 l 1,49,50
 507 400 507 400 489 314 c 0,51,52
 481 277 481 277 473 238.5 c 128,-1,53
 465 200 465 200 457.5 164.5 c 128,-1,54
 450 129 450 129 443.5 98.5 c 128,-1,55
 437 68 437 68 432 47 c 0,56,57
 426 19 426 19 416.5 -21.5 c 128,-1,58
 407 -62 407 -62 381.5 -99.5 c 128,-1,59
 356 -137 356 -137 308.5 -163.5 c 128,-1,60
 261 -190 261 -190 179 -190 c 0,61,62
 148 -190 148 -190 118.5 -182.5 c 128,-1,63
 89 -175 89 -175 64.5 -160.5 c 128,-1,64
 40 -146 40 -146 22 -125 c 128,-1,65
 4 -104 4 -104 -5 -78 c 1,66,-1
 -5 -78 l 1,67,-1
 85 -53 l 1,18,19
242 89 m 1,68,69
 273 88 273 88 298 100.5 c 128,-1,70
 323 113 323 113 342.5 135.5 c 128,-1,71
 362 158 362 158 375.5 189 c 128,-1,72
 389 220 389 220 395 256 c 0,73,74
 403 299 403 299 395.5 332 c 128,-1,75
 388 365 388 365 370.5 387 c 128,-1,76
 353 409 353 409 328 420.5 c 128,-1,77
 303 432 303 432 275 432 c 0,78,79
 213 432 213 432 173 386 c 128,-1,80
 133 340 133 340 122 256 c 0,81,82
 112 179 112 179 146.5 135 c 128,-1,83
 181 91 181 91 242 89 c 1,84,-1
 242 89 l 1,85,-1
 242 89 l 1,68,69
EndSplineSet
Validated: 37
EndChar

StartChar: caron.salt
Encoding: 65561 -1 317
Width: 206
GlyphClass: 1
Flags: W
LayerCount: 2
Fore
SplineSet
96 495 m 1,0,1
 98 500 98 500 105.5 521 c 128,-1,2
 113 542 113 542 122.5 567.5 c 128,-1,3
 132 593 132 593 141.5 616.5 c 128,-1,4
 151 640 151 640 155 649 c 0,5,6
 158 657 158 657 169 667.5 c 128,-1,7
 180 678 180 678 197 678 c 0,8,9
 215 678 215 678 224.5 664.5 c 128,-1,10
 234 651 234 651 224 629 c 2,11,-1
 145 495 l 1,12,-1
 96 495 l 1,13,-1
 96 495 l 1,0,1
EndSplineSet
Validated: 37
EndChar

StartChar: dcroat
Encoding: 273 273 330
Width: 601
GlyphClass: 1
Flags: W
LayerCount: 2
Fore
SplineSet
30 247 m 1,0,1
 38 307 38 307 59.5 354.5 c 128,-1,2
 81 402 81 402 112.5 435.5 c 128,-1,3
 144 469 144 469 184.5 486.5 c 128,-1,4
 225 504 225 504 271 504 c 0,5,6
 331 504 331 504 370.5 473.5 c 128,-1,7
 410 443 410 443 424 398 c 1,8,-1
 456 548 l 1,9,-1
 293 548 l 1,10,-1
 308 615 l 1,11,-1
 470 615 l 1,12,-1
 481 668 l 1,13,-1
 567 668 l 1,14,15
 566 662 566 662 564 654 c 0,16,17
 562 647 562 647 560.5 637.5 c 128,-1,18
 559 628 559 628 556 615 c 1,19,-1
 637 615 l 1,20,-1
 622 548 l 1,21,-1
 541 548 l 1,22,23
 532 505 532 505 521 453.5 c 128,-1,24
 510 402 510 402 499.5 352.5 c 128,-1,25
 489 303 489 303 480 259.5 c 128,-1,26
 471 216 471 216 465 188 c 0,27,28
 460 162 460 162 451.5 114 c 128,-1,29
 443 66 443 66 442 0 c 1,30,-1
 361 0 l 1,31,-1
 356 61 l 1,32,33
 330 29 330 29 295 8.5 c 128,-1,34
 260 -12 260 -12 205 -12 c 0,35,36
 157 -12 157 -12 121 8 c 128,-1,37
 85 28 85 28 62.5 62.5 c 128,-1,38
 40 97 40 97 31.5 144.5 c 128,-1,39
 23 192 23 192 30 247 c 1,40,-1
 30 247 l 1,0,1
226 60 m 1,41,42
 266 60 266 60 296.5 77.5 c 128,-1,43
 327 95 327 95 348 122.5 c 128,-1,44
 369 150 369 150 381 183 c 128,-1,45
 393 216 393 216 396 247 c 0,46,47
 404 331 404 331 374.5 381.5 c 128,-1,48
 345 432 345 432 280 432 c 0,49,50
 246 432 246 432 219 417 c 128,-1,51
 192 402 192 402 172.5 377 c 128,-1,52
 153 352 153 352 140 318.5 c 128,-1,53
 127 285 127 285 121 247 c 0,54,55
 114 200 114 200 119.5 165 c 128,-1,56
 125 130 125 130 140.5 106.5 c 128,-1,57
 156 83 156 83 178.5 71.5 c 128,-1,58
 201 60 201 60 226 60 c 1,59,-1
 226 60 l 1,41,42
EndSplineSet
Validated: 37
EndChar

StartChar: Scedilla
Encoding: 350 350 338
Width: 609
GlyphClass: 1
Flags: W
LayerCount: 2
Fore
SplineSet
182 -126 m 1,0,1
 213 -140 213 -140 239 -140 c 0,2,3
 262 -140 262 -140 276.5 -131 c 128,-1,4
 291 -122 291 -122 295 -111 c 128,-1,5
 299 -100 299 -100 291 -91 c 128,-1,6
 283 -82 283 -82 262 -82 c 0,7,8
 248 -82 248 -82 232 -86 c 0,9,10
 217 -90 217 -90 210.5 -79 c 128,-1,11
 204 -68 204 -68 213 -57 c 2,12,-1
 281 25 l 1,13,-1
 311 4 l 1,14,-1
 270 -45 l 1,15,16
 303 -40 303 -40 323.5 -47.5 c 128,-1,17
 344 -55 344 -55 352.5 -70 c 128,-1,18
 361 -85 361 -85 358.5 -104 c 128,-1,19
 356 -123 356 -123 342.5 -140 c 128,-1,20
 329 -157 329 -157 305 -168.5 c 128,-1,21
 281 -180 281 -180 246 -180 c 0,22,23
 206 -180 206 -180 159 -163 c 1,24,-1
 182 -126 l 1,25,-1
 182 -126 l 1,26,-1
 182 -126 l 1,0,1
127 172 m 1,27,28
 136 145 136 145 153.5 125 c 128,-1,29
 171 105 171 105 193.5 92.5 c 128,-1,30
 216 80 216 80 241.5 73.5 c 128,-1,31
 267 67 267 67 293 67 c 0,32,33
 322 67 322 67 349.5 74.5 c 128,-1,34
 377 82 377 82 398.5 97 c 128,-1,35
 420 112 420 112 433 134 c 128,-1,36
 446 156 446 156 446 184 c 0,37,38
 446 226 446 226 419.5 248.5 c 128,-1,39
 393 271 393 271 353 286 c 128,-1,40
 313 301 313 301 266.5 313.5 c 128,-1,41
 220 326 220 326 180 346.5 c 128,-1,42
 140 367 140 367 113.5 401.5 c 128,-1,43
 87 436 87 436 87 495 c 0,44,45
 87 541 87 541 107 575.5 c 128,-1,46
 127 610 127 610 160.5 633.5 c 128,-1,47
 194 657 194 657 236.5 668.5 c 128,-1,48
 279 680 279 680 324 680 c 0,49,50
 361 680 361 680 397 672 c 128,-1,51
 433 664 433 664 464.5 648.5 c 128,-1,52
 496 633 496 633 521 609.5 c 128,-1,53
 546 586 546 586 561 555 c 1,54,-1
 469 529 l 1,55,56
 460 547 460 547 444 560.5 c 128,-1,57
 428 574 428 574 408 583 c 128,-1,58
 388 592 388 592 365.5 596.5 c 128,-1,59
 343 601 343 601 320 601 c 0,60,61
 295 601 295 601 270.5 595 c 128,-1,62
 246 589 246 589 227 577 c 128,-1,63
 208 565 208 565 196 547 c 128,-1,64
 184 529 184 529 182 505 c 0,65,66
 180 474 180 474 194.5 454 c 128,-1,67
 209 434 209 434 234 420 c 128,-1,68
 259 406 259 406 291.5 395.5 c 128,-1,69
 324 385 324 385 358.5 374.5 c 128,-1,70
 393 364 393 364 426.5 351 c 128,-1,71
 460 338 460 338 486 317.5 c 128,-1,72
 512 297 512 297 528 268 c 128,-1,73
 544 239 544 239 544 197 c 0,74,75
 544 147 544 147 522 108 c 128,-1,76
 500 69 500 69 463.5 42.5 c 128,-1,77
 427 16 427 16 380.5 2 c 128,-1,78
 334 -12 334 -12 285 -12 c 0,79,80
 245 -12 245 -12 206.5 -2.5 c 128,-1,81
 168 7 168 7 134.5 26.5 c 128,-1,82
 101 46 101 46 75.5 76 c 128,-1,83
 50 106 50 106 36 147 c 1,84,-1
 36 147 l 1,85,-1
 127 172 l 1,27,28
EndSplineSet
Validated: 37
EndChar

StartChar: scedilla
Encoding: 351 351 339
Width: 479
GlyphClass: 1
Flags: W
LayerCount: 2
Fore
SplineSet
102 -126 m 1,0,1
 133 -140 133 -140 159 -140 c 0,2,3
 182 -140 182 -140 196.5 -131 c 128,-1,4
 211 -122 211 -122 215 -111 c 128,-1,5
 219 -100 219 -100 211 -91 c 128,-1,6
 203 -82 203 -82 182 -82 c 0,7,8
 168 -82 168 -82 152 -86 c 0,9,10
 137 -90 137 -90 130.5 -79 c 128,-1,11
 124 -68 124 -68 133 -57 c 2,12,-1
 201 25 l 1,13,-1
 231 4 l 1,14,-1
 190 -45 l 1,15,16
 223 -40 223 -40 243.5 -47.5 c 128,-1,17
 264 -55 264 -55 272.5 -70 c 128,-1,18
 281 -85 281 -85 278.5 -104 c 128,-1,19
 276 -123 276 -123 262.5 -140 c 128,-1,20
 249 -157 249 -157 225 -168.5 c 128,-1,21
 201 -180 201 -180 166 -180 c 0,22,23
 126 -180 126 -180 79 -163 c 1,24,-1
 102 -126 l 1,25,-1
 102 -126 l 1,26,-1
 102 -126 l 1,0,1
96 142 m 1,27,28
 100 120 100 120 111.5 103.5 c 128,-1,29
 123 87 123 87 139.5 76.5 c 128,-1,30
 156 66 156 66 176 61 c 128,-1,31
 196 56 196 56 216 56 c 0,32,33
 237 56 237 56 256.5 61.5 c 128,-1,34
 276 67 276 67 291 77 c 128,-1,35
 306 87 306 87 315.5 102.5 c 128,-1,36
 325 118 325 118 325 137 c 0,37,38
 325 165 325 165 304.5 180.5 c 128,-1,39
 284 196 284 196 253.5 206 c 128,-1,40
 223 216 223 216 187 225.5 c 128,-1,41
 151 235 151 235 120.5 251 c 128,-1,42
 90 267 90 267 69.5 293.5 c 128,-1,43
 49 320 49 320 49 365 c 0,44,45
 49 400 49 400 65.5 426 c 128,-1,46
 82 452 82 452 108.5 469.5 c 128,-1,47
 135 487 135 487 169.5 495.5 c 128,-1,48
 204 504 204 504 240 504 c 0,49,50
 271 504 271 504 301 497.5 c 128,-1,51
 331 491 331 491 357 478.5 c 128,-1,52
 383 466 383 466 402.5 447 c 128,-1,53
 422 428 422 428 431 402 c 1,54,-1
 351 374 l 1,55,56
 346 389 346 389 334 400.5 c 128,-1,57
 322 412 322 412 306 419.5 c 128,-1,58
 290 427 290 427 271 431 c 128,-1,59
 252 435 252 435 233 435 c 256,60,61
 214 435 214 435 196 431 c 128,-1,62
 178 427 178 427 164.5 419 c 128,-1,63
 151 411 151 411 142.5 399 c 128,-1,64
 134 387 134 387 134 370 c 0,65,66
 134 343 134 343 154.5 328 c 128,-1,67
 175 313 175 313 206 302.5 c 128,-1,68
 237 292 237 292 273.5 282.5 c 128,-1,69
 310 273 310 273 341 257 c 128,-1,70
 372 241 372 241 392.5 214 c 128,-1,71
 413 187 413 187 413 143 c 0,72,73
 413 105 413 105 397.5 76 c 128,-1,74
 382 47 382 47 355 27.5 c 128,-1,75
 328 8 328 8 291.5 -2 c 128,-1,76
 255 -12 255 -12 213 -12 c 0,77,78
 138 -12 138 -12 87 17 c 128,-1,79
 36 46 36 46 10 113 c 1,80,-1
 10 113 l 1,81,-1
 96 142 l 1,27,28
EndSplineSet
Validated: 37
EndChar

StartChar: eogonek
Encoding: 281 281 350
Width: 541
GlyphClass: 1
Flags: W
LayerCount: 2
Fore
SplineSet
30 248 m 1,0,1
 39 310 39 310 63 357.5 c 128,-1,2
 87 405 87 405 123 437.5 c 128,-1,3
 159 470 159 470 206 487 c 128,-1,4
 253 504 253 504 308 504 c 0,5,6
 368 504 368 504 410.5 481 c 128,-1,7
 453 458 453 458 477 419.5 c 128,-1,8
 501 381 501 381 506.5 330.5 c 128,-1,9
 512 280 512 280 499 225 c 1,10,-1
 115 225 l 1,11,12
 110 178 110 178 120 146.5 c 128,-1,13
 130 115 130 115 149.5 96.5 c 128,-1,14
 169 78 169 78 194.5 70 c 128,-1,15
 220 62 220 62 247 62 c 0,16,17
 289 62 289 62 319 75 c 128,-1,18
 349 88 349 88 370 111 c 1,19,-1
 448 87 l 1,20,21
 427 60 427 60 399 39 c 128,-1,22
 371 18 371 18 336 5 c 0,23,24
 323 -1 323 -1 309.5 -9.5 c 128,-1,25
 296 -18 296 -18 284.5 -29 c 128,-1,26
 273 -40 273 -40 266 -53.5 c 128,-1,27
 259 -67 259 -67 259 -83 c 256,28,29
 259 -99 259 -99 270.5 -107.5 c 128,-1,30
 282 -116 282 -116 301 -116 c 256,31,32
 320 -116 320 -116 344 -107 c 1,33,-1
 333 -161 l 1,34,35
 296 -173 296 -173 266 -173 c 0,36,37
 224 -173 224 -173 203 -152.5 c 128,-1,38
 182 -132 182 -132 182 -100 c 0,39,40
 182 -73 182 -73 196.5 -51 c 128,-1,41
 211 -29 211 -29 234 -12 c 1,42,43
 180 -11 180 -11 138 7.5 c 128,-1,44
 96 26 96 26 69.5 60 c 128,-1,45
 43 94 43 94 32.5 141.5 c 128,-1,46
 22 189 22 189 30 248 c 1,47,-1
 30 248 l 1,0,1
127 293 m 1,48,-1
 420 293 l 1,49,50
 423 317 423 317 417.5 342 c 128,-1,51
 412 367 412 367 397.5 387 c 128,-1,52
 383 407 383 407 358 419.5 c 128,-1,53
 333 432 333 432 296 432 c 0,54,55
 268 432 268 432 241 423 c 128,-1,56
 214 414 214 414 191 396 c 128,-1,57
 168 378 168 378 151 352 c 128,-1,58
 134 326 134 326 127 293 c 1,59,-1
 127 293 l 1,48,-1
EndSplineSet
Validated: 37
EndChar

StartChar: uogonek
Encoding: 371 371 351
Width: 540
GlyphClass: 1
Flags: W
LayerCount: 2
Fore
SplineSet
49 203 m 1,0,-1
 111 496 l 1,1,-1
 197 496 l 1,2,-1
 135 205 l 2,3,4
 129 176 129 176 126.5 150 c 128,-1,5
 124 124 124 124 130 104.5 c 128,-1,6
 136 85 136 85 153 73.5 c 128,-1,7
 170 62 170 62 203 62 c 0,8,9
 262 62 262 62 307 102.5 c 128,-1,10
 352 143 352 143 372 236 c 2,11,-1
 428 496 l 1,12,-1
 513 496 l 1,13,-1
 408 0 l 1,14,15
 360 -17 360 -17 330 -40 c 128,-1,16
 300 -63 300 -63 300 -89 c 0,17,18
 300 -101 300 -101 311.5 -108.5 c 128,-1,19
 323 -116 323 -116 341 -116 c 0,20,21
 361 -116 361 -116 385 -107 c 1,22,-1
 374 -161 l 1,23,24
 335 -173 335 -173 307 -173 c 0,25,26
 265 -173 265 -173 244 -153.5 c 128,-1,27
 223 -134 223 -134 223 -106 c 0,28,29
 223 -83 223 -83 234.5 -65 c 128,-1,30
 246 -47 246 -47 263.5 -33.5 c 128,-1,31
 281 -20 281 -20 302.5 -10.5 c 128,-1,32
 324 -1 324 -1 343 5 c 1,33,-1
 337 70 l 1,34,35
 305 28 305 28 267.5 8.5 c 128,-1,36
 230 -11 230 -11 173 -11 c 0,37,38
 125 -11 125 -11 96.5 6.5 c 128,-1,39
 68 24 68 24 54.5 53.5 c 128,-1,40
 41 83 41 83 40.5 122 c 128,-1,41
 40 161 40 161 49 203 c 1,42,-1
 49 203 l 1,0,-1
EndSplineSet
Validated: 37
EndChar
